<?xml version="1.0" encoding="UTF-8" standalone="no"?>
<!-- Created with Inkscape (http://www.inkscape.org/) -->

<svg
   xmlns:dc="http://purl.org/dc/elements/1.1/"
   xmlns:cc="http://creativecommons.org/ns#"
   xmlns:rdf="http://www.w3.org/1999/02/22-rdf-syntax-ns#"
   xmlns:svg="http://www.w3.org/2000/svg"
   xmlns="http://www.w3.org/2000/svg"
   xmlns:sodipodi="http://sodipodi.sourceforge.net/DTD/sodipodi-0.dtd"
   xmlns:inkscape="http://www.inkscape.org/namespaces/inkscape"
   width="260mm"
   height="260mm"
   viewBox="0 0 260 260"
   version="1.1"
   id="svg4426"
   inkscape:version="0.92.3 (2405546, 2018-03-11)"
   sodipodi:docname="php-com-rapadura.svg">
  <defs
     id="defs4420" />
  <sodipodi:namedview
     id="base"
     pagecolor="#ffffff"
     bordercolor="#666666"
     borderopacity="1.0"
     inkscape:pageopacity="0.0"
     inkscape:pageshadow="2"
     inkscape:zoom="0.24748737"
     inkscape:cx="278.35941"
     inkscape:cy="669.33086"
     inkscape:document-units="mm"
     inkscape:current-layer="layer1"
     showgrid="false"
     inkscape:window-width="1366"
     inkscape:window-height="705"
     inkscape:window-x="-8"
     inkscape:window-y="-8"
     inkscape:window-maximized="1" />
  <metadata
     id="metadata4423">
    <rdf:RDF>
      <cc:Work
         rdf:about="">
        <dc:format>image/svg+xml</dc:format>
        <dc:type
           rdf:resource="http://purl.org/dc/dcmitype/StillImage" />
        <dc:title></dc:title>
      </cc:Work>
    </rdf:RDF>
  </metadata>
  <g
     inkscape:label="Camada 1"
     inkscape:groupmode="layer"
     id="layer1"
     transform="translate(0,-37)">
    <g
       id="g2923-4-6-8-8"
       transform="matrix(4.6952935,-0.00964426,0.0097215,4.6579891,5034.6967,-3566.992)"
       style="fill:#ffffff">
      <g
         transform="matrix(0.97619152,0,0,0.97619152,-1077.1421,770.51962)"
         style="fill:#ffffff"
         id="g2881-4-0-3-8">
        <g
           style="fill:#ffffff"
           id="g2879-9-5-7-1">
          <path
             sodipodi:nodetypes="ccccccccccccccccccc"
             inkscape:connector-curvature="0"
             id="path2877-93-1-6-1"
             transform="matrix(0.2710363,0,0,0.2710363,1103.4127,-789.31194)"
             d="m -3877.8301,3010.9141 c -0.8765,0.4119 -1.812,0.8339 -2.8769,1.2734 0,0 -5.1783,0.2076 -6.875,0.2793 5.0547,9.5551 8.0627,20.3177 9.0879,31.082 2.2137,22.5062 -10.3307,41.6905 -26.9336,55.3418 -11.8066,9.9618 -25.4571,15.4961 -40.9532,15.4961 -19.9235,-0.3689 -29.5171,-30.623 -9.2246,-38.3711 8.8549,-3.6895 23.2443,11.4369 8.1172,14.0196 -5.9032,0.3689 -3.3214,9.2242 2.2129,8.4863 20.6614,-3.3206 16.6031,-23.244 0.3692,-30.6231 -22.1373,-9.9617 -39.1097,24.7195 -28.0411,41.6914 14.0203,21.3994 44.275,14.7581 62.7227,3.6895 25.0889,-14.7582 41.693,-40.2141 40.9551,-69.7305 -0.2856,-11.519 -3.378,-22.6433 -8.5606,-32.6347 z m -108.291,4.5625 c -2.9179,0.043 -5.6854,0.067 -8.4687,0.094 -0.2419,22.1118 13.8619,44.7209 40.8281,49.377 5.9032,1.1068 8.4872,-7.7486 2.584,-8.8555 -21.0925,-3.5902 -34.8139,-22.1905 -34.9434,-40.6152 z"
             style="fill:#ffffff;stroke-width:3.68954277" />
        </g>
      </g>
      <g
         transform="matrix(0.97619152,0,0,0.97619152,-1077.1421,770.51962)"
         style="fill:#ffffff"
         id="g2887-6-0-2-4">
        <g
           style="fill:#ffffff"
           id="g2885-05-1-8-5">
          <path
             id="path2883-0-4-4-4"
             d="m 26.5,50.3 c -2.4,1.2 -3,-4 -5.7,-2.4 -2.9,1.7 -4.1,3.2 -6.5,-0.5 C 13.3,45.9 12.6,44.3 12,42.6 9.8,36.5 9.5,30.3 14,25.2 18.6,20 26,17 32.9,17.7 c 1.6,0.2 1.6,-2.3 0,-2.5 -7.8,-0.9 -15.2,2.8 -20.6,8.2 -5.2,5.2 -4.9,12.1 -3,18.7 1.1,3.9 3.7,10.6 8.4,11 0.5,0 1.4,-0.3 1.8,-0.7 0.7,-0.9 1.5,-1.5 2.6,-1.8 0.4,0.5 0.5,1.2 1,1.6 1.4,1.4 3.2,1 4.8,0.2 1.3,-0.7 0,-2.9 -1.4,-2.1 z"
             inkscape:connector-curvature="0"
             style="fill:#ffffff" />
        </g>
      </g>
      <g
         transform="matrix(0.97619152,0,0,0.97619152,-1077.1421,770.51962)"
         style="fill:#ffffff"
         id="g2891-2-1-6-6">
        <path
           id="path2889-9-0-9-9"
           d="m 37.6,32.5 c 0,0 0.1,-0.4 0.3,-0.9 0.1,-0.3 0.3,-0.6 0.6,-0.8 0.3,-0.3 0.6,-0.6 1,-0.7 C 39.7,30 40,30 40.2,30 c 0.3,0 0.5,0.1 0.7,0.2 0.2,0.1 0.3,0.3 0.5,0.4 0.1,0.1 0.2,0.3 0.3,0.5 0.1,0.3 0.1,0.5 0.2,0.7 0,0.2 0,0.3 0,0.3 0,0 -0.1,-0.1 -0.2,-0.2 -0.1,-0.1 -0.3,-0.3 -0.5,-0.5 -0.1,-0.1 -0.2,-0.2 -0.3,-0.3 -0.1,-0.1 -0.2,-0.2 -0.3,-0.2 -0.1,-0.1 -0.2,0 -0.3,0 -0.1,0 -0.2,0 -0.4,0.1 -0.3,0.1 -0.5,0.3 -0.8,0.5 -0.3,0.2 -0.5,0.4 -0.7,0.5 -0.5,0.2 -0.8,0.5 -0.8,0.5 z"
           inkscape:connector-curvature="0"
           style="fill:#ffffff" />
      </g>
      <g
         transform="matrix(0.97619152,0,0,0.97619152,-1077.1421,770.51962)"
         style="fill:#ffffff"
         id="g2895-4-2-8-6">
        <path
           id="path2893-3-5-9-9"
           d="m 46.6,44.7 c 0,0 0.3,-0.1 0.7,0 0.4,0 1,0.2 1.5,0.5 0.2,0.2 0.5,0.3 0.7,0.6 0.2,0.2 0.3,0.5 0.4,0.7 0.1,0.2 0.1,0.5 0,0.6 0,0.1 -0.1,0.2 -0.1,0.2 0,0 0,-0.1 -0.1,-0.2 -0.1,-0.1 -0.2,-0.2 -0.3,-0.3 -0.3,-0.2 -0.7,-0.5 -1.1,-0.7 -0.4,-0.3 -0.9,-0.6 -1.2,-0.8 -0.3,-0.4 -0.5,-0.6 -0.5,-0.6 z"
           inkscape:connector-curvature="0"
           style="fill:#ffffff" />
      </g>
      <g
         transform="matrix(0.97619152,0,0,0.97619152,-1077.1421,770.51962)"
         style="fill:#ffffff"
         id="g2899-5-3-8-3">
        <path
           id="path2897-1-1-8-0"
           d="m 49.3,39.2 c 0,0 0.3,-0.2 0.7,-0.2 0.4,-0.1 1,-0.1 1.6,0.1 0.3,0.1 0.6,0.2 0.8,0.3 0.2,0.1 0.5,0.3 0.6,0.6 0.1,0.2 0.2,0.4 0.2,0.6 0,0.1 0,0.2 0,0.2 0,0 -0.1,0 -0.2,-0.1 -0.1,-0.1 -0.2,-0.1 -0.4,-0.2 -0.3,-0.1 -0.8,-0.2 -1.3,-0.4 -0.5,-0.1 -1,-0.3 -1.4,-0.4 -0.4,-0.3 -0.6,-0.5 -0.6,-0.5 z"
           inkscape:connector-curvature="0"
           style="fill:#ffffff" />
      </g>
      <g
         transform="matrix(0.97619152,0,0,0.97619152,-1077.1421,770.51962)"
         style="fill:#ffffff"
         id="g2903-7-2-8-3">
        <path
           id="path2901-43-6-2-7"
           d="m 41.9,49.6 c 0,0 0.3,-0.1 0.7,0 0.4,0 1,0.2 1.5,0.5 0.2,0.2 0.5,0.3 0.7,0.6 0.2,0.2 0.4,0.5 0.4,0.7 0.1,0.2 0.1,0.5 0,0.6 0,0.1 -0.1,0.2 -0.1,0.2 0,0 0,-0.1 -0.1,-0.2 C 44.9,51.9 44.8,51.8 44.7,51.7 44.4,51.5 44,51.2 43.6,51 43.2,50.7 42.7,50.4 42.4,50.2 42.2,49.9 41.9,49.6 41.9,49.6 Z"
           inkscape:connector-curvature="0"
           style="fill:#ffffff" />
      </g>
      <g
         transform="matrix(0.97619152,0,0,0.97619152,-1077.1421,770.51962)"
         style="fill:#ffffff"
         id="g2921-1-3-5-1">
        <path
           id="path2905-4-9-7-2"
           d="M 6.4,29.7 C 2.3,30.8 9.2,35 6.7,36.5"
           stroke-miterlimit="10"
           inkscape:connector-curvature="0"
           style="fill:#ffffff;stroke:#ffffff;stroke-miterlimit:10;stroke-opacity:1" />
        <path
           id="path2907-69-0-1-5"
           d="M 6,35.7 C 5.2,33.6 7.6,31.6 6,29.6"
           stroke-miterlimit="10"
           inkscape:connector-curvature="0"
           style="fill:#ffffff;stroke:#ffffff;stroke-miterlimit:10;stroke-opacity:1" />
        <path
           id="path2909-4-4-5-5"
           d="M 6.2,29.8 C 3.5,28.8 5.4,34.1 4.9,35"
           stroke-miterlimit="10"
           inkscape:connector-curvature="0"
           style="fill:#ffffff;stroke:#ffffff;stroke-miterlimit:10;stroke-opacity:1" />
        <path
           id="path2911-2-3-4-2"
           d="m 57.7,29 c -4.1,1.1 2.8,5.3 0.3,6.8"
           stroke-miterlimit="10"
           inkscape:connector-curvature="0"
           style="fill:#ffffff;stroke:#ffffff;stroke-miterlimit:10;stroke-opacity:1" />
        <path
           id="path2913-2-1-9-4"
           d="m 57.3,35 c -0.8,-2.1 1.6,-4.1 0,-6.1"
           stroke-miterlimit="10"
           inkscape:connector-curvature="0"
           style="fill:#ffffff;stroke:#ffffff;stroke-miterlimit:10;stroke-opacity:1" />
        <path
           id="path2915-6-8-0-7"
           d="m 57.5,29.1 c -2.7,-1 -0.8,4.3 -1.3,5.2"
           stroke-miterlimit="10"
           inkscape:connector-curvature="0"
           style="fill:#ffffff;stroke:#ffffff;stroke-miterlimit:10;stroke-opacity:1" />
        <path
           inkscape:connector-curvature="0"
           id="path2917-4-3-9-0"
           transform="matrix(0.2710363,0,0,0.2710363,1103.4127,-789.31194)"
           d="m -3880.707,2999.6426 c -41.6919,2.5827 -152.0098,1.8437 -152.0098,1.8437 -4.4274,0 -25.4578,9.9626 0,13.2832 25.4578,2.9517 152.0098,-2.582 152.0098,-2.582 23.2441,-9.5928 0,-12.5449 0,-12.5449 z m -31.7305,1.8437 1.4746,3.3223 3.3223,0.3672 -2.2149,2.584 0.3692,3.3203 -2.9512,-1.4766 -3.3203,1.4766 0.7363,-3.3203 -2.582,-2.584 3.6894,-0.3672 z m -85.5977,1.4766 1.4766,2.9512 3.6895,0.7382 -2.584,2.2129 0.7383,3.6914 -3.3204,-1.8457 -2.9511,1.8457 0.3691,-3.6914 -2.2148,-2.2129 3.3203,-0.7382 z m 20.6622,0 1.8437,2.9512 3.3203,0.7382 -2.582,2.2129 0.7383,3.6914 -3.3203,-1.8457 -2.9532,1.8457 0.7383,-3.6914 -2.582,-2.2129 3.3203,-0.7382 z m 22.1367,0 1.4746,2.9512 3.6914,0.7382 -2.584,2.2129 0.3691,3.6914 -2.9511,-1.8457 -2.9512,1.8457 0.3691,-3.6914 -2.5839,-2.2129 3.6894,-0.7382 z m 22.1367,0 1.4766,2.9512 3.3203,0.7382 -2.5821,2.2129 0.7364,3.6914 -2.9512,-1.8457 -3.3203,1.8457 0.7383,-3.6914 -2.584,-2.2129 3.3222,-0.7382 z"
           style="fill:#ffffff;stroke-width:3.68954277" />
        <path
           inkscape:connector-curvature="0"
           id="path2919-1-9-3-1"
           transform="matrix(0.2710363,0,0,0.2710363,1103.4127,-789.31194)"
           d="m -3958.9258,2919.5801 c -49.9646,-0.3674 -90.7791,46.4573 -91.125,104.4101 96.6634,-56.0738 192.2188,-2.2109 192.2188,-2.2109 0,-56.45 -45.0127,-102.1992 -101.0938,-102.1992 z m -91.125,104.4101 c 0,0 -0.01,0 -0.01,0 v 0.7364 c 0,-0.2477 0.01,-0.493 0.01,-0.7403 z m 95.1836,-73.4179 h 0.3692 0.3691 0.3672 0.3691 1.8457 0.3692 1.1074 0.3672 0.7383 0.3691 0.3691 0.3692 0.7383 0.3691 0.3691 0.3672 0.3692 l 0.7383,0.3672 h 0.3691 0.3691 l 0.3692,0.3691 0.7383,0.3691 0.3691,0.3692 0.3691,0.3691 0.3672,0.3692 0.3692,0.3691 v 0.3691 0.3692 l 0.3691,0.3691 v 0.3692 0.3671 0.3692 0.3691 0.3692 0.3691 0.3692 0.3691 0.3691 0.3692 1.1054 h 0.3691 v 0.7383 0.3692 0.3691 0.3691 0.3692 0.3691 0.3692 0.3672 l -1.1074,0.3691 v 0.3691 l -0.3672,0.3692 -0.3691,0.3691 h -0.3691 l -0.3692,0.3692 -0.3691,0.3691 -0.3692,0.3691 h -0.3691 l -0.3691,0.3692 h -0.3692 -0.3691 -0.3692 -0.3672 -0.3691 -1.1074 -0.3692 -0.3691 -0.3691 -0.7383 -0.3672 -0.3692 -0.7382 -0.3692 -0.3691 -0.3692 -1.4765 -0.3672 -0.7383 v -0.3692 -0.3691 -0.7383 -0.3691 -0.3692 -0.3691 -0.3691 -0.3672 -1.1075 -0.3691 -1.1074 -0.3692 -0.3691 -0.3672 -0.3691 -0.3692 -0.3691 -0.3691 -0.3692 -1.1074 -0.3692 -1.1054 -0.3692 -1.1074 -0.7383 -0.3691 -0.3691 z m -15.4961,0.3672 h 0.3692 0.3691 1.1055 1.4765 1.1075 0.3691 0.3672 v 0.3691 l 0.3691,0.7383 v 0.3691 l 0.7383,0.7383 v 0.3691 l 0.7383,1.1075 v 0.3671 l 0.3691,1.1075 v 0.3691 l 0.7383,1.1074 v 0.3692 l 0.7363,1.1054 v 0.3692 l 0.3692,1.1074 v 0.3691 l 0.7383,1.1075 0.7382,0.7363 v 0.3691 l 0.7383,1.1075 1.8438,0.7382 v 0.3692 h -0.3692 -0.3672 -0.3691 -0.3691 -0.3692 -0.7383 l -1.1074,0.3691 h -0.3691 v -0.3691 l -1.1055,-1.4766 v -0.3691 h -0.3691 -0.3692 -1.1074 -0.3691 -1.4746 -1.1075 -0.3691 l -0.3691,0.3691 h -1.1075 -0.3691 v 0.3692 l -0.3672,1.4765 v 0.3692 l -0.3691,0.3671 h -0.3692 -0.3691 -1.1074 -0.3692 l -1.1055,0.3692 h -0.3691 -0.3691 l -0.3692,-0.3692 v -0.3671 -0.3692 l 0.3692,-0.7383 v -0.3691 l 0.3691,-1.1074 v -0.3692 l 0.3691,-1.1054 v -0.3692 l 0.3672,-1.1074 v -0.3691 l 0.3692,-1.1075 v -0.3691 l 0.7383,-1.8437 0.3691,-1.4766 v -0.3692 l 0.3691,-1.1054 v -0.3692 l 0.3692,-1.1074 v -0.3691 l 0.3691,-0.7383 z m 33.5742,0.7382 h 0.3692 0.7383 l 0.7382,0.3692 h 0.3672 0.7383 0.3691 0.3692 0.3691 v 0.3691 0.3692 0.3691 0.3691 l -0.3691,0.7383 v 0.3692 l -0.3692,1.1054 v 0.3692 l -0.3691,1.1074 v 0.3691 l -0.3691,1.1055 v 0.3691 l -0.3692,1.1075 v 0.3691 0.3691 0.3692 0.3691 0.3692 0.3672 0.3691 l 0.3692,0.3691 0.3691,0.3692 0.3691,0.3691 h 0.3692 0.3691 0.3692 0.3691 0.3692 0.3691 0.3691 l 0.3672,-0.3691 0.3692,-0.3692 0.3691,-0.3691 0.3691,-0.3691 v -0.3672 -0.3692 l 0.3692,-0.7383 v -0.3691 l 0.3691,-1.1074 v -0.3692 l 0.3692,-1.1054 v -0.3692 l 0.3691,-1.1074 v -0.3691 l 0.3691,-1.1075 v -0.3671 -0.7383 -0.3692 -0.3691 h 0.3692 0.3672 0.3691 l 1.1074,0.3691 h 0.3692 0.7383 0.3691 0.3691 0.3692 v 0.3692 0.7383 0.3671 0.3692 0.3691 l -0.3692,2.584 v 0.3672 l -0.3691,1.1074 v 0.3692 l -0.3691,1.1074 -0.3692,1.1055 v 0.7382 0.3692 0.3691 0.3692 l -0.3691,0.3691 v 0.3691 0.3692 0.3691 l -0.3692,0.3692 v 0.3671 l -0.3691,0.3692 -0.3691,0.3691 -0.3692,0.3692 h -0.7363 -0.3692 l -0.3691,0.3691 h -0.3691 -0.3692 -0.3691 -0.3692 -0.3691 -0.3691 -0.3692 -0.3672 -0.3691 -0.7383 l -1.1074,-0.3691 h -0.3692 -0.3691 -1.1055 -0.3691 -0.3691 l -0.3692,-0.3692 -0.3691,-0.3691 -0.3692,-0.3692 -0.3691,-0.3671 -0.3691,-0.7383 v -0.3692 l -0.3692,-0.3691 v -0.3691 l -0.3691,-0.3692 v -0.3691 -0.3692 -0.3691 -0.3691 -0.3672 -0.3692 -0.3691 -0.3692 -0.3691 -0.7383 -0.3691 l 0.3691,-1.1055 v -0.3691 l 0.3692,-1.1074 v -0.3692 l 0.3691,-1.1074 0.3691,-1.8438 v -0.7382 -0.3692 -0.3691 z m -42.7988,1.4766 h 0.3691 0.3692 0.3691 0.3692 0.3691 0.3692 0.3671 0.3692 l 0.3691,0.3691 h 0.3692 l 0.3691,0.3692 0.3691,0.3691 0.3692,0.3692 v 0.3671 0.3692 0.3691 0.3692 0.3691 l -0.3692,1.4766 v 0.7363 0.3691 0.3692 0.3691 0.3692 0.3691 0.3691 0.3692 l -0.3691,0.3691 v 0.3692 l -0.3691,0.3672 -0.3692,0.3691 -0.3691,0.3691 -0.3692,0.3692 -0.3671,0.3691 h -0.3692 l -0.3691,0.3692 h -0.3692 -0.3691 -0.3692 -0.3691 l -1.8437,0.3691 h -0.3692 -0.3691 -0.3692 -0.3691 v 0.3691 l 0.3691,1.4746 v 0.3692 0.7383 0.3691 0.3691 0.3692 h -0.3691 l 0.3691,1.1074 h -0.7382 -0.3692 l -0.7383,0.3672 h -0.3691 -0.3672 -0.3691 v -0.3672 -0.3691 -0.3692 l -0.3692,-2.2148 v -1.1055 -0.3691 l -0.3691,-1.1074 v -0.3692 l -0.7383,-2.582 v -0.3692 l -0.3691,-1.1074 v -0.3691 l -0.3692,-1.1055 v -0.3691 -1.1074 -0.3692 l -0.3691,-0.7383 v -0.3691 -0.3692 h 0.3691 0.7383 0.3691 0.3692 l 1.4746,-0.3671 1.4766,-0.3692 1.4765,-0.3691 1.4746,-0.3692 z m 29.1484,1.1074 v 0.3692 0.3671 0.7383 0.3692 0.3691 0.3692 0.3691 0.3691 0.3692 1.1054 0.3692 0.3691 0.3692 0.3691 0.3691 0.3692 0.3691 0.3692 h 0.3692 1.8437 0.3692 0.3691 0.3692 0.3691 0.3691 0.3672 l 0.3692,-0.3692 0.3691,-0.3691 -0.3691,-0.7383 0.3691,-0.7383 v -0.3691 -0.3692 -0.3691 -0.3672 -0.7383 -0.3691 -0.3691 -0.3692 -0.3691 l -0.3691,-0.3692 v -0.3691 l -0.3692,-0.3692 -0.3672,-0.3671 -0.3691,-0.3692 h -0.3691 -0.3692 -0.3691 -0.3692 -0.3691 -0.3691 -0.3692 -0.3691 -0.3672 z m 30.254,0.7363 h 0.3691 0.3691 l 0.7364,0.3692 2.2148,1.1074 1.4746,0.3692 h 0.3692 l 1.1074,0.7382 0.7383,0.3692 h 0.3691 0.3691 l 0.3692,0.3691 0.3672,0.3672 0.3691,0.3691 0.3691,0.3692 0.3692,0.3691 0.3691,0.3692 0.3692,0.3691 v 0.3691 0.3692 0.3691 0.3692 0.3672 0.3691 0.3691 0.3692 0.3691 0.3692 0.3691 0.3691 0.3692 0.3691 0.3692 l 0.7383,0.7363 -0.3692,0.3691 v 0.3692 h -0.3691 l -0.3692,0.3691 h -0.3691 -0.3692 l -0.3691,0.3691 h -0.3691 -0.3672 -0.3692 -0.3691 -0.3691 l 0.3691,1.1075 v 0.3691 l 0.3691,1.1055 v 0.3691 l 0.3692,1.1074 v 0.3692 l 0.3672,1.1074 v 0.3672 l 0.3691,0.7383 -1.4746,-0.7383 -1.1074,-0.3672 h -0.3692 l -0.7382,-0.3691 h -0.3692 v -0.3692 l -0.3672,-1.1074 v -0.3691 l -0.7383,-1.1075 v -0.3691 -1.1055 -0.3691 l -0.3691,-1.1074 v -0.3692 h -0.3691 l -0.7383,-0.3691 h -0.3692 -0.3691 v 0.3691 l -0.3691,1.1074 v 0.3692 l -0.3692,1.1074 v 0.3672 0.3691 0.3692 0.3691 0.3692 h -0.3672 -0.3691 l -0.7383,-0.3692 -0.7383,-0.3691 h -0.3691 l -1.8438,-0.7383 h -0.3691 v -0.3672 -0.3691 -0.3692 l 0.3691,-0.3691 v -0.3692 l 0.3692,-1.1074 v -0.3691 l 0.3672,-1.1055 v -0.3691 l 0.3691,-1.1074 v -0.3692 l 0.3692,-1.1074 v -0.3691 l 0.3691,-1.1055 v -0.3692 l 0.3691,-1.1074 v -0.3691 l 0.3692,-1.1055 v -0.3691 l 0.3691,-1.1074 v -0.3692 l 0.3692,-0.7383 v -0.3691 z m -46.8575,1.1075 v 0.3691 l -0.3691,1.4766 v 0.3691 l -0.3691,1.4746 v 0.3692 0.3691 h 0.3691 0.3691 1.4766 1.1055 0.3691 l -0.3691,-0.7383 -0.7383,-1.4746 v -0.3691 l -0.7363,-1.4766 v -0.3691 h -0.3692 -0.3691 z m -16.9726,1.8457 v 0.3691 0.3672 l 0.3691,0.7383 v 0.3691 l 0.3692,1.1074 v 0.3692 h 0.3691 1.1074 1.1055 l 0.7383,-0.3692 0.3691,-0.3691 v -0.3691 -0.3692 -0.3691 -0.3692 -0.3691 -0.3672 l -0.3691,-0.3691 h -0.3692 -0.3691 -0.7363 -0.3692 -0.3691 -0.3692 -0.7382 -0.3692 z m -16.2344,1.4746 h 0.3691 0.3692 l 0.3691,0.3691 0.7383,0.7383 0.3691,0.3691 0.7383,0.7383 0.3692,0.3692 0.7363,0.7363 0.3691,0.3691 0.7383,0.7383 0.3692,0.3692 0.7382,0.7382 0.3692,0.3692 0.7383,0.7383 0.3671,0.3671 0.7383,0.7383 0.3692,0.3692 1.1074,1.1074 0.7383,0.7383 0.3691,0.3691 0.7363,0.7363 h 0.3692 0.1836 l 0.1855,-0.3691 v 0.3691 h -0.1855 l -0.1836,0.3692 -0.3692,-0.3692 h -0.3671 -0.3692 l -0.7383,0.3692 -1.1074,0.7383 h -0.3691 l -1.1075,-1.4766 h -0.3671 -0.3692 -0.3691 l -1.1074,1.1074 h -0.3692 l -1.4746,0.7383 -1.1074,0.3691 h -0.3692 -0.3691 l -0.7383,0.3692 h -0.3691 v 0.3691 1.4746 0.3692 0.3691 l -0.3692,0.3692 h -0.3691 l -0.7363,0.7382 h -0.3692 l -1.1074,0.7383 h -0.3691 -0.3692 -0.123 l 0.123,0.3692 -1.4746,1.1054 -1.1074,0.7383 h -0.3691 l -0.7383,0.3692 h -0.3692 -0.3691 -0.3691 l -0.3672,-0.3692 h -0.3692 l -1.1074,-0.3691 h -0.3691 l -1.1075,-0.3692 h -0.3691 l -0.3672,-0.7383 h -0.3691 -0.3692 l -0.7382,0.3692 h -0.3692 v 0.3691 0.3692 l 0.7383,1.1074 0.3691,0.3691 0.7383,1.1075 0.3672,0.3671 0.3691,0.3692 v 0.3691 0.3692 0.3691 h -0.3691 l -0.7363,0.3691 -0.7383,0.7383 h -0.3691 l -0.7383,0.3692 h -0.3692 v -0.3692 -0.3691 l -1.1074,-0.7383 v -0.3691 l -0.3672,-0.7383 v -0.3692 l -0.7383,-0.7363 -0.3691,-0.3691 -0.7383,-0.7383 v -0.3691 l -0.7383,-1.1075 v -0.3691 l -0.7382,-0.7363 v -0.3692 l -0.3672,-1.1074 v -0.3691 l -1.1075,-0.7383 v -0.3692 l -0.7382,-1.1054 v -0.3692 l -0.3692,-0.7383 v -0.3691 -0.3691 -0.3692 l 0.3692,-0.3691 0.7382,-0.3692 2.2129,-1.1054 1.1075,-0.7383 h 0.3691 l 1.1074,-0.7383 0.7363,-0.3691 h 0.3692 0.3691 0.3692 0.3691 0.3692 0.3691 0.3691 0.3692 0.3691 0.3672 0.3691 0.3692 l 0.3691,0.3691 h 0.3692 l 0.3691,0.3691 h 0.3691 l 0.3692,0.3692 0.3691,0.3691 0.3692,0.3692 0.3672,0.3691 0.3691,0.3672 v 0.3691 0.3692 0.3691 0.3692 0.3691 0.3691 0.3692 0.3691 0.3692 0.3691 0.3672 0.3691 0.3692 l -0.3691,0.3691 h 0.3691 l 1.1074,0.3692 h 0.3692 l 1.1074,0.3691 h 0.3691 l 1.1055,0.3691 v -0.7382 -0.3692 -1.1074 -0.3672 -1.1074 -0.3692 -1.1074 -0.3691 -1.1055 -0.3691 -1.8457 -1.4746 -0.3692 -1.1074 -0.3691 -1.1075 -0.3691 -1.1055 -0.3691 -0.3692 h 0.3691 l 0.7383,-0.3691 1.4766,-0.7383 z m 84.123,1.4765 v 0.3692 0.3691 0.3692 0.3672 0.3691 l -0.3691,1.1074 v 0.3692 h 0.3691 l 1.1055,0.3691 h 0.3692 l 0.7382,0.7383 h 0.3692 0.3691 0.3692 0.3691 l 0.3691,-0.3692 0.3692,-0.3691 v -0.3691 -0.3692 -0.3691 -0.3692 -0.3691 -0.3691 -0.3672 h -0.7383 l -0.3691,-0.3692 h -0.3692 l -1.1074,-0.3691 h -0.3691 l -1.1055,-0.3692 z m -83.3847,3.3204 v 0.3691 1.4766 0.3671 1.4766 0.3691 0.3692 h 0.3691 0.3692 l 1.1074,-0.3692 0.7383,-0.3691 h 0.3691 l 0.3672,-0.3691 -1.1055,-1.4746 -0.3691,-0.3692 -0.7383,-1.1074 -0.3691,-0.3691 h -0.3692 z m 101.0937,0.7382 h 0.3692 0.3691 0.3692 l 0.7382,0.3692 1.4746,0.7383 0.7383,0.3671 0.3692,0.3692 v 0.3691 0.3692 0.7382 0.3692 1.1074 0.3672 1.1074 0.3692 l -0.3692,1.1074 v 0.3691 1.1055 0.3691 1.1075 0.3691 1.1074 0.3692 1.4746 1.1074 0.3691 1.4746 l -1.4765,1.1075 -0.3672,0.3691 h -0.3692 -0.3691 -0.3691 l -0.3692,-0.3691 h -0.3691 l -0.7383,-0.3692 -1.1055,-0.7383 -0.3691,-0.3671 v -0.3692 -0.3691 l 0.3691,-1.8457 v -0.3692 h -0.3691 l -1.1074,-0.7383 h -0.3692 l -1.4765,-0.7363 -1.1055,-0.7383 h -0.3692 -0.3691 l -0.7383,-0.3691 h -0.3691 -0.3692 -0.3691 l -1.1055,1.1074 -0.3691,0.3692 h -0.3691 -0.3692 -0.3691 l 0.7383,-1.4766 h -0.3692 l -1.1074,-0.7383 h -0.3692 v -0.3691 -0.3692 -0.3691 l 0.3692,-0.3672 0.7383,-0.3691 0.3691,-0.3692 1.1074,-0.7383 0.3692,-0.3691 1.1054,-0.7383 0.3692,-0.3691 1.1074,-0.7383 0.3691,-0.3672 1.1055,-0.7383 0.3692,-0.3691 1.4765,-1.1074 1.1074,-0.7383 0.3692,-0.3692 0.7363,-0.7363 0.3692,-0.3691 z m -0.7382,5.1641 -1.1055,1.1074 -0.3692,0.3692 -0.7382,0.7382 -0.3692,0.3692 v 0.3691 0.3692 h 0.3692 l 1.1074,0.7363 0.7363,0.3691 h 0.3692 0.3691 l 0.3691,-1.8437 v -0.3692 l 0.3692,-1.1074 v -0.3691 -0.3692 l -0.3692,-0.3691 h -0.3691 z m -115.8516,0.7383 -0.7383,0.7383 h -0.3672 l -0.7383,0.7382 h -0.3691 v 0.3692 l 0.3691,0.3691 0.3692,0.3692 0.3691,0.3691 0.3672,0.3672 0.7383,1.1074 h 0.3691 l 1.1075,-0.3691 h 0.3691 l 0.3691,-0.7383 0.3692,-0.3672 v -0.3691 -0.3692 -0.3691 -0.3692 -0.3691 l -0.3692,-0.3691 v -0.3692 l -0.3691,-0.3691 h -0.3691 -0.3692 -0.3691 -0.3692 z"
           style="fill:#ffffff;stroke-width:3.68954277" />
      </g>
    </g>
  </g>
</svg>
