<?xml version="1.0" encoding="UTF-8" standalone="no"?>
<!-- Created with Inkscape (http://www.inkscape.org/) -->

<svg
   xmlns:dc="http://purl.org/dc/elements/1.1/"
   xmlns:cc="http://creativecommons.org/ns#"
   xmlns:rdf="http://www.w3.org/1999/02/22-rdf-syntax-ns#"
   xmlns:svg="http://www.w3.org/2000/svg"
   xmlns="http://www.w3.org/2000/svg"
   xmlns:sodipodi="http://sodipodi.sourceforge.net/DTD/sodipodi-0.dtd"
   xmlns:inkscape="http://www.inkscape.org/namespaces/inkscape"
   width="164"
   height="55"
   viewBox="0 0 43.391666 14.552084"
   version="1.1"
   id="svg5070"
   inkscape:version="0.92.3 (2405546, 2018-03-11)"
   sodipodi:docname="vale-livre.svg">
  <defs
     id="defs5064" />
  <sodipodi:namedview
     id="base"
     pagecolor="#ffffff"
     bordercolor="#666666"
     borderopacity="1.0"
     inkscape:pageopacity="0.0"
     inkscape:pageshadow="2"
     inkscape:zoom="1.979899"
     inkscape:cx="-21.078372"
     inkscape:cy="47.59573"
     inkscape:document-units="mm"
     inkscape:current-layer="layer1"
     showgrid="false"
     units="px"
     inkscape:window-width="1366"
     inkscape:window-height="705"
     inkscape:window-x="-8"
     inkscape:window-y="-8"
     inkscape:window-maximized="1">
    <sodipodi:guide
       position="0,0"
       orientation="0,793.70079"
       id="guide5641"
       inkscape:locked="false" />
    <sodipodi:guide
       position="210,0"
       orientation="-1122.5197,0"
       id="guide5643"
       inkscape:locked="false" />
    <sodipodi:guide
       position="210,297"
       orientation="0,-793.70079"
       id="guide5645"
       inkscape:locked="false" />
    <sodipodi:guide
       position="0,297"
       orientation="1122.5197,0"
       id="guide5647"
       inkscape:locked="false" />
  </sodipodi:namedview>
  <metadata
     id="metadata5067">
    <rdf:RDF>
      <cc:Work
         rdf:about="">
        <dc:format>image/svg+xml</dc:format>
        <dc:type
           rdf:resource="http://purl.org/dc/dcmitype/StillImage" />
        <dc:title></dc:title>
      </cc:Work>
    </rdf:RDF>
  </metadata>
  <g
     inkscape:label="Camada 1"
     inkscape:groupmode="layer"
     id="layer1"
     transform="translate(0,-282.4479)">
    <circle
       style="opacity:1;fill:#fce94f;fill-opacity:1;fill-rule:evenodd;stroke:none;stroke-width:2.00000024;stroke-linecap:butt;stroke-linejoin:round;stroke-miterlimit:4;stroke-dasharray:none;stroke-opacity:1"
       id="path843"
       cx="-27.002855"
       cy="275.88724"
       r="19.64431" />
    <g
       id="g5043"
       transform="matrix(0.04940446,0,0,0.04940446,182.0424,389.44768)"
       style="fill:#673c14;fill-opacity:1">
      <g
         transform="matrix(0.68760064,0,0,0.68760064,-1680.8203,-878.44161)"
         id="g5039"
         style="fill:#673c14;fill-opacity:1">
        <g
           aria-label="COMUNIDADE"
           transform="matrix(1.889336,0,0,1.889336,12986.993,14061.111)"
           style="font-style:normal;font-weight:normal;font-size:40px;line-height:1.25;font-family:sans-serif;letter-spacing:37.38000107px;word-spacing:0px;fill:#673c14;fill-opacity:1;stroke:none"
           id="flowRoot5029">
          <path
             d="m -8953.2559,-8408.0858 c -3.12,-1.84 -6.24,-3 -10.16,-3 -9.44,0 -14.28,6.8 -14.28,15.2 0,8.4 4.84,15.2 14.28,15.2 3.92,0 7.04,-1.16 10.16,-3 l -1.56,-2.96 c -2.64,1.68 -5.28,2.68 -8.6,2.68 -7,0 -10.68,-5.36 -10.68,-11.92 0,-6.6 3.68,-11.92 10.68,-11.92 3.32,0 5.96,1 8.6,2.68 z"
             style="font-style:normal;font-variant:normal;font-weight:normal;font-stretch:normal;font-family:SkolaSans;-inkscape-font-specification:SkolaSans;letter-spacing:0px;fill:#673c14;fill-opacity:1"
             id="path5668"
             inkscape:connector-curvature="0" />
          <path
             d="m -8934.9746,-8411.0858 c -9.28,0 -14.44,6.68 -14.44,15.2 0,8.52 5.16,15.2 14.44,15.2 9.32,0 14.4,-6.68 14.4,-15.2 0,-8.52 -5.08,-15.2 -14.4,-15.2 z m 0,3.24 c 7,0 10.8,5.44 10.8,11.96 0,6.52 -3.8,11.96 -10.8,11.96 -7,0 -10.8,-5.44 -10.8,-11.96 0,-6.52 3.8,-11.96 10.8,-11.96 z"
             style="font-style:normal;font-variant:normal;font-weight:normal;font-stretch:normal;font-family:SkolaSans;-inkscape-font-specification:SkolaSans;letter-spacing:0px;fill:#673c14;fill-opacity:1"
             id="path5670"
             inkscape:connector-curvature="0" />
          <path
             d="m -8899.6702,-8389.6458 9.68,-13 0.16,0.04 v 21.68 h 3.6 v -29.92 h -1.8 l -12.2,16.68 -12.16,-16.68 h -1.8 v 29.92 h 3.6 v -21.68 l 0.16,-0.04 9.64,13 z"
             style="font-style:normal;font-variant:normal;font-weight:normal;font-stretch:normal;font-family:SkolaSans;-inkscape-font-specification:SkolaSans;letter-spacing:0px;fill:#673c14;fill-opacity:1"
             id="path5672"
             inkscape:connector-curvature="0" />
          <path
             d="m -8858.3634,-8410.8458 v 17.04 c 0,5.76 -2.96,10.04 -8.56,10.04 -5.6,0 -8.56,-4.28 -8.56,-10.04 v -17.04 h -3.6 v 17.04 c 0,7.6 4.16,13.16 12.16,13.16 8,0 12.16,-5.56 12.16,-13.16 v -17.04 z"
             style="font-style:normal;font-variant:normal;font-weight:normal;font-stretch:normal;font-family:SkolaSans;-inkscape-font-specification:SkolaSans;letter-spacing:0px;fill:#673c14;fill-opacity:1"
             id="path5674"
             inkscape:connector-curvature="0" />
          <path
             d="m -8825.3477,-8380.9258 h 1.6 v -29.92 h -3.6 v 22.56 l -0.16,0.04 -18.68,-22.6 h -1.44 v 29.92 h 3.6 v -22.28 l 0.16,-0.04 z"
             style="font-style:normal;font-variant:normal;font-weight:normal;font-stretch:normal;font-family:SkolaSans;-inkscape-font-specification:SkolaSans;letter-spacing:0px;fill:#673c14;fill-opacity:1"
             id="path5676"
             inkscape:connector-curvature="0" />
          <path
             d="m -8812.5434,-8380.9258 v -29.92 h -3.6 v 29.92 z"
             style="font-style:normal;font-variant:normal;font-weight:normal;font-stretch:normal;font-family:SkolaSans;-inkscape-font-specification:SkolaSans;letter-spacing:0px;fill:#673c14;fill-opacity:1"
             id="path5678"
             inkscape:connector-curvature="0" />
          <path
             d="m -8795.3715,-8380.9258 c 9.32,0 14.24,-6.6 14.24,-14.96 0,-8.36 -4.92,-14.96 -14.24,-14.96 h -10.04 v 29.92 z m -6.44,-3.12 v -23.68 h 6.2 c 7.08,0 10.88,5.04 10.88,11.84 0,6.8 -3.8,11.84 -10.88,11.84 z"
             style="font-style:normal;font-variant:normal;font-weight:normal;font-stretch:normal;font-family:SkolaSans;-inkscape-font-specification:SkolaSans;letter-spacing:0px;fill:#673c14;fill-opacity:1"
             id="path5680"
             inkscape:connector-curvature="0" />
          <path
             d="m -8772.1202,-8387.6058 h 14.52 l 3,6.92 3.64,-0.24 -13.04,-29.92 h -1.76 l -13.04,29.92 3.72,0.24 z m 1.12,-2.96 6.04,-14.32 h 0.16 l 6.08,14.32 z"
             style="font-style:normal;font-variant:normal;font-weight:normal;font-stretch:normal;font-family:SkolaSans;-inkscape-font-specification:SkolaSans;letter-spacing:0px;fill:#673c14;fill-opacity:1"
             id="path5682"
             inkscape:connector-curvature="0" />
          <path
             d="m -8737.0902,-8380.9258 c 9.32,0 14.24,-6.6 14.24,-14.96 0,-8.36 -4.92,-14.96 -14.24,-14.96 h -10.04 v 29.92 z m -6.44,-3.12 v -23.68 h 6.2 c 7.08,0 10.88,5.04 10.88,11.84 0,6.8 -3.8,11.84 -10.88,11.84 z"
             style="font-style:normal;font-variant:normal;font-weight:normal;font-stretch:normal;font-family:SkolaSans;-inkscape-font-specification:SkolaSans;letter-spacing:0px;fill:#673c14;fill-opacity:1"
             id="path5684"
             inkscape:connector-curvature="0" />
          <path
             d="m -8696.4959,-8407.7258 v -3.12 h -19.96 v 29.92 h 19.96 v -3.12 h -16.36 v -10.92 h 14.68 v -2.96 h -14.68 v -9.8 z"
             style="font-style:normal;font-variant:normal;font-weight:normal;font-stretch:normal;font-family:SkolaSans;-inkscape-font-specification:SkolaSans;letter-spacing:0px;fill:#673c14;fill-opacity:1"
             id="path5686"
             inkscape:connector-curvature="0" />
        </g>
        <g
           aria-label="VALE LIVRE"
           transform="matrix(2.3073354,0,0,2.3073354,16745.756,17662.65)"
           style="font-style:normal;font-weight:normal;font-size:40px;line-height:1.25;font-family:sans-serif;letter-spacing:37.38000107px;word-spacing:0px;fill:#673c14;fill-opacity:1;stroke:none"
           id="flowRoot5037">
          <path
             d="m -8966.7359,-8389.3258 -7.64,-21.76 -5.96,0.36 11.68,29.8 h 4.04 l 11.68,-29.8 -5.96,-0.36 -7.68,21.76 z"
             style="font-style:normal;font-variant:normal;font-weight:bold;font-stretch:normal;font-family:SkolaSans;-inkscape-font-specification:SkolaSans;letter-spacing:0px;fill:#673c14;fill-opacity:1"
             id="path5689"
             inkscape:connector-curvature="0" />
          <path
             d="m -8947.0902,-8386.4858 h 12.84 l 2.48,5.8 5.92,-0.24 -13.08,-29.92 h -3.52 l -13.08,29.92 6,0.24 z m 1.64,-4.56 4.68,-11.56 h 0.16 l 4.68,11.56 z"
             style="font-style:normal;font-variant:normal;font-weight:bold;font-stretch:normal;font-family:SkolaSans;-inkscape-font-specification:SkolaSans;letter-spacing:0px;fill:#673c14;fill-opacity:1"
             id="path5691"
             inkscape:connector-curvature="0" />
          <path
             d="m -8917.0409,-8385.6458 v -25.2 h -5.84 v 29.92 h 19.56 v -4.72 z"
             style="font-style:normal;font-variant:normal;font-weight:bold;font-stretch:normal;font-family:SkolaSans;-inkscape-font-specification:SkolaSans;letter-spacing:0px;fill:#673c14;fill-opacity:1"
             id="path5693"
             inkscape:connector-curvature="0" />
          <path
             d="m -8878.1252,-8406.1258 v -4.72 h -21.24 v 29.92 h 21.24 v -4.72 h -15.4 v -8.52 h 13.72 v -4.56 h -13.72 v -7.4 z"
             style="font-style:normal;font-variant:normal;font-weight:bold;font-stretch:normal;font-family:SkolaSans;-inkscape-font-specification:SkolaSans;letter-spacing:0px;fill:#673c14;fill-opacity:1"
             id="path5695"
             inkscape:connector-curvature="0" />
          <path
             d="m -8856.4159,-8385.6458 v -25.2 h -5.84 v 29.92 h 19.56 v -4.72 z"
             style="font-style:normal;font-variant:normal;font-weight:bold;font-stretch:normal;font-family:SkolaSans;-inkscape-font-specification:SkolaSans;letter-spacing:0px;fill:#673c14;fill-opacity:1"
             id="path5697"
             inkscape:connector-curvature="0" />
          <path
             d="m -8832.9002,-8380.9258 v -29.92 h -5.84 v 29.92 z"
             style="font-style:normal;font-variant:normal;font-weight:bold;font-stretch:normal;font-family:SkolaSans;-inkscape-font-specification:SkolaSans;letter-spacing:0px;fill:#673c14;fill-opacity:1"
             id="path5699"
             inkscape:connector-curvature="0" />
          <path
             d="m -8816.3452,-8389.3258 -7.64,-21.76 -5.96,0.36 11.68,29.8 h 4.04 l 11.68,-29.8 -5.96,-0.36 -7.68,21.76 z"
             style="font-style:normal;font-variant:normal;font-weight:bold;font-stretch:normal;font-family:SkolaSans;-inkscape-font-specification:SkolaSans;letter-spacing:0px;fill:#673c14;fill-opacity:1"
             id="path5701"
             inkscape:connector-curvature="0" />
          <path
             d="m -8799.8777,-8410.8458 v 29.92 h 5.84 v -11.64 h 4.84 l 7.56,11.88 6.52,-0.24 -8.28,-12.16 c 3.64,-1.36 6.48,-4.2 6.48,-8.44 0,-5.96 -4.32,-9.32 -9.56,-9.32 z m 12.56,4.72 c 2.48,0 4.56,1.68 4.56,4.6 0,2.08 -1.96,4.4 -4.48,4.4 h -6.8 v -9 z"
             style="font-style:normal;font-variant:normal;font-weight:bold;font-stretch:normal;font-family:SkolaSans;-inkscape-font-specification:SkolaSans;letter-spacing:0px;fill:#673c14;fill-opacity:1"
             id="path5703"
             inkscape:connector-curvature="0" />
          <path
             d="m -8750.0784,-8406.1258 v -4.72 h -21.24 v 29.92 h 21.24 v -4.72 h -15.4 v -8.52 h 13.72 v -4.56 h -13.72 v -7.4 z"
             style="font-style:normal;font-variant:normal;font-weight:bold;font-stretch:normal;font-family:SkolaSans;-inkscape-font-specification:SkolaSans;letter-spacing:0px;fill:#673c14;fill-opacity:1"
             id="path5705"
             inkscape:connector-curvature="0" />
        </g>
      </g>
      <path
         sodipodi:nodetypes="ccccccccccsccccccccscccsscscsscsccccccccccccccccccccccccccsscccccccccccccssssccccssccccccccccsccccccccccccccccccccccccccccccccccccsccssccccsscssccscscscccccccsccccccccccccccccccccscsccccssccccccscccsscccccccccccscccccccccsccscsccccccccccccccccccccccccscccsccccsccccssscccsccccccscccccccscccccsccsccsccsccsccccccscsssscccccsccccccccccccccccccscccccccccccscccccccccsccccccccccsssccccccsccsssccsscscccscccccccccccccccccccccccccccccccccscccccccccscccccccccccccccccccccccccccccccccccccccccccccccccccccccccccccccccccccccccccccccscccsccccccscscccccccccccccccccccccccccscccsscscccssccccccscccccscccccccccccccccccccccsccccccsccccccccccccccccsccccsccccccccccccccccccccccccccccccccccccccccsscccccccccccccccccccccccccccccccccc"
         inkscape:connector-curvature="0"
         id="path5041"
         d="m -4166.557,-2567.4114 c -6.8099,0.2262 -13.5894,2.3374 -17.9475,5.1313 -0.2391,0.161 -0.4978,0.3683 -0.752,0.5685 -4.3286,-0.064 -7.0999,0.5108 -9.8944,1.1618 -9.9972,-0.2061 -19.8151,0.1997 -30.0264,0.064 -14.793,1.4331 -28.4937,3.6208 -41.4994,6.6057 -31.5318,6.1073 -59.5108,14.6999 -90.0539,35.4143 -36.7746,14.0211 -50.1514,39.5479 -57.829,58.1352 v 0.064 0.064 c -2.8299,8.04 -6.8868,11.8837 -11.4162,15.6492 -4.4362,3.6873 -9.3921,7.2824 -13.2371,14.1348 -11.3269,7.2896 -24.3218,15.6074 -35.6698,22.8641 -21.8664,16.0864 -13.5573,42.9042 -2.1276,59.169 -0.887,12.744 6.8203,22.9152 17.2851,31.1383 1.2978,9.5286 5.1452,18.0496 16.5718,30.1543 10.4087,16.5538 22.8848,32.8561 34.8504,34.8938 39.0898,8.179 68.2667,-32.6419 108.247,-34.056 24.6384,0.2972 48.5034,1.6011 73.158,2.9105 28.7329,3.7294 46.8195,14.0098 59.2364,29.5526 12.4186,15.5442 14.5551,35.6282 19.8932,60.8128 -0.064,6.6025 21.4877,12.5584 21.5136,-1.4763 -6.2584,-54.8893 -36.0766,-80.2858 -71.0661,-89.5088 21.2172,1.0886 42.6034,2.7569 63.7366,13.012 34.5571,16.7698 44.8614,38.4777 49.1101,67.617 4.2495,29.1402 -13.8057,27.342 -21.1363,23.8765 3.9368,17.709 25.1473,19.44 35.8526,15.2609 10.7045,-4.1788 17.7199,-26.3227 13.8924,-40.1489 11.196,8.6689 21.5657,17.5538 28.1307,3.6879 6.5649,-13.8664 -20.5668,-47.453 -41.2002,-60.4271 -20.6341,-12.9735 -45.6741,-28.5507 -66.2525,-33.614 -12.634,-2.9076 -25.321,-3.8744 -38.0287,-3.7127 -18.2808,0.2324 -36.5959,2.7949 -54.8542,5.2731 -14.9988,-1.7128 -35.1433,-2.0762 -38.5281,-2.5371 -18.4329,-2.5236 -50.6894,3.3419 -66.2666,7.3116 -25.959,10.3064 -48.6635,25.5273 -75.7089,21.14 -11.01,-1.8745 -19.2155,-8.3801 -29.2776,-24.4425 -7.1861,-6.0181 -14.4722,-21.1117 -15.5887,-29.1072 -9.5197,-8.4324 -17.8183,-19.4102 -17.1743,-29.1 v -0.116 c 2.6392,3.3664 5.2506,6.5481 6.7703,8.7654 -1.5261,-8.3906 -0.9785,-12.9624 3.1319,-15.4002 1.9412,-1.1286 4.0311,-2.3148 4.682,-4.664 1.4932,-4.0431 4.0949,-7.6321 7.5215,-10.2544 2.3809,-2.0183 5.627,-3.2652 6.9484,-6.3031 1.0632,-2.0084 0.3555,-4.9898 -1.9996,-5.6651 -0.2391,-0.084 -0.4845,-0.1482 -0.7335,-0.1933 -3.1466,-0.6592 -5.3005,-0.952 -7.7285,0.6633 -2.5457,1.8541 -4.6561,2.2508 -7.9849,1.3251 -4.6228,-1.7664 -6.637,-8.1177 -10.1261,-11.3586 -1.4642,-1.3401 -4.4255,-2.1752 -7.1513,-2.3626 0.2974,-0.472 0.6075,-0.9367 0.9439,-1.3897 12.846,-11.9724 26.0825,-16.0782 42.2619,-24.3148 4.3258,-5.2179 7.3292,-11.5262 10.6971,-15.6094 6.6637,-3.7343 13.9751,-9.0175 16.0799,-11.9368 11.2856,-20.509 25.3141,-47.7152 49.5557,-57.2768 6.4664,-1.8759 6.9005,-3.9593 10.308,-7.2152 14.1393,-11.1656 25.2787,-17.7357 44.168,-20.267 17.9436,-3.1027 16.7232,-9.5473 29.4529,-6.1713 12.7299,3.3756 23.2302,-7.9029 29.8518,-11.5303 6.6211,-3.6279 9.3756,-3.5523 13.2509,0.575 4.0728,1.1557 6.8997,-0.846 10.4504,-3.0433 3.5508,-2.1965 8.5292,0.8752 11.2133,3.2283 1.5605,1.4202 3.1473,2.5773 4.8026,3.1252 1.4811,0.4914 3.0145,0.4914 4.6291,-0.239 l 5.5758,-4.7317 c -13.7794,16.4239 -35.7656,45.4963 -55.3562,42.8285 46.9905,8.5467 69.1507,-73.376 97.6257,-41.6742 18.632,23.0167 -8.1103,77.9596 -18.8272,113.1532 -8.3208,27.6677 0.7356,41.2783 21.2215,47.3289 4.5176,2.4731 12.6677,2.7563 15.7238,-5.9825 7.2527,-50.5641 11.0765,-91.4288 -8.0665,-140.1471 v 0.064 c 19.1064,10.5513 40.8492,20.0426 56.9779,40.7152 16.1277,20.6729 37.9415,28.6717 59.1579,31.2946 21.2158,2.6238 11.1241,-13.0935 -4.3218,-23.5984 -15.4466,-10.5048 -48.5719,-26.8852 -72.371,-33.3184 -17.284,-4.6722 -28.5427,-14.6302 -35.9936,-23.5163 45.9899,22.2558 98.1039,35.6616 137.2933,63.1345 4.1091,1.8133 9.5041,-14.0307 -2.7027,-22.1917 -51.917,-27.4213 -77.7869,-17.5648 -139.1769,-47.5351 -0.8443,-1.4756 -1.6336,-2.9979 -2.3447,-4.5957 -3.7788,-8.5011 -12.5835,-11.3284 -21.3393,-11.0387 z m -95.8366,15.3606 c 0.614,0 1.2128,0.064 1.7816,0.161 0.1609,0 0.323,0.064 0.4782,0.1095 1.5681,0.4072 2.6805,1.2289 3.0356,2.2522 0.6644,1.9159 -1.4583,3.9719 -4.7387,4.5925 -3.2806,0.6206 -6.4758,-0.4265 -7.1403,-2.3443 -0.6651,-1.9161 1.4538,-3.9722 4.7348,-4.5929 0.6143,-0.116 1.2373,-0.174 1.8493,-0.1804 z m 91.3008,0.8447 c 1.2165,1.613 6.0347,4.7623 9.1893,7.7358 -6.1842,-4.0228 -9.9606,-4.2089 -14.9258,-6.4886 3.2348,4.2376 6.675,7.0735 13.0803,11.5479 -6.4357,-3.265 -12.0264,-4.8288 -16.2338,-6.7523 2.9481,3.8643 8.9701,7.7865 15.7025,13.2371 -7.309,-4.3945 -13.4168,-7.0549 -18.3817,-9.3354 3.9747,5.2107 9.6978,9.9287 17.4735,15.1719 -7.1604,-4.4828 -15.4078,-8.2412 -19.4584,-9.9592 2.9327,3.8447 15.587,13.4444 19.8003,16.6114 -4.6239,-3.2866 -14.2312,-9.4242 -21.1575,-10.7465 1.0904,5.4936 12.1252,11.7968 17.5621,16.2583 -4.8065,-2.3006 -12.5499,-6.2352 -16.9604,-7.0938 3.4546,7.9201 8.9935,9.8992 16.0451,14.8011 -4.4167,-1.9711 -10.5468,-3.8703 -15.115,-5.0239 3.561,4.6683 6.2903,7.6721 12.7059,12.2713 -5.4136,-2.8662 -7.8176,-3.168 -12.7696,-4.3044 2.9086,4.8654 5.5726,7.2399 10.8813,11.5306 -3.3231,-1.9152 -7.9916,-1.7298 -10.8356,-3.0574 2,3.7949 2.9233,6.2494 6.3497,9.6307 -4.7328,-2.8971 -9.2468,-5.3456 -13.1227,-7.1259 3.2267,4.7001 4.0929,5.9474 9.9017,10.4292 -7.8274,-5.0821 -11.3888,-5.6865 -17.6373,-8.5017 3.8294,4.839 9.6593,9.9365 16.3903,14.7731 -8.0937,-4.1424 -16.5566,-7.2352 -22.654,-9.3962 2.742,3.0806 15.1344,12.5242 19.4613,15.535 -7.1008,-3.3037 -22.599,-12.4808 -26.6804,-13.9921 1.4853,1.6684 16.3204,13.5274 18.5065,15.4427 -8.5138,-4.6522 -29.237,-18.537 -33.6359,-20.5557 3.4787,4.5565 23.6438,19.7082 33.4867,26.5131 -5.3334,-2.3122 -21.5758,-12.1221 -24.6501,-13.4796 3.6004,4.5778 13.234,11.768 21.069,17.2028 -4.1615,-2.3037 -11.1466,-5.2586 -16.7039,-7.2224 3.5121,4.9122 9.9858,10.9929 15.5282,14.7621 -4.1177,-2.8066 -11.1525,-7.0111 -16.5865,-8.7407 2.4625,3.3279 13.0247,13.278 17.2237,16.6184 -6.1138,-4.656 -17.162,-12.1515 -20.1808,-13.6534 2.682,4.9723 12.4128,16.4215 19.3619,20.5378 -4.0756,-2.2126 -14.8959,-7.6426 -17.3134,-8.9043 23.2772,25.7711 25.6081,19.5675 39.2511,-14.2346 13.2165,-32.7465 48.5507,-82.9944 9.998,-91.3654 -1.2437,-0.2716 -2.5649,-0.4975 -3.9656,-0.6768 z m -44.0185,4.2866 c -0.958,0 -1.9367,0.1352 -2.8934,0.3554 -4.4816,1.0289 -6.8358,3.983 -5.8182,6.5841 1.0165,2.6013 5.0173,3.8664 9.499,2.8367 4.4815,-1.0298 7.2915,-3.9728 6.2745,-6.5741 -0.543,-1.3892 -2.1164,-2.4654 -4.2973,-2.9398 -0.8706,-0.1868 -1.8066,-0.278 -2.7646,-0.2587 z m -19.6722,0.1094 c -0.9579,0 -1.9397,0.1352 -2.8965,0.3555 -4.4812,1.0298 -7.2885,3.9728 -6.271,6.5732 1.0169,2.6013 5.4739,3.8772 9.9555,2.8474 4.481,-1.0293 7.2914,-3.9727 6.2738,-6.5739 -0.5428,-1.3892 -2.1161,-2.4654 -4.2964,-2.9397 -0.8715,-0.1868 -1.8069,-0.2779 -2.7654,-0.2586 z m -17.2377,8.3444 c -2.362,-0.1481 -5.3955,1.1443 -7.7681,3.3997 -3.3322,3.1679 -4.2481,7.1336 -2.0482,8.8544 2.199,1.7206 6.6825,0.543 10.0153,-2.6225 3.3335,-3.1685 4.2533,-7.1305 2.0523,-8.8514 -0.3621,-0.278 -0.7929,-0.4912 -1.2863,-0.6205 -0.3039,-0.084 -0.6269,-0.1352 -0.965,-0.1545 z m -29.6741,6.1144 c -2.9128,-0.3683 -7.6867,2.8371 -10.6645,7.1622 -0.7983,1.1624 -1.411,2.3322 -1.7957,3.4241 -2.3923,1.2824 -5.2812,4.2353 -7.5927,7.764 -3.607,5.5108 -4.7349,10.7267 -2.523,11.6476 2.2121,0.9213 6.9262,-2.7988 10.5327,-8.3091 1.3787,-2.1102 2.4532,-4.2777 3.068,-6.1891 2.9048,-0.7343 6.4976,-3.5727 8.8614,-7.0013 2.7692,-4.0218 3.0356,-7.6483 0.6143,-8.391 -0.1547,-0.064 -0.3298,-0.084 -0.5043,-0.1095 z m 13.1661,1.0693 c -1.9595,-0.2458 -5.1731,1.9049 -7.1764,4.8136 -2.0026,2.9081 -2.0375,5.4707 -0.077,5.719 1.9592,0.2456 5.1732,-1.909 7.1764,-4.8179 1.8629,-2.7052 2.0408,-5.1471 0.4139,-5.6468 v 0 c -0.105,-0.065 -0.22,-0.065 -0.3364,-0.071 z m 28.2732,1.7776 c -2.0917,-0.077 -4.466,1.2785 -6.0679,3.5456 -2.2513,3.1841 -2.232,7.0678 0.064,8.6761 2.2742,1.6075 5.9405,0.3295 8.1913,-2.8538 2.2508,-3.1845 2.2353,-7.0719 -0.064,-8.6801 -0.375,-0.2651 -0.7931,-0.4525 -1.251,-0.5689 -0.2843,-0.07 -0.5751,-0.1095 -0.8763,-0.1223 z m -62.4968,2.316 c -2.6727,-0.2842 -8.5494,3.6005 -13.9211,9.2002 -6.0963,6.3545 -9.3955,12.6601 -7.3689,14.0814 2.027,1.4217 8.6127,-2.5782 14.7088,-8.9325 6.0958,-6.3552 9.392,-12.6567 7.3647,-14.0782 -0.1224,-0.084 -0.2584,-0.1546 -0.4202,-0.1996 -0.1094,-0.064 -0.2325,-0.064 -0.3618,-0.071 z m 168.8215,0 c 12.6642,17.68 31.8154,38.8575 32.2125,84.9428 0.1352,15.9173 62.6039,45.4826 101.5802,57.8219 38.9761,12.3386 28.9593,-41.9159 4.3788,-55.6062 -17.8484,-10.2093 -58.9673,-11.4347 -75.395,-21.5034 -25.6651,-21.1555 -29.7491,-49.5395 -62.7765,-65.6551 z m -126.4351,5.097 c -1.6723,-0.064 -3.4272,0.8249 -4.5857,2.376 -1.773,2.3751 -1.5919,5.5057 0.4008,6.9949 1.9947,1.4888 5.0465,0.7719 6.8196,-1.6037 1.7725,-2.3749 1.5955,-5.5046 -0.4008,-6.994 -0.446,-0.3362 -0.967,-0.5689 -1.5281,-0.688 -0.2327,-0.064 -0.4718,-0.077 -0.7091,-0.084 z m -62.3256,0.627 c -2.0489,0.064 -5.5835,1.2903 -9.1038,3.2817 -4.9458,2.7984 -8.1868,6.0848 -7.2368,7.3402 0.9503,1.2545 5.7298,0 10.675,-2.7932 4.9462,-2.7989 8.1873,-6.0853 7.2366,-7.3402 -0.1547,-0.206 -0.4202,-0.349 -0.7875,-0.4262 -0.226,-0.064 -0.4911,-0.071 -0.7835,-0.064 z m 45.3049,0.5559 c -1.8999,0.3361 -4.8195,2.9379 -7.1265,6.4633 -2.7745,4.24 -3.6471,8.2523 -1.9451,8.9614 1.7013,0.7086 5.3316,-2.1527 8.1059,-6.3922 2.7745,-4.2399 3.6438,-8.2522 1.9418,-8.9614 -0.07,0 -0.1481,-0.064 -0.2261,-0.07 -0.2262,-0.064 -0.4784,-0.064 -0.7486,0 z m 7.7927,11.3909 c -1.6602,0.064 -3.2302,1.5212 -3.695,3.6026 -0.5301,2.3787 0.5818,4.6521 2.4835,5.0774 1.9022,0.4268 3.8758,-1.1595 4.4072,-3.5384 0.5301,-2.3789 -0.5817,-4.6489 -2.4834,-5.0736 -0.2393,-0.064 -0.4785,-0.077 -0.7123,-0.071 z m -9.2897,12.9877 c -1.3586,0 -2.6308,1.1448 -2.989,2.7508 -0.4072,1.8349 0.53,3.606 2.0911,3.955 1.5631,0.3491 3.1609,-0.8556 3.5709,-2.6903 0.4072,-1.8352 -0.5236,-3.6057 -2.0887,-3.9546 -0.1932,-0.064 -0.3879,-0.064 -0.5817,-0.064 z m -59.4005,9.7021 c -1.8577,0.1224 -4.2488,1.559 -5.6936,3.51 -1.6507,2.2295 -1.4363,4.2881 0.4784,4.5965 1.9141,0.3105 4.8022,-1.252 6.4525,-3.4815 1.5689,-2.1183 1.4648,-4.1009 -0.2391,-4.5429 -0.077,0 -0.1546,-0.064 -0.2392,-0.064 -0.2391,-0.064 -0.4914,-0.064 -0.759,0 z m 13.7718,0.53 c -1.5281,0.1095 -3.0063,1.6954 -3.4848,3.8798 -0.2715,1.2349 -0.1739,2.4899 0.2649,3.4776 -0.064,0.064 -0.084,0.1094 -0.1224,0.161 -1.222,-0.8677 -3.2711,-0.6952 -5.0166,0.4201 -2.153,1.3762 -3.1223,3.705 -2.1629,5.2053 0.9595,1.5004 3.4802,1.6037 5.6336,0.2262 0.064,-0.064 0.1158,-0.077 0.1802,-0.1223 0,0 0,0 0,0 1.1959,3.7835 6.5645,5.4609 11.9935,3.7448 5.4293,-1.7162 8.861,-6.1752 7.6638,-9.9592 -1.1964,-3.7834 -6.5682,-5.461 -11.9968,-3.7449 v 0 c -0.1546,-1.7236 -1.0503,-3.005 -2.2836,-3.2776 -0.2198,-0.064 -0.4396,-0.064 -0.6562,-0.064 z m 87.8979,1.5389 c 3.2929,10.6576 14.4095,13.1992 22.6186,17.2102 -6.3858,-8.2662 -15.9134,-16.2573 -22.6186,-17.2102 z m -113.5487,3.0183 c -18.7096,1.1958 -19.1316,22.4122 -13.0768,28.4723 -17.1707,8.1597 -61.294,27.7601 -48.1121,52.3029 7.9578,-21.6708 30.2208,-27.9436 48.6789,-29.9546 18.4582,-2.011 25.4595,-4.8675 36.14,-21.2577 -8.1396,-0.4526 -18.2486,-1.5275 -25.4755,-4.5248 -13.6431,-7.1106 -7.0272,-22.4667 1.8455,-25.0381 z m 44.6211,8.7005 c -0.5885,0.064 -1.1928,0.1483 -1.7824,0.3298 -2.7612,0.8733 -4.506,3.142 -3.8976,5.0666 0.3295,1.0463 1.3206,1.8234 2.6935,2.1169 -1.0802,1.1693 -1.6038,2.633 -1.3751,3.841 0.3556,1.8681 2.3763,2.5617 4.5145,1.5502 2.1386,-1.013 3.5844,-3.3478 3.2282,-5.2168 -0.116,-0.601 -0.4071,-1.0975 -0.855,-1.4503 1.5185,-1.1259 2.2132,-2.6762 1.7956,-4.0014 -0.323,-1.0284 -1.2852,-1.8001 -2.6225,-2.1061 -0.5364,-0.1224 -1.1104,-0.1674 -1.6992,-0.1287 z m 13.6604,13.2839 c -0.5881,0.064 -1.192,0.1416 -1.7815,0.3296 -2.7614,0.8734 -4.5066,3.1424 -3.8979,5.0673 0.064,0.1611 0.1224,0.3231 0.2061,0.4717 -0.7397,-0.6206 -2.0032,-0.7763 -3.225,-0.3942 -1.7051,0.5365 -2.781,1.9397 -2.4047,3.1285 0.3751,1.1883 2.061,1.715 3.766,1.1757 1.7053,-0.5364 2.7849,-1.9403 2.4085,-3.1283 0,-0.064 -0.064,-0.096 -0.064,-0.1416 1.1583,1.1365 3.311,1.4504 5.402,0.7903 2.7614,-0.8725 4.5094,-3.1415 3.9012,-5.0665 -0.3232,-1.0283 -1.2845,-1.7961 -2.6225,-2.1021 -0.5367,-0.1224 -1.11,-0.1674 -1.6995,-0.1288 z m -67.1968,7.7033 3.8591,0.937 c -1.9275,3.0992 -2.1157,6.5859 0.1029,11.1915 3.2833,-6.1202 4.5432,-7.1999 4.8961,-10.1403 3.6921,0.9988 6.8829,1.6723 10.9456,2.3124 -4.6573,9.2648 -11.8119,10.8788 -18.9236,12.542 -5.9852,-8.3456 -5.1099,-13.0682 -0.8837,-16.8426 z m 72.3952,7.2578 c -8.1499,-0.1482 -12.8875,11.3418 -13.0121,15.0076 -7.7595,0.7518 -5.8525,10.6391 -0.1159,13.0841 19.8893,23.6868 39.9271,30.1425 64.0791,41.1219 7.8854,5.3329 15.9178,11.9062 25.7393,12.7452 5.3808,-3.4079 -1.3464,-10.2798 -4.2896,-13.5255 -22.4666,-14.06 -40.2809,-44.3257 -65.2265,-47.6776 2.5281,-7.9866 3.3521,-17.7939 -5.0594,-20.4597 -0.1481,-0.064 -0.4074,-0.2455 -0.4397,-0.1028 -0.5752,-0.116 -1.1312,-0.1804 -1.675,-0.1932 z m -35.5343,2.2056 c -2.2016,0 -4.1228,0.7465 -5.4591,2.1454 -3.4386,3.5992 -2.091,10.4678 3.0111,15.3423 5.1014,4.8748 12.0245,5.9122 15.4641,2.3123 3.4395,-3.5992 2.0944,-10.4712 -3.0079,-15.3455 -2.0853,-1.9925 -4.5869,-3.4266 -7.0936,-4.073 -0.2125,-0.064 -0.4202,-0.1028 -0.6334,-0.1482 -0.7848,-0.161 -1.5507,-0.2392 -2.2846,-0.2326 z m -12.945,10.9533 c -2.364,-0.1738 -5.7491,1.6515 -7.6431,3.2282 -6.7025,6.6916 -14.3722,5.3768 -21.0858,8.0633 1.4659,0.4976 4.9241,1.2908 8.9713,0.7233 7.567,-1.0154 4.2167,5.7319 9.9947,4.3322 4.715,-4.115 10.3796,3.188 14.2165,-0.6012 2.3451,-2.5152 1.4591,-7.2838 -1.9772,-10.6501 0.5817,-3.6155 -0.64,-4.9606 -2.4764,-5.095 z m 229.6813,7.404 c 7.0488,27.0295 -8.5527,70.677 21.9775,85.5889 22.8619,11.1677 49.7461,22.773 70.3601,41.6566 20.6138,18.8834 35.9707,-12.6211 15.1109,-25.1273 -20.859,-12.5054 -46.9033,-25.1303 -69.4764,-34.1524 -22.5735,-9.021 -22.8615,-44.1063 -37.9721,-67.9658 z m -252.4284,13.0305 c -1.4971,0.096 -2.79,0.8284 -3.41,2.0094 -0.4652,-0.3619 -1.0025,-0.6204 -1.5784,-0.7518 -2.1401,-0.4784 -4.2642,0.8703 -4.7421,3.0104 -0.4782,2.1408 0.8699,4.265 3.0111,4.7426 1.8551,0.4139 3.7433,-0.5428 4.5034,-2.2876 0.5236,0.4591 1.1399,0.8301 1.8139,1.0802 2.5156,0.9256 5.1712,0 5.929,-2.0523 0.7566,-2.0587 -0.6698,-4.4757 -3.1857,-5.4022 -0.2584,-0.096 -0.5235,-0.1737 -0.7942,-0.2326 -0.5304,-0.1159 -1.0475,-0.1482 -1.547,-0.1159 z m -73.3002,8.3726 c -1.9556,-0.077 -3.7027,1.099 -4.1009,2.8832 -0.064,0.1803 -0.064,0.3617 -0.071,0.5428 -0.5624,-0.064 -1.119,0.064 -1.6211,0.2457 -2.0427,-0.349 -3.9561,0.7931 -4.3616,2.6051 -0.4202,1.8868 0.9471,3.7982 3.0539,4.2683 1.5085,0.3361 3.0509,-0.1546 3.9372,-1.2542 0.9877,-0.2842 1.7471,-0.9852 2.0452,-1.885 0.1029,0.064 0.2125,0.064 0.3168,0.084 2.2768,0.5107 4.4906,-0.7299 4.9456,-2.7685 0.4525,-2.0395 -1.0192,-4.1061 -3.2959,-4.6148 -0.2844,-0.064 -0.5691,-0.097 -0.8481,-0.1095 z m 48.6331,12.7136 c -0.4459,0 -0.8654,0.1353 -1.2506,0.3234 -2.5386,1.2106 -2.9316,5.3754 -0.8767,9.303 2.0556,3.9277 5.7815,6.1319 8.3201,4.9205 1.2518,-0.6013 2.0309,-1.9683 2.1626,-3.7835 0.4009,0.7628 0.9613,1.4952 1.6318,2.1376 2.3483,2.2431 5.4699,2.8675 6.9732,1.3932 1.5038,-1.4744 0.8192,-4.4869 -1.5285,-6.7305 -2.3478,-2.2437 -5.47,-2.8681 -6.9729,-1.3936 -0.2651,0.265 -0.4655,0.5817 -0.6013,0.9514 -0.2062,-0.64 -0.4716,-1.2667 -0.791,-1.8777 -1.3608,-2.6013 -3.5306,-4.5592 -5.6582,-5.102 -0.4846,-0.1224 -0.9611,-0.1675 -1.4077,-0.1353 z m -95.8616,3.0783 c 1.9612,-0.064 3.9779,0.9379 5.5015,2.0878 4.2418,4.1364 8.1381,9.6007 11.6974,13.1874 -3.0529,0.6755 -6.0852,-0.8753 -9.1429,-0.5817 -2.5375,0.6948 -3.6574,2.3219 -3.2817,4.5791 0.9406,2.5287 3.8358,5.8015 5.3768,7.9743 1.4125,1.3949 3.1661,4.8193 0,5.2377 -2.2858,0.1546 -1.9334,-2.7873 -3.5599,-4.2153 -0.6799,-0.5946 -3.9799,-3.7239 -5.9217,-4.8388 -2.1091,-5.2982 -3.1188,-10.3329 -3.4342,-15.236 -0.1224,-1.8752 -0.1416,-3.7317 -0.077,-5.5759 0.071,-0.4976 0.1996,-1.062 0.3101,-1.5998 0.1803,-0.2126 0.388,-0.4075 0.6335,-0.582 0.6206,-0.2844 1.2708,-0.4137 1.9245,-0.4329 z m 283.6908,6.5636 c 5.8822,13.7082 12.3361,24.9308 14.99,38.0999 0.064,5.2294 1.6032,10.6072 4.8778,14.7265 3.7951,3.5204 9.5708,1.6182 13.0161,-1.4395 5.1204,-4.3902 8.6095,-11.9069 6.0712,-18.5421 -1.3977,-3.7596 -3.1229,-4.7972 -11.6366,-4.2011 -12.8882,-4.9476 -18.2037,-19.8557 -27.3185,-28.6437 z m -123.3478,2.5048 c -6.748,0.1352 -8.1505,9.5442 -2.2301,12.7841 6.314,3.4562 10.19,-0.5172 15.0504,0.8591 4.6216,1.4944 9.9886,5.0548 10.9281,10.3724 -0.5561,5.2715 -0.1869,13.0043 6.2423,14.2699 2.7802,3.3432 -5.3782,7.3367 -8.1168,9.6205 -2.253,1.0654 0.1288,3.7601 3.8409,2.0453 6.9267,-1.3279 6.4465,-8.8829 13.0268,-10.9392 10.6053,4.4899 20.801,9.6909 32.4601,14.1493 11.6586,4.4581 26.9697,2.3018 37.4692,-3.0356 23.4497,7.6341 32.1706,-9.0297 15.5532,-10.7039 -24.2266,-8.8629 -48.1504,-1.6011 -64.9589,-10.1511 -16.8091,-8.5504 -12.671,-16.6128 -19.6009,-22.4868 -2.8152,-2.3863 -5.4637,-3.484 -7.6254,-3.9481 -3.158,-0.6781 -4.8233,-0.2909 -7.5173,2.7227 -7.8896,8.6515 -17.872,-6.4868 -23.1034,-5.4551 -0.4978,-0.077 -0.9683,-0.1095 -1.4182,-0.105 z m -43.2741,1.2863 c -0.8034,0 -1.4884,0.1867 -1.9599,0.6206 -1.2829,1.1785 -0.6508,3.6348 1.4113,5.4867 2.0627,1.8528 4.7742,2.3983 6.0575,1.2192 1.2831,-1.1791 0.6515,-3.6356 -1.4112,-5.4876 -0.8617,-1.3643 -2.1389,-1.4961 -3.2566,-1.7354 -0.2907,-0.064 -0.5754,-0.097 -0.8411,-0.1029 z m -42.6214,2.4622 c -2.7952,-0.1288 -5.5501,0.3297 -6.638,0.905 -1.3878,0.8469 -2.7434,1.8831 -3.6276,3.274 -0.8514,1.1171 -0.4008,2.7002 0.627,3.5346 0.9514,1.119 2.4725,1.371 3.859,1.4608 l -1.4427,1.262 c -0.4397,0.4459 -1.0304,0.7646 -1.3685,1.2895 -0.064,0.1545 -0.077,0.3105 -0.084,0.4589 -2.3504,-0.6663 -7.6116,-2.1363 -9.0181,0.064 -1.3925,2.1527 6.6921,2.6672 9.4169,1.5035 -0.2586,2.4712 2.5842,2.9847 4.3613,3.0712 1.2694,-0.2972 2.5501,-0.2198 2.8183,1.5896 1.3458,0.5622 2.6652,-0.3879 4.0084,-0.4396 1.6917,1.2994 3.0808,3.3665 5.3877,3.5384 0.9735,0.5365 2.0447,-0.6575 1.5928,-1.5998 -0.9805,-1.1776 -1.8272,-2.4789 -2.466,-3.8805 0.6502,-6.2463 2.451,-13.941 -3.987,-15.4925 -0.2262,-0.064 -0.4524,-0.1158 -0.6877,-0.1672 -0.8805,-0.1933 -1.8191,-0.2974 -2.7507,-0.3427 z m -36.7679,7.6924 c -0.239,0 -0.4782,0.064 -0.709,0.1029 -2.3613,1.9515 0.4589,5.8145 3.339,3.1569 0.6525,-2.0381 -0.9667,-3.3084 -2.63,-3.2603 z m 9.5701,2.4519 c -3.3186,0 -2.2818,4.2195 -0.3683,5.3869 4.2405,2.5503 8.7518,-3.9773 4.6785,-5.0381 v 0 c -0.1288,-0.064 -0.2713,-0.064 -0.42,-0.092 -0.6814,-0.1224 -2.8042,-0.3169 -3.8837,-0.2587 z m 78.1677,8.188 c -1.3269,13.8984 -6.508,24.6553 -14.8291,32.8589 -2.7176,2.0877 -5.1902,3.0872 -7.4797,3.2596 0.2973,0.3297 0.4719,0.7041 0.5042,1.0978 0.1095,1.3528 -1.4118,2.5797 -3.4028,2.7432 -1.9901,0.1611 -3.6935,-0.7988 -3.8054,-2.1518 -0.084,-1.0085 0.7544,-1.9891 2.1061,-2.4693 -0.278,-6.8524 -1.7331,-14.8875 -5.1487,-21.5033 -0.3943,0.07 -1.4693,0.4264 -1.8739,0.3361 -0.084,0 -0.1675,-0.064 -0.2456,-0.064 1.3148,6.7848 5.7201,17.5598 -1.2761,23.6847 0.2393,-0.064 0.4784,-0.092 0.7273,-0.1095 0.4848,-0.065 0.9671,0 1.4214,0.077 1.3652,0.2715 2.3027,1.0894 2.3841,2.0736 0.1094,1.3531 -1.4126,2.5833 -3.4026,2.7474 -1.9911,0.1611 -3.6944,-0.7989 -3.8057,-2.152 0,-0.1158 0,-0.239 0,-0.3618 -0.9442,0.7277 -1.9211,1.4097 -2.9367,2.038 1.6046,0.6618 2.5044,1.9879 2.0776,3.0607 -0.4589,1.1476 -2.2631,1.5882 -4.0296,0.9831 -1.0548,-0.3619 -1.9057,-1.0374 -2.2767,-1.8066 -1.0284,0.4653 -2.0852,0.8876 -3.1713,1.2689 0.064,0.1223 0.064,0.2458 0.077,0.375 0.1095,1.3534 -1.409,2.5836 -3.3995,2.7473 -1.5062,0.1224 -2.9075,-0.4072 -3.5093,-1.322 -1.5217,0.2845 -3.0859,0.5043 -4.6961,0.6631 -1.0769,0.5431 -2.7021,0.6498 -4.2507,0.278 -5.4389,0.1804 -15.2548,-1.1336 -21.5391,-2.1344 40.2849,26.6858 95.9955,-8.0557 85.7676,-46.2171 z m -64.2284,48.3506 c 1.4486,-0.064 2.866,-0.1416 4.2509,-0.2779 0.3165,-0.1611 0.575,-0.3556 0.7697,-0.5687 1.0149,-1.1463 0.064,-2.7363 -2.1771,-3.5529 -0.2651,-0.096 -0.5494,-0.1803 -0.834,-0.252 -0.1029,0 -0.206,-0.064 -0.3037,-0.064 -1.9599,-0.3876 -3.888,0 -4.714,0.9161 -1.0152,1.1455 -0.064,2.7356 2.1768,3.5521 0.2652,0.096 0.5496,0.1804 0.834,0.2521 z m 8.9468,-0.9405 c 2.3885,-0.4459 4.6671,-1.0439 6.8308,-1.8028 -0.2585,-0.821 -1.1313,-1.4628 -2.306,-1.6995 -0.4523,-0.092 -0.9391,-0.1159 -1.4212,-0.077 -1.9904,0.1611 -3.5139,1.3945 -3.4029,2.7475 0,0.2909 0.1288,0.5752 0.2976,0.8337 z m 10.0019,-3.0679 c 1.4694,-0.662 2.8824,-1.404 4.2296,-2.2371 -0.097,-0.065 -0.1933,-0.077 -0.2909,-0.1096 -0.1804,-0.064 -0.3684,-0.1158 -0.556,-0.1545 -1.603,-0.3555 -3.0712,0.1223 -3.4743,1.137 -0.1674,0.4202 -0.1352,0.8973 0.092,1.3685 z m 7.1654,-4.2752 c 0.9218,-0.7111 1.8095,-1.4688 2.6614,-2.2773 -1.4641,0.3297 -2.5264,1.2409 -2.6614,2.2773 z m 3.9375,-25.9611 c -0.4266,-1.0428 -0.907,-2.1183 -1.4609,-3.2283 -0.1868,0.2126 -0.3103,0.4655 -0.3685,0.7306 -0.2263,1.0288 0.5624,2.1092 1.8313,2.4977 z m -1.4609,-3.2283 c 0.2456,-0.2908 1.1539,-0.7077 1.5604,-0.8409 -1.605,-2.8474 -4.0205,-4.9405 -5.9682,-6.5771 1.8001,2.6334 3.2496,5.0989 4.4078,7.418 z m 1.5604,-0.8409 c 0.6898,1.2241 1.4357,2.3751 2.02,3.7984 2.2882,-1.2795 -0.4526,-4.2928 -2.02,-3.7984 z m 7.1684,25.3017 c 0.3622,1.0066 2.7295,2.0335 4.6001,0.7801 -0.4267,-0.4716 -1.0944,-0.8209 -1.8842,-0.98 -0.4526,-0.092 -0.9399,-0.1158 -1.4223,-0.077 -0.4461,0.064 -0.8847,0.1289 -1.2936,0.278 z m -73.6276,-28.1021 c -0.1095,0 -0.2126,0 -0.3102,0 -0.8164,0.1932 -1.1242,1.6239 -0.684,3.1929 0.4397,1.5688 1.4602,2.6839 2.2767,2.4906 0.8164,-0.1933 1.1202,-1.624 0.6805,-3.1925 -0.3555,-1.2769 -1.1136,-2.2905 -1.8493,-2.4804 -0.064,0 -0.077,0 -0.1159,0 z m 308.5509,1.9026 c -0.6878,6.8047 -0.7344,15.8829 2.7829,22.2306 2.8892,4.7963 9.1577,4.8049 13.5039,7.5675 10.8682,5.8151 19.4647,14.8416 28.9961,22.4763 3.5352,3.7323 8.7122,7.3691 14.0993,5.7615 4.1158,-1.6044 4.9517,-7.0383 3.3497,-10.7245 -10.3786,-19.6433 -47.4186,-27.7744 -57.2737,-37.7477 -1.7317,-2.3944 -3.6516,-7.2128 -5.4582,-9.5637 z m -302.9497,0.2585 c -0.8627,0.1996 -1.2949,1.5011 -0.9658,2.8965 0.3297,1.3963 1.2935,2.3626 2.1556,2.1598 0.8629,-0.2061 1.2955,-1.501 0.9658,-2.8973 -0.2584,-1.1078 -0.936,-1.9824 -1.6678,-2.1552 -0.1674,-0.064 -0.3295,-0.064 -0.4911,0 z m 7.5505,1.037 c -0.2649,0.064 -0.5171,0.1352 -0.7375,0.2777 -1.2196,0.7598 -1.38,2.7047 -0.3618,4.3433 1.0192,1.6388 2.8344,2.3517 4.0541,1.5928 1.2204,-0.7595 1.3839,-2.7045 0.3619,-4.344 -0.6075,-0.9792 -1.5402,-1.6708 -2.4867,-1.8486 -0.2908,-0.064 -0.5688,-0.064 -0.8339,0 z m 9.8055,1.685 c -0.4785,0 -0.896,0.1224 -1.201,0.4009 -0.9523,0.8558 -0.6012,2.7989 0.788,4.3397 1.385,1.5398 3.277,2.0964 4.2287,1.2399 0.9522,-0.8565 0.601,-2.8 -0.7833,-4.3397 -0.7405,-0.8225 -1.6684,-1.4022 -2.5332,-1.5819 -0.174,-0.064 -0.3362,-0.064 -0.4979,-0.064 z m 38.9946,1.0905 c -0.278,0 -0.5689,0.065 -0.8514,0.097 -1.5571,0.3425 -2.6334,1.4744 -2.4021,2.5332 0.2328,1.0583 1.6821,1.6407 3.2391,1.3007 1.5567,-0.3427 2.6291,-1.4752 2.3982,-2.5333 -0.1352,-0.6335 -0.7251,-1.1255 -1.5713,-1.3148 -0.2585,-0.064 -0.5301,-0.084 -0.8125,-0.084 z m -25.4193,0.3556 c -0.8541,0 -1.5793,0.3038 -2.017,0.8764 -0.9463,1.2386 -0.2845,3.3331 1.4751,4.6787 1.7609,1.3452 3.9529,1.4306 4.9,0.1933 0.9455,-1.2386 0.2841,-3.3331 -1.4752,-4.6782 -0.6076,-0.4653 -1.3012,-0.7976 -1.9924,-0.9587 -0.3038,-0.071 -0.6074,-0.1094 -0.8905,-0.1094 z m 12.7237,1.1014 c -0.1933,0 -0.3684,0.064 -0.5364,0.1094 -1.3659,0.4912 -1.4531,2.4517 -0.1933,4.3828 1.2609,1.9305 3.3911,3.0973 4.757,2.6082 1.3656,-0.4914 1.4498,-2.452 0.1868,-4.3828 -0.8589,-1.3153 -2.1662,-2.3302 -3.3853,-2.6297 -0.077,0 -0.1481,-0.064 -0.2263,-0.064 -0.2125,-0.064 -0.4202,-0.064 -0.6074,-0.064 z m -55.7301,1.7351 c -0.6399,0.1351 -1.0931,1.5222 -1.0153,3.1031 0.077,1.5806 0.6579,2.7558 1.2966,2.6226 0.6398,-0.1353 1.0923,-1.5228 1.0155,-3.1034 -0.064,-1.3617 -0.5107,-2.4536 -1.0621,-2.6114 -0.077,0 -0.1546,0 -0.2328,0 z m 5.0341,4.1157 c -0.8814,0.092 -1.4807,1.316 -1.3391,2.7432 0.1417,1.4267 0.971,2.5132 1.8525,2.4268 0.8817,-0.09 1.481,-1.3168 1.34,-2.7441 -0.1224,-1.2287 -0.7636,-2.2349 -1.5325,-2.4046 -0.1094,0 -0.2125,-0.064 -0.3234,0 z m 7.6432,4.1291 c -0.1996,0 -0.4007,0.064 -0.5817,0.148 -1.2029,0.5431 -1.5874,2.2928 -0.859,3.9082 0.7292,1.6162 2.296,2.4886 3.499,1.9457 1.2038,-0.5428 1.5883,-2.2928 0.8591,-3.9088 -0.4848,-1.0698 -1.364,-1.8583 -2.2949,-2.0556 -0.2125,-0.064 -0.42,-0.064 -0.6269,-0.064 z m 58.4277,2.459 c -0.2393,0 -0.4784,0 -0.7193,0 -1.9909,0.1609 -3.5146,1.3943 -3.4028,2.7472 0.1095,1.3537 1.8146,2.3161 3.8052,2.1526 1.9905,-0.1611 3.5142,-1.3943 3.403,-2.7472 -0.084,-0.9844 -1.022,-1.8003 -2.3873,-2.0737 -0.2263,-0.064 -0.459,-0.077 -0.6988,-0.092 z m -50.1329,0.4719 c -0.2455,0.065 -0.4654,0.116 -0.6594,0.2456 -1.0568,0.7228 -0.969,2.6974 0.1996,4.4078 1.1693,1.7106 2.9768,2.5082 4.0338,1.7855 1.0567,-0.7228 0.9655,-2.6944 -0.1997,-4.4041 -0.6987,-1.0224 -1.6638,-1.7641 -2.5798,-1.985 -0.278,-0.064 -0.5496,-0.084 -0.7906,-0.064 z m 40.8692,3.1602 c -0.8545,0.064 -1.5662,0.5172 -1.8246,1.2224 -0.3945,1.0628 0.3812,2.322 1.7211,2.815 1.3399,0.4914 2.744,0.064 3.1351,-1.0294 0.388,-1.0636 -0.3813,-2.3259 -1.7207,-2.8186 -0.1352,-0.064 -0.2779,-0.096 -0.42,-0.1223 -0.3038,-0.064 -0.6078,-0.084 -0.8909,-0.064 z m -7.7609,0.6076 c -0.2391,0 -0.4784,0 -0.7193,0 -1.991,0.161 -3.5145,1.3942 -3.4036,2.7472 0.1096,1.3531 1.8152,2.3163 3.8056,2.1527 1.9909,-0.1609 3.5147,-1.3944 3.4034,-2.7472 -0.084,-0.9847 -1.0226,-1.8002 -2.3879,-2.0737 -0.2261,-0.064 -0.4589,-0.077 -0.6982,-0.092 z m -22.1375,0.077 c -1.373,-0.077 -2.5887,0.5882 -3.0037,1.7174 -0.5365,1.4628 0.4524,3.1735 2.2054,3.8198 1.7563,0.6464 3.6166,0 4.1543,-1.4791 0.537,-1.4627 -0.4523,-3.173 -2.2053,-3.8196 -0.1801,-0.064 -0.3685,-0.1159 -0.5559,-0.1611 -0.1996,-0.064 -0.4007,-0.064 -0.5948,-0.077 z m 11.2631,1.2296 c -1.4073,0 -2.6444,0.3683 -3.2636,1.0684 -1.0156,1.146 -0.065,2.7362 2.177,3.5526 2.2179,0.8157 4.8391,0.5495 5.8538,-0.601 1.0157,-1.1455 0.065,-2.7363 -2.177,-3.553 -0.2717,-0.096 -0.5494,-0.1802 -0.8372,-0.252 -0.1029,0 -0.206,-0.064 -0.3035,-0.064 -0.4915,-0.096 -0.9777,-0.148 -1.4469,-0.1545 z m -31.3765,0.4846 c -0.4268,-0.077 -0.8115,0 -1.094,0.3039 -0.6624,0.6398 -0.5881,2.0083 0.1675,3.0535 0.7549,1.0455 1.903,1.371 2.5648,0.7305 0.662,-0.64 0.5883,-2.0052 -0.1675,-3.0497 -0.4008,-0.556 -0.9413,-0.9391 -1.4713,-1.0375 z m 8.548,4.5754 c -0.2061,0 -0.4008,0.1029 -0.5688,0.2125 -0.9037,0.6143 -0.825,2.3008 0.1738,3.7631 0.9986,1.4611 2.5417,2.1457 3.4454,1.5279 0.9031,-0.6141 0.8247,-2.3005 -0.174,-3.762 -0.5947,-0.874 -1.4228,-1.5117 -2.2054,-1.7003 -0.239,-0.064 -0.4656,-0.071 -0.6738,-0.064 z m 224.6497,1.4822 c -1.7647,0.064 -3.5741,0.2909 -5.3337,0.7199 -7.6715,1.8765 -12.3178,6.7908 -10.3791,10.9779 1.9384,4.187 9.7307,6.0604 17.402,4.183 7.6714,-1.877 12.3177,-6.7943 10.3792,-10.9817 -0.9135,-1.9722 -3.198,-3.519 -6.371,-4.318 -0.2061,-0.064 -0.4137,-0.1029 -0.627,-0.1481 -1.5829,-0.3361 -3.3052,-0.4847 -5.0704,-0.433 z m -212.518,1.9882 c -0.9632,0.097 -1.7691,0.6337 -2.0736,1.4608 -0.459,1.2504 0.3813,2.7119 1.8849,3.2639 1.5016,0.5559 3.089,0 3.5487,-1.265 0.4591,-1.2503 -0.3812,-2.7116 -1.8843,-3.2636 -0.1545,-0.064 -0.3101,-0.1029 -0.4718,-0.1353 -0.3425,-0.07 -0.6807,-0.09 -1.0011,-0.064 z m 67.3855,2.7717 -4.4497,3.4353 14.1059,23.0708 c -4.6356,-17.08 -7.6925,-23.4497 -9.6562,-26.5061 z m -13.7819,7.419 -5.2979,2.1485 14.2059,24.4247 c -1.9379,-15.1751 -5.4324,-18.5912 -8.908,-26.5732 z m -57.8756,2.1164 -2.7932,9.2423 c 2.1629,-2.2831 6.3903,-3.3018 6.9553,-6.8875 z m 42.9602,4.1117 -5.5402,1.6001 c 1.446,10.5971 6.3218,17.2086 11.8006,26.8012 z m -32.7483,1.2864 c -1.0969,6.4712 -1.6516,12.6004 -2.3802,18.8383 2.1385,-5.8207 5.5289,-10.4285 7.2722,-17.2706 z m 17.42,1.7493 c -2.1731,0.7187 -4.3166,0.336 -6.1317,0 -0.4201,8.8097 0.064,16.6211 0.627,25.3302 1.2423,-8.4177 4.9243,-17.099 5.5047,-25.3515 z"
         style="color:#000000;clip-rule:nonzero;display:inline;overflow:visible;visibility:visible;opacity:1;isolation:auto;mix-blend-mode:normal;color-interpolation:sRGB;color-interpolation-filters:linearRGB;solid-color:#000000;solid-opacity:1;fill:#673c14;fill-opacity:1;fill-rule:evenodd;stroke:none;stroke-width:1.35199833px;stroke-linecap:butt;stroke-linejoin:miter;stroke-miterlimit:4;stroke-dasharray:none;stroke-dashoffset:0;stroke-opacity:1;color-rendering:auto;image-rendering:auto;shape-rendering:auto;text-rendering:auto;enable-background:accumulate" />
    </g>
  </g>
</svg>
