<?xml version="1.0" encoding="UTF-8" standalone="no"?>
<!-- Created with Inkscape (http://www.inkscape.org/) -->

<svg
   xmlns:dc="http://purl.org/dc/elements/1.1/"
   xmlns:cc="http://creativecommons.org/ns#"
   xmlns:rdf="http://www.w3.org/1999/02/22-rdf-syntax-ns#"
   xmlns:svg="http://www.w3.org/2000/svg"
   xmlns="http://www.w3.org/2000/svg"
   xmlns:sodipodi="http://sodipodi.sourceforge.net/DTD/sodipodi-0.dtd"
   xmlns:inkscape="http://www.inkscape.org/namespaces/inkscape"
   width="182mm"
   height="89mm"
   viewBox="0 0 182 89"
   version="1.1"
   id="svg7418"
   inkscape:version="0.92.3 (2405546, 2018-03-11)"
   sodipodi:docname="kadoo.svg"
   inkscape:export-filename="F:\Documentos\rapadurainrussas\patrocinadores\kadoo.png"
   inkscape:export-xdpi="39"
   inkscape:export-ydpi="39">
  <defs
     id="defs7412" />
  <sodipodi:namedview
     id="base"
     pagecolor="#ffffff"
     bordercolor="#666666"
     borderopacity="1.0"
     inkscape:pageopacity="0.0"
     inkscape:pageshadow="2"
     inkscape:zoom="0.175"
     inkscape:cx="-93.439476"
     inkscape:cy="-362.95724"
     inkscape:document-units="mm"
     inkscape:current-layer="layer1"
     showgrid="false"
     inkscape:window-width="1366"
     inkscape:window-height="705"
     inkscape:window-x="-8"
     inkscape:window-y="-8"
     inkscape:window-maximized="1"
     inkscape:pagecheckerboard="true"
     showborder="true"
     borderlayer="false"
     inkscape:showpageshadow="true"
     showguides="true"
     inkscape:guide-bbox="true">
    <sodipodi:guide
       position="-6.4144685,-51.315748"
       orientation="0,1"
       id="guide814"
       inkscape:locked="false" />
    <sodipodi:guide
       position="-143.25646,-141.11831"
       orientation="1,0"
       id="guide816"
       inkscape:locked="false" />
    <sodipodi:guide
       position="143.25646,-162.49987"
       orientation="1,0"
       id="guide818"
       inkscape:locked="false" />
    <sodipodi:guide
       position="-17.105249,-254.44058"
       orientation="0,1"
       id="guide820"
       inkscape:locked="false" />
  </sodipodi:namedview>
  <metadata
     id="metadata7415">
    <rdf:RDF>
      <cc:Work
         rdf:about="">
        <dc:format>image/svg+xml</dc:format>
        <dc:type
           rdf:resource="http://purl.org/dc/dcmitype/StillImage" />
        <dc:title></dc:title>
      </cc:Work>
    </rdf:RDF>
  </metadata>
  <g
     inkscape:label="Camada 1"
     inkscape:groupmode="layer"
     id="layer1"
     transform="translate(0,-208)">
    <rect
       style="opacity:1;fill:#ffffff;fill-opacity:1;fill-rule:evenodd;stroke:none;stroke-width:9.84042645;stroke-linecap:butt;stroke-linejoin:round;stroke-miterlimit:4;stroke-dasharray:none;stroke-opacity:1"
       id="rect7969"
       width="324.80801"
       height="237.6644"
       x="-160.9319"
       y="331.41599"
       inkscape:export-xdpi="39.099998"
       inkscape:export-ydpi="39.099998" />
    <path
       id="path5379"
       d="m -83.736209,390.85869 c -8.639205,0.0482 -17.053251,1.45541 -25.235711,4.73467 -19.87884,8.74051 -32.61088,29.93178 -32.6366,54.30792 0,7.97373 0.90058,13.87207 3.19226,20.86947 6.13363,18.67511 19.69227,31.31838 38.832937,36.20646 11.857193,2.98866 24.415531,3.6038 37.205464,1.10483 10.938915,-2.2513 19.354572,-5.22823 38.886034,-13.75871 16.3745894,-7.15387 23.05340123,-9.72343 31.4079461,-12.08443 15.1073399,-4.27021 29.0294229,-5.14024 43.3390969,-2.71204 7.199872,1.22704 12.109682,2.65336 24.311016,7.091 4.676619,1.70195 10.010964,3.14208 14.697244,3.9711 5.237874,0.92471 14.441532,0.99547 18.976632,0.16082 8.90616,-1.66641 16.3376,-5.46882 22.19784,-11.36169 6.34432,-6.38067 10.29564,-13.96892 12.42326,-23.86168 0.57896,-2.70949 0.69153,-4.0713 0.69153,-9.36192 0,-5.2858 -0.16082,-6.65533 -0.67545,-9.36289 -3.47528,-16.17822 -13.10513,-27.51869 -27.52416,-32.41563 -14.53482,-4.71746 -26.08001,-2.7418 -40.923594,0.69797 -37.607516,9.24483 -64.391919,10.46061 -89.864036,4.0782 -6.574278,-1.64889 -12.228675,-3.50554 -23.749745,-7.80937 -17.18029,-6.41765 -24.219338,-8.45845 -33.614381,-9.74081 -4.020473,-0.50016 -7.994292,-0.76067 -11.921493,-0.73976 z m -20.110421,26.26897 h 11.517874 v 25.33188 l 23.272092,-25.33188 h 15.485262 l -21.478995,22.21939 22.648148,34.82679 h -14.904703 l -15.683052,-26.77186 -9.338752,9.53399 v 17.23787 h -11.517874 z m 119.073581,0 h 10.934086 v 57.04618 H 16.005313 v -6.07059 c -1.686982,2.35793 -3.684367,4.12501 -5.992113,5.29191 -2.2820211,1.14181 -4.591381,1.71031 -6.9264719,1.71031 -4.7473759,0 -8.8209209,-1.90845 -12.2190272,-5.72065 -3.3723709,-3.83923 -5.0593639,-9.18293 -5.0593639,-16.03139 0,-7.0053 1.650004,-12.32342 4.9419669,-15.9555 3.2951801,-3.65767 7.4587847,-5.48634 12.4908082,-5.48634 4.6187214,0 8.6150719,1.92033 11.9858389,5.75989 z m -50.373325,14.78635 c 4.877639,0 8.510539,0.5886 10.895486,1.75227 2.388162,1.14183 4.060678,2.60559 5.020767,4.39646 0.980996,1.76724 1.479534,5.01933 1.479534,9.76767 l -0.160821,12.76308 c 0,3.63176 0.176904,6.31682 0.514622,8.05462 0.369883,1.71094 1.029241,3.55409 1.987721,5.52622 h -10.818292 c -0.289473,-0.73012 -0.627192,-1.80229 -1.045321,-3.22973 -0.209066,-0.64489 -0.32164,-1.08231 -0.385968,-1.28493 -1.867108,1.81112 -3.866087,3.17809 -5.992114,4.08639 -2.127635,0.91184 -4.398398,1.36537 -6.810683,1.36537 -4.253662,0 -7.614778,-1.15469 -10.078525,-3.46358 -2.438016,-2.30743 -3.657023,-5.2271 -3.657023,-8.75481 0,-2.33445 0.562866,-4.4103 1.672518,-6.22691 1.125732,-1.84332 2.67281,-3.2426 4.668572,-4.20269 2.024713,-0.98581 4.929103,-1.84331 8.717999,-2.56699 5.109218,-0.95204 8.652061,-1.85584 10.623701,-2.68567 v -1.08874 c 0,-2.1003 -0.514623,-3.59255 -1.559944,-4.47511 -1.029242,-0.91184 -2.997667,-1.36376 -5.876327,-1.36376 -1.9443,0 -3.46243,0.3876 -4.552783,1.17077 -1.09357,0.76067 -1.970032,2.08888 -2.643865,4.00809 l -9.924139,-1.79345 c 1.109652,-3.99523 3.034654,-6.9527 5.758928,-8.87206 2.724273,-1.92019 6.770478,-2.88075 12.141831,-2.88075 z m 86.075128,0 c 6.251047,0 11.376345,2.03852 15.371094,6.10999 3.994729,4.04733 5.992113,9.17021 5.992113,15.37027 0,6.25214 -2.023108,11.44002 -6.069323,15.56566 -4.022072,4.098 -9.094303,6.14843 -15.216674,6.14843 -3.7873,0 -7.40572,-0.85556 -10.856896,-2.57037 -3.423833,-1.7111 -6.029098,-4.21539 -7.820635,-7.50943 -1.789917,-3.32108 -2.685674,-7.35426 -2.685674,-12.10164 0,-3.63226 0.900597,-7.14727 2.685674,-10.54634 1.791537,-3.39811 4.319611,-5.9926 7.587444,-7.78252 3.296796,-1.79072 6.966682,-2.68616 11.012877,-2.68616 z m 43.91323,0 c 6.252646,0 11.376346,2.03852 15.371076,6.10999 3.99475,4.04733 5.99373,9.17021 5.99373,15.37027 0,6.25214 -2.0247,11.44002 -6.07092,15.56566 -4.02207,4.098 -9.09271,6.14843 -15.215076,6.14843 -3.787281,0 -7.407319,-0.85556 -10.856895,-2.57037 -3.425433,-1.7111 -6.032319,-4.21539 -7.822235,-7.50943 -1.793137,-3.32108 -2.685676,-7.35426 -2.685676,-12.10164 0,-3.63226 0.884497,-7.14727 2.685676,-10.54634 1.789916,-3.39811 4.319592,-5.9926 7.589044,-7.78252 3.295195,-1.79072 6.965081,-2.68616 11.011276,-2.68616 z m -88.7206018,8.36676 c -2.5940119,0 -4.7731082,1.03728 -6.53729177,3.11376 -1.74006183,2.04757 -2.61009273,5.12305 -2.61009273,9.22314 0,4.40902 0.6111127,7.59901 1.83012,9.57082 1.76096834,2.85357 4.2279304,4.28115 7.3928482,4.28115 2.5168163,0 4.6557061,-1.0598 6.4215001,-3.19113 1.760972,-2.15401 2.64709,-5.35703 2.64709,-9.61198 0,-4.74754 -0.852353,-8.15802 -2.571501,-10.23371 -1.709506,-2.10079 -3.9046863,-3.15205 -6.5758895,-3.15205 z m 44.8459768,0.53874 c -2.851317,0 -5.252354,1.08714 -7.198252,3.26801 -1.944297,2.18327 -2.918866,5.31926 -2.918866,9.41805 0,4.09876 0.964907,7.23796 2.918866,9.4169 1.944297,2.18343 4.345314,3.26752 7.198252,3.26752 2.854538,0 5.241094,-1.08713 7.161268,-3.26752 1.947518,-2.18038 2.918866,-5.34402 2.918866,-9.49459 0,-4.04717 -0.964908,-7.16144 -2.918866,-9.34036 -1.920174,-2.18038 -4.30673,-3.26801 -7.161268,-3.26801 z m 43.91323,0 c -2.852937,0 -5.252354,1.08714 -7.198252,3.26801 -1.944317,2.18327 -2.918866,5.31926 -2.918866,9.41805 0,4.09876 0.964908,7.23796 2.918866,9.4169 1.945898,2.18343 4.345315,3.26752 7.198252,3.26752 2.854538,0 5.241091,-1.08713 7.161271,-3.26752 1.9443,-2.18038 2.91887,-5.34402 2.91887,-9.49459 0,-4.04717 -0.96493,-7.16144 -2.91887,-9.34036 -1.92018,-2.18038 -4.306733,-3.26801 -7.161271,-3.26801 z m -123.370667,13.50316 c -1.399125,0.46637 -3.621643,1.01959 -6.656296,1.66929 -3.034654,0.64489 -5.019161,1.28656 -5.95191,1.90266 -1.43129,1.01639 -2.142109,2.29569 -2.142109,3.85209 0,1.53101 0.578948,2.8539 1.711114,3.96903 1.141814,1.11446 2.594009,1.67476 4.356586,1.67476 1.971642,0 3.853222,-0.64648 5.641529,-1.94672 1.318716,-0.98421 2.196786,-2.19148 2.610091,-3.61875 0.289475,-0.93596 0.434212,-2.71204 0.434212,-5.33065 z"
       style="opacity:1;fill:#e00008;fill-opacity:1;stroke-width:4.02265882"
       inkscape:connector-curvature="0" />
  </g>
</svg>
