<?xml version="1.0" encoding="UTF-8" standalone="no"?>
<!-- Created with Inkscape (http://www.inkscape.org/) -->

<svg
   xmlns:dc="http://purl.org/dc/elements/1.1/"
   xmlns:cc="http://creativecommons.org/ns#"
   xmlns:rdf="http://www.w3.org/1999/02/22-rdf-syntax-ns#"
   xmlns:svg="http://www.w3.org/2000/svg"
   xmlns="http://www.w3.org/2000/svg"
   xmlns:sodipodi="http://sodipodi.sourceforge.net/DTD/sodipodi-0.dtd"
   xmlns:inkscape="http://www.inkscape.org/namespaces/inkscape"
   width="182mm"
   height="89mm"
   viewBox="0 0 182 89"
   version="1.1"
   id="svg7418"
   inkscape:version="0.92.3 (2405546, 2018-03-11)"
   sodipodi:docname="otica-alice.svg"
   inkscape:export-filename="F:\Documentos\rapadurainrussas\patrocinadores\kadoo.png"
   inkscape:export-xdpi="39"
   inkscape:export-ydpi="39">
  <defs
     id="defs7412" />
  <sodipodi:namedview
     id="base"
     pagecolor="#ffffff"
     bordercolor="#666666"
     borderopacity="1.0"
     inkscape:pageopacity="0.0"
     inkscape:pageshadow="2"
     inkscape:zoom="0.35"
     inkscape:cx="-7.8937256"
     inkscape:cy="-656.18924"
     inkscape:document-units="mm"
     inkscape:current-layer="layer1"
     showgrid="false"
     inkscape:window-width="1366"
     inkscape:window-height="705"
     inkscape:window-x="-8"
     inkscape:window-y="-8"
     inkscape:window-maximized="1"
     inkscape:pagecheckerboard="true"
     showborder="true"
     borderlayer="false"
     inkscape:showpageshadow="true"
     showguides="true"
     inkscape:guide-bbox="true">
    <sodipodi:guide
       position="-6.4144685,-51.315748"
       orientation="0,1"
       id="guide814"
       inkscape:locked="false" />
    <sodipodi:guide
       position="-143.25646,-141.11831"
       orientation="1,0"
       id="guide816"
       inkscape:locked="false" />
    <sodipodi:guide
       position="143.25646,-162.49987"
       orientation="1,0"
       id="guide818"
       inkscape:locked="false" />
    <sodipodi:guide
       position="-17.105249,-254.44058"
       orientation="0,1"
       id="guide820"
       inkscape:locked="false" />
  </sodipodi:namedview>
  <metadata
     id="metadata7415">
    <rdf:RDF>
      <cc:Work
         rdf:about="">
        <dc:format>image/svg+xml</dc:format>
        <dc:type
           rdf:resource="http://purl.org/dc/dcmitype/StillImage" />
        <dc:title></dc:title>
      </cc:Work>
    </rdf:RDF>
  </metadata>
  <g
     inkscape:label="Camada 1"
     inkscape:groupmode="layer"
     id="layer1"
     transform="translate(0,-208)">
    <rect
       style="opacity:1;fill:#ffffff;fill-opacity:1;fill-rule:evenodd;stroke:none;stroke-width:9.84042645;stroke-linecap:butt;stroke-linejoin:round;stroke-miterlimit:4;stroke-dasharray:none;stroke-opacity:1"
       id="rect7969"
       width="324.80801"
       height="237.6644"
       x="-160.9319"
       y="331.41599"
       inkscape:export-xdpi="62.560001"
       inkscape:export-ydpi="62.560001" />
    <g
       transform="matrix(0.7636338,0,0,-0.7636338,-232.32301,844.02267)"
       inkscape:label="LOGO ÓTICA_ALICE"
       id="g6696"
       inkscape:export-xdpi="62.560001"
       inkscape:export-ydpi="62.560001">
      <path
         inkscape:connector-curvature="0"
         id="path6698"
         style="fill:#000000;fill-opacity:1;fill-rule:nonzero;stroke:none"
         d="m 264.0529,573.2926 c 10.5789,0 20.1592,-4.2899 27.0919,-11.2229 5.0592,-5.0596 8.7091,-11.5279 10.3141,-18.7656 9.0621,1.368 13.3506,1.3325 21.39,0.0428 1.61,7.2201 5.256,13.6737 10.3047,18.7228 6.9327,6.933 16.513,11.2229 27.0919,11.2229 10.5789,0 20.1588,-4.2899 27.0918,-11.2229 6.933,-6.9333 11.2227,-16.5141 11.2227,-27.0933 0,-10.5794 -4.2897,-20.16 -11.2227,-27.0935 -2.5804,-2.5801 -5.5281,-4.7965 -8.7585,-6.5594 -5.4442,-2.9729 -11.6926,-4.6635 -18.3333,-4.6635 -10.5789,0 -20.1592,4.2899 -27.0919,11.2229 -6.9329,6.9335 -11.2226,16.5141 -11.2226,27.0935 l 0.001,0.1622 c -0.8764,0.0451 -1.7336,0.0828 -2.5721,0.1131 -2.098,0.0762 -4.4448,0.1151 -7.0345,0.1151 -2.5897,0 -4.9365,-0.0389 -7.0344,-0.1151 -0.9505,-0.0346 -1.9262,-0.0785 -2.9245,-0.1321 l 8e-4,-0.1432 c 0,-10.5794 -4.2897,-20.16 -11.2226,-27.0935 -6.9327,-6.933 -16.513,-11.2229 -27.0919,-11.2229 -10.5789,0 -20.1591,4.2899 -27.0918,11.2229 -6.933,6.9335 -11.2227,16.5141 -11.2227,27.0935 0,10.5792 4.2897,20.16 11.2227,27.0933 6.9327,6.933 16.5129,11.2229 27.0918,11.2229 z m 117.7345,-16.7734 c -5.5114,5.5117 -13.129,8.9223 -21.5419,8.9223 -8.413,0 -16.0305,-3.4106 -21.5419,-8.9223 -5.5114,-5.5117 -8.9218,-13.1295 -8.9218,-21.5428 0,-8.4135 3.4104,-16.0313 8.9218,-21.543 5.5114,-5.5117 13.1289,-8.9223 21.5419,-8.9223 8.4129,0 16.0305,3.4106 21.5419,8.9223 5.5111,5.5117 8.9215,13.1295 8.9215,21.543 0,8.4133 -3.4104,16.0311 -8.9215,21.5428 z m -96.1926,0 c -5.5114,5.5117 -13.1289,8.9223 -21.5419,8.9223 -8.4129,0 -16.0305,-3.4106 -21.5419,-8.9223 -5.5111,-5.5117 -8.9217,-13.1295 -8.9217,-21.5428 0,-8.4135 3.4106,-16.0313 8.9217,-21.543 5.5114,-5.5117 13.129,-8.9223 21.5419,-8.9223 8.413,0 16.0305,3.4106 21.5419,8.9223 5.5114,5.5117 8.9218,13.1295 8.9218,21.543 0,8.4133 -3.4104,16.0311 -8.9218,21.5428" />
      <path
         inkscape:connector-curvature="0"
         id="path6700"
         style="fill:#000000;fill-opacity:1;fill-rule:nonzero;stroke:none"
         d="m 389.4956,544.0178 c -1.0582,1.8802 -0.3923,4.2628 1.4876,5.3212 1.8803,1.0582 4.2628,0.3926 5.321,-1.4876 l 18.7815,-33.2938 c 2.5205,-4.4781 -2.9605,-7.6178 -5.4811,-3.1402 z" />
      <path
         inkscape:connector-curvature="0"
         id="path6702"
         style="fill:#000000;fill-opacity:1;fill-rule:nonzero;stroke:none"
         d="m 234.4915,544.0178 c 1.0585,1.8802 0.3926,4.2628 -1.4873,5.3212 -1.8799,1.0582 -4.2625,0.3926 -5.3209,-1.4876 l -18.7815,-33.2938 c -2.5206,-4.4781 2.9605,-7.6178 5.481,-3.1402 z" />
      <path
         inkscape:connector-curvature="0"
         id="path6704"
         style="fill:#000000;fill-opacity:1;fill-rule:evenodd;stroke:none"
         d="m 360.2812,583.397 c 5.6412,-0.5689 11.0991,-1.7356 16.3638,-3.4948 5.2679,-1.7618 10.3462,-4.1216 15.2263,-7.0708 l -1.3507,-2.2374 c -4.7282,2.856 -9.6315,5.1342 -14.7038,6.8318 -5.0843,1.7008 -10.3522,2.8267 -15.7921,3.375 z" />
      <path
         inkscape:connector-curvature="0"
         id="path6706"
         style="fill:#000000;fill-opacity:1;fill-rule:evenodd;stroke:none"
         d="m 399.5371,605.158 c 0.8662,0 1.5664,-0.6999 1.5664,-1.5664 0,-0.8663 -0.7002,-1.5664 -1.5664,-1.5664 -0.2744,0 -0.531,0.07 -0.7555,0.1927 l -4.8685,-12.2051 11.5044,2.5846 c -0.2216,0.2713 -0.356,0.6154 -0.356,0.9947 0,0.8663 0.7002,1.5664 1.5664,1.5664 0.8666,0 1.5696,-0.7001 1.5696,-1.5664 0,-0.8663 -0.703,-1.5693 -1.5696,-1.5693 -0.4286,0 -0.8166,0.1721 -1.0995,0.4519 l -12.1839,-13.6633 c -9.6143,5.8107 -19.9664,9.2673 -31.0419,10.3847 l 0.0584,19.372 c -0.0613,-0.009 -0.1228,-0.0116 -0.1837,-0.0116 -0.8666,0 -1.5664,0.703 -1.5664,1.5692 0,0.8666 0.6998,1.5667 1.5664,1.5667 0.8663,0 1.5664,-0.7001 1.5664,-1.5667 0,-0.7874 -0.5777,-1.438 -1.3331,-1.5517 l 7.2453,-10.4402 3.5501,14.2149 c -0.7789,0.0932 -1.3799,0.7526 -1.3799,1.5548 0,0.8662 0.703,1.5692 1.5665,1.5692 0.8694,0 1.5695,-0.703 1.5695,-1.5692 0,-0.811 -0.6185,-1.4792 -1.4119,-1.5577 l 2.1498,-14.6582 12.8256,18.214 c -0.6593,0.3181 -1.1171,0.9947 -1.1171,1.7793 0,1.0882 0.8838,1.9721 1.9749,1.9721 1.0879,0 1.9715,-0.8839 1.9715,-1.9721 0,-1.0908 -0.8836,-1.9746 -1.9715,-1.9746 -0.1432,0 -0.2829,0.0145 -0.4173,0.0437 l -0.0669,-1.4469 -0.9686,-20.8218 10.5418,8.958 c -0.3093,0.286 -0.5046,0.6973 -0.5046,1.1523 0,0.8665 0.703,1.5664 1.5693,1.5664" />
      <path
         inkscape:connector-curvature="0"
         id="path6708"
         style="fill:#000000;fill-opacity:1;fill-rule:nonzero;stroke:none"
         d="m 366.7363,448.1595 -15.6875,-1.4741 -1.9273,8.0332 h -13.6931 l -1.8606,-8.0332 -15.8213,1.4741 15.8865,45.7792 h 17.3491 z m -20.2068,17.9254 -4.2548,16.5529 -4.2545,-16.5529 z m 52.9103,-5.3178 -2.9916,-13.3608 h -27.7844 v 46.0658 l 15.3544,0.9318 v -33.6368 z m 18.1469,-12.8954 -15.3547,-0.9306 v 46.531 l 15.3547,0.9318 z m 39.8829,14.0264 -1.8624,-14.7577 c -1.417,-0.3112 -2.8361,-0.5321 -4.2531,-0.6641 -1.4187,-0.1341 -2.704,-0.2007 -3.8565,-0.2007 -0.7966,0 -1.628,0.045 -2.4914,0.1335 -0.8651,0.0887 -3.047,0.477 -6.5486,1.163 -3.5002,0.6877 -7.0792,3.1907 -10.7351,7.5127 -3.6555,4.3203 -5.4828,9.3617 -5.4828,15.1225 0,1.8173 0.4199,4.6083 1.2632,8.3747 0.8416,3.7681 3.378,7.424 7.6096,10.9681 4.2329,3.5456 9.4731,5.3189 15.7206,5.3189 0.7532,0 1.5293,0 2.3273,0 0.7968,0 1.7722,-0.0669 2.9248,-0.199 l 1.5947,-0.1337 1.0639,-0.1324 2.3258,-14.957 c -0.3095,0.1774 -0.6525,0.3432 -1.0304,0.4986 -0.3767,0.1542 -1.0409,0.388 -1.993,0.6979 -0.9536,0.3098 -2.0948,0.4651 -3.4234,0.4651 -3.5017,0 -6.2374,-0.7197 -8.21,-2.1602 -1.9709,-1.4406 -3.1238,-3.047 -3.4566,-4.8189 -0.3313,-1.7734 -0.4986,-3.0368 -0.4986,-3.7897 0,-0.3095 0.0233,-0.6542 0.0669,-1.0307 0.0451,-0.3764 0.3212,-2.0046 0.8314,-4.8858 0.5088,-2.8797 4.1094,-4.3205 10.8017,-4.3205 1.0191,0 1.9494,0.0774 2.791,0.2327 0.8416,0.1556 1.9057,0.4768 3.1907,0.9638 z m 36.2253,-1.9275 -3.1906,-12.5643 h -28.8485 v 46.5324 h 28.2509 l 2.8579,-12.5643 h -15.753 v -4.653 h 10.4355 v -11.3009 h -10.4355 v -5.4499 z" />
      <path
         inkscape:connector-curvature="0"
         id="path6710"
         style="fill:#000000;fill-opacity:1;fill-rule:nonzero;stroke:none"
         d="m 170.6074,471.8356 c 0,-7.1244 -2.5481,-13.1619 -7.6445,-18.1259 -5.0964,-4.9513 -11.2334,-7.4341 -18.4116,-7.4341 -6.9584,0 -13.0184,2.4494 -18.1802,7.3352 -5.1634,4.896 -7.7434,10.8357 -7.7434,17.8262 0,7.1683 2.5248,13.2273 7.5778,18.1916 5.0511,4.9527 11.1665,7.4342 18.3458,7.4342 7.0458,0 13.1494,-2.4494 18.3127,-7.3355 5.1619,-4.8957 7.7434,-10.8573 7.7434,-17.8917 z m -4.919,0 c 0,5.7055 -2.0712,10.5465 -6.2155,14.5355 -4.1431,3.9772 -9.0955,5.9717 -14.8561,5.9717 -5.8042,0 -10.7685,-2.0381 -14.8895,-6.1041 -4.1207,-4.0777 -6.1821,-9.0071 -6.1821,-14.8017 0,-5.6168 2.0948,-10.4255 6.2827,-14.4363 4.1876,-4.0005 9.1171,-6.0052 14.7889,-6.0052 5.8493,0 10.8235,2.0279 14.923,6.0721 4.0989,4.0544 6.1486,8.9737 6.1486,14.768 z m -11.6985,34.9319 -12.8183,-7.6116 -2.2703,3.7564 12.761,7.7321 z M 198.184,478.982 h -8.441 v -31.9085 h -4.9193 v 31.9085 h -7.5776 v 4.5193 h 7.5776 v 12.7635 h 4.9193 v -12.7635 h 8.441 z m 12.8194,14.7416 h -4.9176 v 7.3788 h 4.9176 z m 0,-46.6501 h -4.9176 v 36.4278 h 4.9176 z m 47.5855,25.3276 h -5.518 c -1.2849,2.1934 -3.0469,3.9336 -5.2838,5.2288 -2.2371,1.2968 -4.6196,1.9493 -7.1461,1.9493 -4.121,0 -7.6226,-1.3402 -10.5024,-4.0209 -2.8794,-2.6804 -4.32,-6.0605 -4.32,-10.1378 0,-4.0762 1.3853,-7.5011 4.1542,-10.2702 2.7678,-2.7695 6.1926,-4.1548 10.2699,-4.1548 2.7474,0 5.1633,0.5655 7.2448,1.6835 2.0832,1.1177 3.9439,2.7924 5.5834,5.0312 h 5.4511 c -1.6396,-3.5674 -4.0119,-6.3714 -7.1125,-8.3979 -3.1022,-2.0265 -6.6475,-3.0367 -10.6347,-3.0367 -5.4961,0 -10.1812,1.8068 -14.0593,5.4076 -3.8769,3.6108 -5.8161,8.1536 -5.8161,13.6383 0,5.351 1.9392,9.8487 5.8161,13.5049 3.8781,3.6442 8.4977,5.4728 13.8586,5.4728 3.9453,0 7.5909,-1.0857 10.9355,-3.2576 3.3449,-2.1702 5.7056,-5.0513 7.0793,-8.6405 z m 46.7206,-25.3276 h -4.72 v 6.8468 c -1.33,-2.4596 -3.2678,-4.3537 -5.8158,-5.6721 -2.5481,-1.3184 -5.3292,-1.9726 -8.3424,-1.9726 -2.8358,0 -5.65,0.6426 -8.4424,1.9275 -2.791,1.2864 -4.951,2.7808 -6.4803,4.5094 -1.5293,1.7283 -2.6921,3.6791 -3.4903,5.8728 -0.798,2.1934 -1.1962,4.4974 -1.1962,6.9352 0,2.4367 0.4535,4.7189 1.362,6.8689 0.9085,2.1498 2.2385,4.1327 3.9889,5.9718 1.7501,1.8388 3.7894,3.2794 6.1152,4.3421 2.3273,1.0641 4.9961,1.5959 8.0093,1.5959 3.0586,0 5.8612,-0.6539 8.4093,-1.9607 2.548,-1.3071 4.464,-3.2462 5.7492,-5.8164 l 0.1335,6.9792 h 4.72 v -34.0351 z m -4.72,18.0153 c 0,4.0326 -1.3635,7.456 -4.0875,10.2705 -2.7256,2.8128 -6.1271,4.2199 -10.2045,4.2199 -3.9872,0 -7.4103,-1.4071 -10.2696,-4.2199 -2.8579,-2.8145 -4.2869,-6.2158 -4.2869,-10.2047 0,-3.9441 1.4624,-7.2904 4.3872,-10.0378 2.9245,-2.7476 6.3595,-4.1213 10.3031,-4.1213 3.7664,0 7.0676,1.3955 9.9037,4.1879 2.8358,2.7927 4.2545,6.094 4.2545,9.9054" />
      <text
         id="text6714"
         style="font-style:italic;font-variant:normal;font-weight:500;font-size:24.06999969px;font-family:'Futura Bk BT';-inkscape-font-specification:FuturaBT-MediumItalic;writing-mode:lr-tb;fill:#000000;fill-opacity:1;fill-rule:nonzero;stroke:none"
         transform="matrix(0.9812,0,0,-1,124.6439,416.9064)">
        <tspan
           id="tspan6712"
           sodipodi:role="line"
           y="0"
           x="0 17.37854 37.838039 51.654221 58.754871 79.214371 93.030548 101.67168 115.48786 126.68041 132.86639 139.05238 152.91672 166.73289 173.83354 187.64972 201.4659 210.10703 223.9232 231.02386 244.76784 254.46803 261.5687 271.26889 284.21857 297.96252 307.66275 314.7634 328.50735 334.69336 348.55768 362.30164">Uma maravilha para os seus olhos</tspan>
      </text>
    </g>
  </g>
</svg>
