<?xml version="1.0" encoding="UTF-8" standalone="no"?>
<!-- Created with Inkscape (http://www.inkscape.org/) -->

<svg
   xmlns:dc="http://purl.org/dc/elements/1.1/"
   xmlns:cc="http://creativecommons.org/ns#"
   xmlns:rdf="http://www.w3.org/1999/02/22-rdf-syntax-ns#"
   xmlns:svg="http://www.w3.org/2000/svg"
   xmlns="http://www.w3.org/2000/svg"
   xmlns:sodipodi="http://sodipodi.sourceforge.net/DTD/sodipodi-0.dtd"
   xmlns:inkscape="http://www.inkscape.org/namespaces/inkscape"
   width="182mm"
   height="89mm"
   viewBox="0 0 182 89"
   version="1.1"
   id="svg7418"
   inkscape:version="0.92.3 (2405546, 2018-03-11)"
   sodipodi:docname="sauto.svg">
  <defs
     id="defs7412" />
  <sodipodi:namedview
     id="base"
     pagecolor="#ffffff"
     bordercolor="#666666"
     borderopacity="1.0"
     inkscape:pageopacity="0.0"
     inkscape:pageshadow="2"
     inkscape:zoom="0.35"
     inkscape:cx="30.09762"
     inkscape:cy="-509.62934"
     inkscape:document-units="mm"
     inkscape:current-layer="layer1"
     showgrid="false"
     inkscape:window-width="1366"
     inkscape:window-height="705"
     inkscape:window-x="-8"
     inkscape:window-y="-8"
     inkscape:window-maximized="1"
     inkscape:pagecheckerboard="true"
     showborder="true"
     borderlayer="false"
     inkscape:showpageshadow="true"
     showguides="true"
     inkscape:guide-bbox="true">
    <sodipodi:guide
       position="-6.4144685,-51.315748"
       orientation="0,1"
       id="guide814"
       inkscape:locked="false" />
    <sodipodi:guide
       position="-143.25646,-141.11831"
       orientation="1,0"
       id="guide816"
       inkscape:locked="false" />
    <sodipodi:guide
       position="143.25646,-162.49987"
       orientation="1,0"
       id="guide818"
       inkscape:locked="false" />
    <sodipodi:guide
       position="-17.105249,-254.44058"
       orientation="0,1"
       id="guide820"
       inkscape:locked="false" />
  </sodipodi:namedview>
  <metadata
     id="metadata7415">
    <rdf:RDF>
      <cc:Work
         rdf:about="">
        <dc:format>image/svg+xml</dc:format>
        <dc:type
           rdf:resource="http://purl.org/dc/dcmitype/StillImage" />
        <dc:title />
      </cc:Work>
    </rdf:RDF>
  </metadata>
  <g
     inkscape:label="Camada 1"
     inkscape:groupmode="layer"
     id="layer1"
     transform="translate(0,-208)">
    <rect
       style="opacity:1;fill:#ffffff;fill-opacity:1;fill-rule:evenodd;stroke:none;stroke-width:9.84042645;stroke-linecap:butt;stroke-linejoin:round;stroke-miterlimit:4;stroke-dasharray:none;stroke-opacity:1"
       id="rect7969"
       width="324.80801"
       height="237.6644"
       x="-160.9319"
       y="331.41599"
       inkscape:export-xdpi="39.099998"
       inkscape:export-ydpi="39.099998" />
    <path
       style="opacity:1;fill:#000000;fill-opacity:1;stroke-width:4.90922832"
       d="m -130.68004,519.75325 c -1.72046,-0.24069 -1.83527,-0.79168 -1.00051,-4.46681 1.01703,-4.40654 1.21372,-4.58033 5.2696,-4.33952 1.73037,0.0708 3.3574,0.34805 3.61319,0.55571 0.67252,0.52621 0.18052,7.00257 -0.55807,7.87638 -0.44245,0.51205 -1.09845,0.61706 -3.4525,0.57458 -1.60721,-0.0708 -3.33593,-0.14747 -3.86238,-0.18524 z m 11.205,-0.44952 c -0.63949,-0.64421 -0.7386,-1.18245 -0.7386,-4.13753 0,-3.13134 0,-3.44117 0.80348,-3.92621 1.14801,-0.75275 8.00039,-0.88843 8.66795,-0.18524 0.24541,0.28671 0.83652,1.99928 1.27885,3.83076 1.11496,4.57761 1.19731,4.49539 -5.80561,4.93157 -3.18998,0.18524 -3.53768,0.164 -4.21504,-0.52385 z m -19.35592,-0.51796 c -1.67952,-0.24069 -2.78493,-0.61234 -3.00805,-0.96394 -0.44245,-0.7268 2.3996,-7.39358 3.2754,-7.65928 0.328,-0.0708 1.72048,-0.0708 3.09937,0.0471 3.04734,0.31975 3.09171,0.42003 1.94688,4.68369 -0.73859,2.76912 -1.66147,4.43201 -2.38767,4.31933 -0.164,0 -1.45972,-0.21473 -2.92263,-0.44952 z m 33.5719,-0.86602 c -0.75393,-0.82118 -2.56182,-6.65758 -2.29281,-7.36278 0,-0.28906 0.73858,-0.6442 1.39411,-0.77516 0.656,-0.164 2.58814,-0.56751 4.30035,-0.98401 1.71067,-0.4035 3.345836,-0.65599 3.632774,-0.54626 0.786964,0.2867 3.839256,5.52456 3.839256,6.55091 0,1.23343 -1.60732,2.12599 -5.410354,3.02079 -3.814946,0.89433 -4.715416,0.91203 -5.463326,0.0708 z m 11.805177,-6.2084 c -1.098448,-1.79551 -2.010713,-3.48966 -2.010713,-3.7628 0,-0.28671 1.262802,-1.13385 2.814432,-1.9109 2.807824,-1.40887 2.817735,-1.41536 3.855892,-0.77281 0.574591,0.35396 2.150172,1.80164 3.503233,3.20981 2.340129,2.44159 2.435226,2.60547 1.931781,3.36683 -0.820001,1.26622 -4.737955,3.13146 -6.543726,3.13146 h -1.54172 z m 9.127259,-4.63554 c -4.129737,-3.63822 -4.179055,-3.73862 -2.973594,-6.0181 0.541554,-1.0253 1.197319,-1.8571 1.459719,-1.8571 0.950965,0 7.234296,4.69194 7.455637,5.57837 0.246591,1.01821 -1.59092,4.5769 -2.474868,4.75199 -0.328001,0.0708 -1.868069,-1.04299 -3.465242,-2.45234 z m -42.628596,1.89579 c -1.68283,-0.0471 -2.6784,-0.28671 -2.79154,-0.57695 -0.21356,-0.60527 0.78696,-4.89487 1.27932,-5.3824 0.39407,-0.38227 5.6075,-0.36339 6.23696,0.0708 0.18052,0.0471 0.21355,1.32522 0,2.75355 -0.21355,2.48513 -0.80348,3.5653 -1.81203,3.37616 -0.21355,-0.0708 -1.558,-0.14748 -2.99483,-0.18523 z m -8.74322,-0.35396 c -2.36668,-0.18759 -2.55687,-0.59228 -1.4924,-3.14456 0.492,-1.18091 1.06659,-2.35393 1.27932,-2.60276 0.492,-0.6029 5.18229,-0.61707 5.38074,0 0,0.21473 -0.16401,1.48757 -0.50852,2.77939 -0.63948,2.35617 -1.37772,3.3069 -2.42402,3.18608 -0.328,-0.0708 -1.31211,-0.14747 -2.23193,-0.18759 z m 15.91663,-0.18759 c -0.24541,-0.2407 -0.42592,-1.44993 -0.42592,-2.85844 0,-3.03944 0.27844,-3.23553 4.571,-3.09406 l 3.13264,0.0708 0.62296,2.33234 c 0.78696,2.89289 0.62297,3.43598 -1.08193,3.71643 -2.28963,0.37519 -6.36533,0.2407 -6.82453,-0.18524 z m 11.70018,-0.54746 c -0.36104,-0.0472 -0.88607,-0.99344 -1.34492,-2.33729 -0.95097,-2.8168 -0.93445,-3.4407 0,-3.65391 0.44245,-0.0708 2.09767,-0.42593 3.67549,-0.74095 l 2.86859,-0.56751 0.90258,1.06777 c 1.5416,1.8335 2.338716,3.60741 1.92058,4.26837 -0.52503,0.83417 -6.60154,2.31547 -8.08745,1.96977 z m 10.409757,-3.23588 c -1.081931,-1.18092 -3.290027,-4.39827 -3.117767,-4.55661 0,-0.0708 1.147996,-0.61824 2.382956,-1.24322 l 2.256473,-1.13265 2.315824,2.22202 c 1.27932,1.2182 2.315824,2.43606 2.315824,2.70058 0,0.36104 -4.503633,2.99849 -5.1253,2.99849 0,0 -0.541555,-0.44127 -1.033556,-0.98518 z m 15.660719,-4.69995 c -3.661923,-2.37223 -4.222945,-2.929 -4.814998,-4.77513 -0.40941,-1.28592 -3.178536,-4.80013 -3.514795,-4.46375 0,0.0708 0.213554,0.70909 0.73859,1.35967 1.08193,1.42527 1.763062,3.06503 1.361321,3.31316 -0.164001,0.0708 -1.41052,-0.51797 -2.766885,-1.36451 -2.041979,-1.27118 -2.688186,-1.9116 -3.657439,-3.66323 -0.639483,-1.17041 -1.50892,-2.40065 -1.922224,-2.75024 -0.409411,-0.34098 -0.639483,-0.63123 -0.525037,-0.63123 0.394073,0 3.560338,1.68826 5.002006,2.67498 0.755108,0.5215 1.47612,0.86719 1.574519,0.75983 0.24541,-0.2407 4.100241,1.72082 6.960334,3.5654 2.501061,1.61393 4.264241,3.75077 5.138397,6.22871 0.458964,1.28545 0.40941,1.83539 -0.164001,1.82477 -0.163999,0 -1.659705,-0.94625 -3.437632,-2.0959 z m -45.915086,1.0241 c -0.36104,-0.56751 0.21355,-3.56989 0.78696,-4.14118 0.52504,-0.52621 3.4689,-0.72679 4.56416,-0.31973 0.68903,0.24068 0.80349,3.70781 0.164,4.37432 -0.52503,0.52267 -5.17096,0.5793 -5.4907,0.0708 z m 8.21169,0.0708 c -0.21356,-0.164 -0.47549,-1.10907 -0.5746,-2.14982 -0.21355,-2.36928 0.18052,-2.66116 3.58029,-2.51132 l 2.41752,0.0471 0.60644,1.79044 c 0.45897,1.37276 0.50853,1.88694 0.18052,2.195 -0.49199,0.48374 -5.6173,0.94271 -6.19956,0.56752 z m 26.962682,-1.71268 c -1.295719,-1.09609 -2.338831,-2.26734 -2.325616,-2.60253 0,-0.33272 0.278445,-1.22682 0.639482,-1.98063 l 0.606447,-1.3809 2.768535,1.85178 c 2.305913,1.54172 2.771839,2.01308 2.770187,2.81432 0,1.04299 -1.213719,3.29228 -1.769786,3.29228 -0.180518,0 -1.410401,-0.89552 -2.694676,-1.99656 z m -42.018502,1.15154 c 0,-0.28671 0.21356,-1.33831 0.72208,-2.34839 l 0.93445,-1.82807 h 2.14686 c 2.43394,0 2.48148,0.0708 1.65322,2.87189 l -0.47548,1.61687 -2.38803,0.0472 c -1.82217,0.0708 -2.43393,0 -2.58649,-0.41178 z m 23.99441,-0.0708 c -0.57459,-0.21474 -1.70241,-3.70829 -1.31211,-4.05848 0.42592,-0.37873 5.77457,-1.19554 6.1861,-0.93209 0.70556,0.42711 2.25683,3.51126 1.93533,3.83124 -0.18053,0.1876 -1.57441,0.56633 -3.11613,0.86247 -2.96332,0.56751 -3.02892,0.56751 -3.69,0.28671 z m 8.6545,-1.8361 c -0.77046,-0.53683 -2.73409,-3.74475 -2.43889,-3.99664 0.18052,-0.16401 1.00052,-0.55218 1.84683,-0.92384 l 1.54172,-0.66543 1.764706,1.73686 c 0.96749,0.96159 1.67788,1.87339 1.574524,2.03986 -0.164,0.24069 -3.51479,2.09626 -3.80338,2.08009 0,0 -0.27845,-0.14749 -0.49201,-0.24069 z m 3.449186,-4.4752 c -1.753266,-1.42527 -1.848486,-1.58112 -1.623716,-2.77655 0.164,-0.69258 0.344506,-1.38421 0.491996,-1.52862 0.328,-0.32919 3.962198,2.08775 4.237695,2.80416 0.180518,0.53447 -0.475483,2.54165 -0.967484,2.84322 -0.164,0.0472 -1.114965,-0.51796 -2.128581,-1.34315 z m 69.390955,-0.48374 c -2.64878,-0.37519 -5.485865,-0.97574 -7.532682,-1.60566 l -2.21589,-0.6796 0.558073,-2.51723 c 0.311482,-1.38385 0.753928,-2.51652 0.984,-2.51652 0.213554,0 1.846831,0.34806 3.588655,0.78933 4.488532,1.11378 13.225494,1.18056 15.353957,0.0708 2.266623,-1.13973 2.819386,-2.48183 2.819386,-6.83195 0,-5.69329 -0.328,-6.00878 -8.602104,-8.072 -7.018028,-1.75032 -9.208787,-2.61645 -11.135966,-4.38954 -2.227217,-2.05343 -2.791425,-4.01966 -2.791425,-9.76143 0,-4.09682 0,-4.88049 0.820002,-6.4563 2.130468,-4.65277 6.138562,-6.40214 14.591768,-6.36793 4.052338,0 6.881518,0.32918 11.04087,1.21868 l 1.782764,0.37991 -0.24541,2.56242 c -0.164,1.40839 -0.328,2.62683 -0.394072,2.70671 0,0.0708 -1.800816,-0.16401 -3.824744,-0.5215 -5.095805,-0.92855 -12.380834,-0.94506 -14.719665,-0.006 -2.440535,0.94153 -2.843929,1.90571 -2.843929,6.75292 0,5.81256 0,5.91946 8.669592,8.19941 9.230261,2.45764 11.237788,3.51633 12.830242,6.76294 0.934447,1.88695 1.000519,2.31571 1.000519,6.67929 0,5.83759 -0.57459,7.78931 -3.055358,10.263 -2.396291,2.39617 -5.145241,3.23268 -11.113196,3.37651 -2.466728,0.0708 -4.969559,0.0708 -5.55996,-0.0472 z m 77.84074,-0.36103 c -6.724125,-1.49747 -10.565269,-5.65553 -11.35247,-12.2855 -0.180518,-1.51223 -0.278447,-10.00897 -0.213554,-18.88716 v -16.14198 l 3.137594,-0.0708 3.139129,-0.0708 v 18.03872 c 0,16.77192 0,18.14066 0.672519,19.49939 1.525202,3.35422 5.425457,5.02383 11.105054,4.7527 4.283708,-0.18524 6.860282,-1.42821 8.470905,-4.0383 l 1.081929,-1.76093 v -18.23376 -18.23221 h 3.034239 3.032233 v 18.08249 c 0,16.57983 0,18.25947 -0.656,20.21285 -1.344566,4.33361 -4.364057,7.25447 -9.020247,8.73861 -3.155646,1.00996 -9.300697,1.22681 -12.735144,0.45896 z m 74.194869,0.18759 c -5.82048,-1.05125 -9.49762,-3.74227 -11.35424,-8.30879 -0.72208,-1.80153 -0.78696,-2.59191 -0.90141,-14.28017 -0.164,-13.26891 0,-15.33236 1.57451,-18.34949 2.47334,-4.88226 7.43959,-7.16704 15.57577,-7.16704 8.17559,0 13.08935,2.2567 15.57083,7.15725 1.52531,3.01748 1.70736,5.08565 1.57451,18.35928 -0.164,11.84259 -0.164,12.46177 -0.91793,14.37704 -2.19949,5.47041 -7.02133,8.14939 -15.14619,8.4125 -2.26815,0.0708 -4.95634,0 -5.97314,-0.1876 z m 11.35412,-6.32144 c 2.01567,-0.90259 3.82309,-2.92227 4.19699,-4.69205 0.164,-0.74332 0.29496,-6.76023 0.29496,-13.36874 v -12.01932 l -0.90259,-1.7909 c -1.59092,-3.18043 -4.13304,-4.25882 -10.04353,-4.25882 -5.91097,0 -8.45286,1.07721 -10.04366,4.2587 l -0.90259,1.79055 v 12.37635 c 0,13.34726 0,13.84421 1.93874,15.90471 1.97249,2.16292 4.16207,2.75037 9.7205,2.62129 3.2065,-0.0708 4.48239,-0.24069 5.7367,-0.82 z m -139.5366695,5.71582 c 0,-0.164 3.7475812,-10.80006 8.3283777,-23.68552 l 8.3281418,-23.42925 3.749351,0.0708 3.750531,0.0471 8.36625,23.49557 c 4.598495,12.92156 8.364128,23.53615 8.367431,23.58523 0,0.0708 -1.410519,0.0708 -3.135825,0.0708 h -3.142196 l -2.130468,-5.91793 -2.130469,-5.91934 -10.017461,0.0708 -10.0158102,0.0708 -1.5745198,4.30353 c -0.8695548,2.36986 -1.8253573,4.99162 -2.1419131,5.82944 l -0.57459058,1.52367 H -2.4225726 c -1.6598235,0 -3.0194912,-0.14749 -3.0194912,-0.2407 z M 22.826849,475.42566 c 0,-0.2407 -1.822173,-5.29084 -3.856011,-11.20994 -2.030062,-5.91817 -3.807872,-10.88903 -3.945679,-11.04654 -0.213554,-0.24069 -7.8971397,21.35967 -7.8971397,22.28633 0,0.31502 2.127165,0.41767 7.9299397,0.41767 6.189414,0 7.893482,-0.0708 7.76889,-0.44717 z m 66.08641,-3.13854 V 451.4834 h -7.191585 -7.188517 v -2.7788 -2.77951 l 17.309334,-0.0708 17.307459,-0.0472 v 2.87413 2.87095 h -7.17354 -7.173539 v 20.80584 20.80395 H 91.75235 88.706666 v -20.8023 z M -97.70137,490.17777 c -0.984004,-0.64774 -2.286324,-1.98947 -3.10302,-3.21417 l -1.41052,-2.10109 1.49252,0.75157 c 2.373161,1.18906 3.775067,2.39853 4.542683,3.89978 1.131483,2.21413 0.950965,2.28917 -1.524966,0.66899 z m -10.70826,-8.88421 c -4.24266,-2.81455 -5.60716,-4.13257 -8.18704,-7.90057 -2.75873,-4.03121 -2.53728,-4.1348 2.01072,-0.94152 2.13059,1.49913 3.31469,2.66164 4.53324,4.44204 0.9026,1.33183 2.55829,3.41476 3.66535,4.64062 1.09845,1.22517 1.95172,2.22982 1.86477,2.22982 0,0 -1.83362,-1.11025 -3.8854,-2.47665 z m -8.61686,-4.67294 c -2.36986,-1.55128 -4.67094,-3.43386 -6.1303,-5.01215 -2.42084,-2.61339 -5.37625,-7.56797 -4.52015,-7.56631 0.67252,0 6.20085,3.96326 7.01272,5.0256 0.37755,0.48728 1.29572,1.91916 2.05342,3.17665 0.75511,1.25643 2.33553,3.31386 3.51315,4.57336 1.18091,1.26126 2.07961,2.28881 2.00257,2.28881 0,0 -1.84518,-1.11025 -3.93306,-2.48455 z m -8.25593,-5.16164 c -6.24557,-3.93329 -9.49455,-7.17389 -11.82807,-11.79787 -1.05008,-2.06416 -1.29572,-3.15152 -0.73859,-3.15152 0.57458,0 6.88647,4.70929 7.36054,5.49306 0.24541,0.4283 1.1972,2.05838 2.05673,3.61037 0.86955,1.55151 2.52406,3.85436 3.67537,5.11055 1.148,1.25147 2.03867,2.27583 1.97155,2.25967 0,0 -1.19733,-0.70202 -2.49965,-1.52862 z m 9.72061,-0.68904 c -1.64507,-1.23331 -3.30148,-2.67226 -3.68045,-3.19021 -0.85303,-1.16334 -1.3448,-5.6927 -0.60645,-5.6927 0.24541,0 1.80248,1.14328 3.4459,2.54082 2.50944,2.12787 3.02762,2.75344 3.20307,3.85613 0.16401,0.72797 0.37756,2.02381 0.55808,2.88357 0.18051,0.86484 0.29496,1.63516 0.21355,1.70477 0,0.0708 -1.49252,-0.86955 -3.13099,-2.10403 z m -9.61726,-6.92682 c -1.80742,-1.28747 -3.52954,-2.81963 -3.82474,-3.3967 -0.27844,-0.57105 -0.63948,-2.26497 -0.77045,-3.74829 -0.18051,-2.28892 -0.164,-2.69845 0.328,-2.69845 0.328,0 1.93697,1.14918 3.63774,2.55935 2.42249,2.01071 3.15683,2.83992 3.41274,3.85707 0.37755,1.49748 0.85304,5.77918 0.63948,5.77918 0,0 -1.62336,-1.0548 -3.42583,-2.35087 z m 9.76651,-0.0708 c -3.44258,-2.87307 -4.44311,-3.91548 -4.43154,-4.61548 0,-0.84832 2.1911,-4.88296 2.73078,-5.05251 0.37755,-0.14748 6.07331,5.46156 6.69817,6.57701 0.24541,0.44952 -1.05008,2.69266 -2.64053,4.56156 -0.164,0.164 -1.19731,-0.50026 -2.35853,-1.46787 z m 5.89586,-4.70114 c -0.328,-0.14748 -1.65782,-1.42527 -2.95837,-2.90304 -3.11955,-3.5483 -3.11955,-4.06166 0,-6.35176 3.05843,-2.26698 4.36229,-2.94752 5.2283,-2.71745 0.83652,0.21474 5.71736,6.76365 5.71736,7.66825 0,0.41294 -1.0666,1.21702 -3.13913,2.35347 -3.892,2.14981 -4.0757,2.22178 -4.81535,1.95384 z m -25.85067,-2.76004 c -1.72341,-1.27932 -3.40613,-2.74022 -3.73755,-3.24862 -0.77045,-1.18092 -0.93445,-7.48973 -0.18052,-7.48973 0.70556,0 6.54042,4.89782 7.06192,5.9191 0.62296,1.21868 0.96748,7.17802 0.42593,7.1608 -0.21355,-0.008 -1.82052,-1.06424 -3.54595,-2.34002 z m 9.64545,-1.43848 c -1.79102,-1.57122 -3.19658,-3.10102 -3.32778,-3.629 -0.2466,-0.95097 1.68271,-5.47962 2.67497,-6.30457 0.39407,-0.32093 1.18091,0.31973 3.86545,3.15174 1.85662,1.95621 3.37368,3.77732 3.37368,4.04433 0,0.61824 -2.85867,5.45306 -3.21794,5.45306 -0.16401,0 -1.66101,-1.21855 -3.36673,-2.71485 z m 26.746186,-1.85721 c -1.344916,-1.1598 -5.126946,-7.03951 -5.020406,-7.79096 0,-0.53683 1.21372,-1.28262 4.223296,-2.79154 4.431307,-2.21919 5.261219,-2.40172 6.407568,-1.43671 0.705555,0.60173 4.4693,6.97697 4.867856,8.25794 0.344518,1.1067 -0.328,1.54466 -4.487351,2.9789 -4.639554,1.59753 -4.992095,1.6459 -5.990963,0.77753 z m -21.932836,-6.18399 c -1.93001,-2.15241 -2.88947,-3.5135 -2.88947,-4.09304 0,-0.48021 0.62296,-1.65098 1.37725,-2.60525 1.66147,-2.09601 4.89251,-5.14229 5.4435,-5.14229 0.91793,0 1.84848,0.88017 4.02485,3.85046 2.7768,3.78417 3.20119,4.5427 2.93254,5.23964 -0.27845,0.7433 -6.83267,5.97455 -7.47558,5.97455 -0.27845,0 -1.82547,-1.44956 -3.41475,-3.22537 z m 36.332643,2.0854 c -1.017038,-0.48729 -5.146656,-8.22078 -5.146656,-9.62091 0,-1.26788 0.344518,-1.47117 6.005709,-3.54477 4.507056,-1.65109 5.451768,-1.77427 6.317666,-0.82118 0.853036,0.9427 4.177402,9.32264 4.177402,10.53389 0,0.71381 -0.24541,1.12676 -0.803483,1.35966 -0.73859,0.31621 -9.404407,2.54331 -9.665273,2.48419 0,-0.006 -0.458966,-0.18524 -0.886074,-0.39879 z m -50.765243,-2.72914 c -3.0405,-2.57043 -3.35529,-2.95377 -3.46195,-4.21928 -0.21355,-2.73455 1.99762,-7.7014 3.44885,-7.7014 0.37755,0 1.78277,1.30386 3.32614,3.08709 4.12159,4.77159 3.95759,4.18425 2.26662,8.06988 -0.78696,1.83338 -1.62372,3.38737 -1.84023,3.45898 -0.21355,0.0472 -1.89756,-1.1362 -3.73943,-2.69527 z m 66.275058,-1.60247 c -0.589928,-0.53566 -1.459719,-2.35583 -2.530322,-5.33591 -1.717164,-4.7776 -1.904172,-5.89244 -1.180919,-6.88825 0.475482,-0.65718 10.165062,-3.85082 11.839633,-3.90509 1.78772,-0.0708 2.276181,0.84596 3.680093,6.76472 1.34492,5.68573 1.39412,7.00929 0.213555,7.62707 -0.689037,0.36103 -9.804262,2.54388 -10.650456,2.54388 -0.24541,0 -0.902591,-0.36102 -1.394119,-0.80701 z m -38.651418,-3.77107 c -1.77946,-1.9221 -5.32174,-7.39888 -5.32174,-8.21628 0,-0.98401 2.46826,-3.03354 6.85036,-5.68196 2.77668,-1.67823 2.95047,-1.73156 3.8592,-1.23178 0.62296,0.34452 1.87291,2.18451 3.601626,5.28718 2.346621,4.21351 2.604184,4.85818 2.251525,5.63158 -0.294965,0.61353 -1.70867,1.53146 -4.708451,3.0333 -2.37317,1.18587 -4.60534,2.16314 -4.9678,2.16314 -0.36103,0 -1.06658,-0.44126 -1.55811,-0.98635 z m -21.91443,-3.77011 c -3.0884,-3.41911 -3.4951,-4.08207 -3.4951,-5.73989 0,-1.33666 1.68106,-4.35604 4.2364,-7.62094 1.65652,-2.11784 2.71273,-2.49551 3.75419,-1.34161 1.79267,1.98062 5.99922,8.25711 5.99922,8.94733 0,0.49672 -0.86955,1.76637 -2.19937,3.24237 -1.21372,1.33501 -2.62389,2.99176 -3.1389,3.68375 -1.05007,1.41712 -1.47611,1.78217 -2.07135,1.78736 -0.21356,0 -1.62372,-1.32686 -3.08675,-2.954 z m 36.606247,-3.04805 c -0.820001,-0.94506 -5.305465,-9.80143 -5.305465,-10.46993 0,-0.32092 0.24659,-0.92854 0.541555,-1.35306 0.705554,-1.01468 10.31101,-6.20523 11.472226,-6.20523 0.492,0 1.19732,0.29142 1.55812,0.66308 0.361035,0.36104 1.661121,3.22042 2.882981,6.34575 1.984521,5.07398 2.179669,5.79263 1.807424,6.69168 -0.213554,0.55807 -0.442447,1.01231 -0.475482,1.01231 0,0 -2.227218,0.88608 -4.880599,1.97284 -5.095804,2.08269 -6.717872,2.37199 -7.605125,1.34162 z m -23.856357,-6.27778 c -0.39407,-0.44481 -1.88778,-2.4875 -3.29003,-4.54304 -3.54064,-5.18406 -3.52589,-5.43206 0.58992,-9.45172 3.91159,-3.82262 6.09951,-5.64538 6.78182,-5.64538 0.27845,0 0.82,0.164 1.18093,0.34805 0.86955,0.47077 6.47965,10.79617 6.47965,11.93874 0,0.50027 -0.29496,1.24157 -0.62296,1.65617 -1.0666,1.26611 -8.80044,6.50657 -9.60416,6.50657 -0.42592,0 -1.09844,-0.36104 -1.49252,-0.80467 z m 41.37724,-0.35396 c -0.984001,-0.89669 -4.892515,-11.1729 -4.892515,-12.87035 0,-0.54628 0.361037,-1.38929 0.803483,-1.88435 0.950965,-1.05479 11.892137,-5.96348 13.292746,-5.96348 1.751617,0 2.225683,0.96631 3.9773,8.17429 1.740172,7.14533 1.769668,7.868 0.344518,9.07606 -0.689037,0.58757 -11.117915,4.27249 -12.093775,4.27249 -0.311482,0 -0.950965,-0.36103 -1.443319,-0.80819 z m -25.75722,-9.60498 c -0.98401,-0.57106 -6.39636,-11.34751 -6.39636,-12.72452 0,-1.68331 1.03354,-2.75651 6.83267,-7.14582 5.200329,-3.93034 6.102449,-4.31331 7.462116,-3.16355 0.869555,0.73506 5.792864,13.26125 5.792864,14.73218 0,0.53801 -0.213554,1.30881 -0.508519,1.70737 -0.639482,0.925 -10.998275,6.9654 -11.906885,6.94983 -0.377556,0 -0.950966,-0.18524 -1.279316,-0.35867 z m 18.106081,-10.47926 c -0.886073,-0.96984 -5.490703,-13.73649 -5.489051,-15.20129 0,-2.39899 1.197319,-3.41639 10.643966,-9.1092 6.665014,-4.01411 6.802822,-3.9143 9.390839,6.84223 1.017037,4.23144 1.850134,8.22573 1.846831,8.87725 0,2.51145 -0.622964,3.0366 -7.408089,6.32769 -3.478574,1.68862 -6.762117,3.06834 -7.290221,3.06834 -0.541555,0 -1.27932,-0.35396 -1.697579,-0.80584 z"
       id="path5212"
       inkscape:connector-curvature="0"
       inkscape:export-xdpi="39.099998"
       inkscape:export-ydpi="39.099998" />
  </g>
</svg>
