<?xml version="1.0" encoding="UTF-8" standalone="no"?>
<!-- Created with Inkscape (http://www.inkscape.org/) -->

<svg
   xmlns:dc="http://purl.org/dc/elements/1.1/"
   xmlns:cc="http://creativecommons.org/ns#"
   xmlns:rdf="http://www.w3.org/1999/02/22-rdf-syntax-ns#"
   xmlns:svg="http://www.w3.org/2000/svg"
   xmlns="http://www.w3.org/2000/svg"
   xmlns:sodipodi="http://sodipodi.sourceforge.net/DTD/sodipodi-0.dtd"
   xmlns:inkscape="http://www.inkscape.org/namespaces/inkscape"
   width="182mm"
   height="89mm"
   viewBox="0 0 182 89"
   version="1.1"
   id="svg7418"
   inkscape:version="0.92.3 (2405546, 2018-03-11)"
   sodipodi:docname="sauto.svg">
  <defs
     id="defs7412" />
  <sodipodi:namedview
     id="base"
     pagecolor="#ffffff"
     bordercolor="#666666"
     borderopacity="1.0"
     inkscape:pageopacity="0.0"
     inkscape:pageshadow="2"
     inkscape:zoom="0.35"
     inkscape:cx="-127.14286"
     inkscape:cy="560"
     inkscape:document-units="mm"
     inkscape:current-layer="layer1"
     showgrid="false"
     inkscape:window-width="1366"
     inkscape:window-height="705"
     inkscape:window-x="-8"
     inkscape:window-y="-8"
     inkscape:window-maximized="1" />
  <metadata
     id="metadata7415">
    <rdf:RDF>
      <cc:Work
         rdf:about="">
        <dc:format>image/svg+xml</dc:format>
        <dc:type
           rdf:resource="http://purl.org/dc/dcmitype/StillImage" />
        <dc:title></dc:title>
      </cc:Work>
    </rdf:RDF>
  </metadata>
  <g
     inkscape:label="Camada 1"
     inkscape:groupmode="layer"
     id="layer1"
     transform="translate(0,-208)">
    <path
       style="opacity:1;fill:#000000;fill-opacity:1;stroke-width:2.94674683"
       d="m 11.676412,294.21935 c -1.032694,-0.14471 -1.101607,-0.4755 -0.600508,-2.68114 0.610351,-2.6451 0.72849,-2.74944 3.163014,-2.60493 1.038589,0.0393 2.015147,0.20872 2.168714,0.33373 0.403639,0.31601 0.108322,4.20337 -0.334696,4.72788 -0.265725,0.30715 -0.659576,0.37016 -2.072268,0.34455 -0.964738,-0.0393 -2.002339,-0.0886 -2.318361,-0.11122 z m 6.725718,-0.26974 c -0.383948,-0.38688 -0.443018,-0.70978 -0.443018,-2.48345 0,-1.8798 0,-2.06576 0.482399,-2.35685 0.689109,-0.45186 4.80211,-0.53357 5.202786,-0.11126 0.147531,0.17227 0.502059,1.20003 0.767842,2.29956 0.669422,2.74759 0.718645,2.69826 -3.484906,2.96002 -1.91475,0.11127 -2.123467,0.0985 -2.530039,-0.31404 z M 6.7837212,293.63853 c -1.008067,-0.14472 -1.6715912,-0.3672 -1.8054701,-0.57886 -0.2657262,-0.43609 1.4402514,-4.43805 1.9659498,-4.59754 0.196897,-0.0394 1.0326648,-0.0394 1.8605907,0.0296 1.8290824,0.19197 1.8556824,0.25203 1.1685181,2.81148 -0.442991,1.66214 -0.9972343,2.66026 -1.4333416,2.59263 -0.098449,0 -0.8761624,-0.12898 -1.7542725,-0.26974 z m 20.1515448,-0.51979 c -0.452833,-0.4932 -1.537685,-3.99624 -1.376245,-4.41956 0,-0.17326 0.443017,-0.38689 0.836784,-0.46564 0.393765,-0.0984 1.553453,-0.34061 2.581209,-0.59066 1.02677,-0.24217 2.008263,-0.39379 2.180534,-0.32782 0.472552,0.17227 2.304597,3.3162 2.304597,3.93226 0,0.7403 -0.964767,1.27604 -3.247699,1.81315 -2.289814,0.53652 -2.830264,0.54735 -3.27918,0.0393 z m 7.086031,-3.7267 c -0.659576,-1.07767 -1.206938,-2.09459 -1.206938,-2.25852 0,-0.17226 0.758025,-0.68025 1.689307,-1.14696 1.685387,-0.84564 1.691282,-0.84958 2.314441,-0.46368 0.344542,0.21264 1.290605,1.08142 2.102764,1.92667 1.404792,1.46552 1.461887,1.56387 1.159686,2.02085 -0.492242,0.76 -2.844058,1.8798 -3.92795,1.8798 h -0.925359 z m 5.478416,-2.78233 c -2.478813,-2.1838 -2.508348,-2.24404 -1.784795,-3.61231 0.324881,-0.61529 0.718645,-1.11488 0.876163,-1.11488 0.570973,0 4.342393,2.81648 4.475285,3.34858 0.147815,0.61133 -0.954921,2.74718 -1.485527,2.85222 -0.196898,0.0393 -1.121269,-0.62611 -2.08014,-1.47193 z m -25.587621,1.13791 c -1.010041,-0.0296 -1.607614,-0.17226 -1.67554,-0.34652 -0.128068,-0.36325 0.472551,-2.93807 0.767869,-3.23066 0.23639,-0.22935 3.365807,-0.21851 3.743831,0.0394 0.108323,0.0296 0.12807,0.79544 0,1.65279 -0.128067,1.49163 -0.482367,2.13998 -1.087811,2.02647 -0.128068,-0.0394 -0.935205,-0.0886 -1.797572,-0.11122 z m -5.2480901,-0.21264 c -1.4205345,-0.11224 -1.5347234,-0.35539 -0.8958247,-1.88747 0.2953177,-0.7088 0.6398873,-1.41287 0.7678699,-1.56221 0.2953176,-0.36228 3.1108299,-0.37014 3.2299549,0 0,0.12897 -0.09844,0.89289 -0.305191,1.66825 -0.383919,1.41424 -0.826937,1.98492 -1.455005,1.91237 -0.1968963,-0.0393 -0.7875591,-0.0886 -1.3398287,-0.11225 z m 9.5540381,-0.11224 c -0.147531,-0.1447 -0.255853,-0.87025 -0.255853,-1.71569 0,-1.82436 0.167279,-1.9421 2.743636,-1.85714 l 1.880309,0.0393 0.374076,1.39989 c 0.472524,1.73645 0.374076,2.0624 -0.649731,2.23075 -1.374273,0.22544 -3.820617,0.14469 -4.096273,-0.11123 z m 7.023011,-0.32881 c -0.216642,-0.0296 -0.531592,-0.59657 -0.807248,-1.40293 -0.570972,-1.69068 -0.561128,-2.06516 0,-2.19314 0.265725,-0.0394 1.259097,-0.25597 2.206147,-0.44496 l 1.721776,-0.34062 0.541467,0.64087 c 0.925359,1.10051 1.403806,2.16528 1.152777,2.56202 -0.315036,0.50107 -3.962395,1.38983 -4.854298,1.18231 z m 6.248259,-1.94228 c -0.64973,-0.70881 -1.974779,-2.64018 -1.871422,-2.73518 0,-0.0393 0.689111,-0.37113 1.430379,-0.74622 l 1.354611,-0.68025 1.390041,1.33373 c 0.767843,0.73145 1.390013,1.46241 1.390013,1.62118 0,0.21659 -2.70327,1.79977 -3.076386,1.79977 0,0 -0.324851,-0.26483 -0.620197,-0.59165 z m 9.400444,-2.82122 c -2.198249,-1.4239 -2.534949,-1.75812 -2.890323,-2.8662 -0.245979,-0.77182 -1.90784,-2.88117 -2.109673,-2.67927 0,0.0394 0.128068,0.42529 0.443018,0.81611 0.649731,0.85548 1.058278,1.83972 0.817093,1.98867 -0.09844,0.0394 -0.846628,-0.31109 -1.66076,-0.81905 -1.225639,-0.76296 -1.61351,-1.14738 -2.195315,-2.19877 -0.383921,-0.70288 -0.905698,-1.44113 -1.153764,-1.651 -0.24598,-0.20477 -0.383921,-0.37901 -0.315035,-0.37901 0.236389,0 2.137232,1.01359 3.002564,1.60582 0.452835,0.31305 0.886007,0.52077 0.945076,0.4558 0.147532,-0.14471 2.461098,1.03288 4.177965,2.14008 1.501269,0.96869 2.559547,2.25132 3.084257,3.73861 0.2756,0.77182 0.245979,1.10189 -0.09844,1.09549 -0.09845,0 -0.996246,-0.56802 -2.063383,-1.25821 z m -27.560453,0.61429 c -0.216643,-0.34062 0.128069,-2.14294 0.472525,-2.48581 0.315006,-0.316 2.082084,-0.43611 2.739715,-0.19196 0.413454,0.1447 0.482367,2.22553 0.09844,2.6258 -0.315007,0.31404 -3.103947,0.3475 -3.295907,0.0394 z m 4.929106,0.0393 c -0.128067,-0.0984 -0.2855,-0.66548 -0.344569,-1.29061 -0.128069,-1.42212 0.108322,-1.59736 2.149052,-1.50737 l 1.451057,0.0296 0.364258,1.07471 c 0.275601,0.82398 0.305162,1.1326 0.108322,1.31748 -0.295316,0.29041 -3.371703,0.56605 -3.72118,0.34061 z m 16.184244,-1.02824 c -0.777716,-0.65761 -1.403834,-1.36091 -1.395937,-1.56212 0,-0.19984 0.167278,-0.73637 0.383921,-1.18881 l 0.364231,-0.82891 1.661747,1.11155 c 1.384117,0.92536 1.663722,1.2083 1.662736,1.68919 0,0.62612 -0.72849,1.97637 -1.062229,1.97637 -0.108321,0 -0.8466,-0.5375 -1.617431,-1.19865 z m -25.2214421,0.69107 c 0,-0.17226 0.1280668,-0.8033 0.4331438,-1.40963 l 0.5611573,-1.09726 h 1.288631 c 1.4609,0 1.489449,0.0394 0.992298,1.72385 l -0.285473,0.97068 -1.433342,0.0296 c -1.0937353,0.0394 -1.4609287,0 -1.5524664,-0.24712 z m 14.4024111,-0.0394 c -0.34457,-0.12896 -1.02186,-2.22581 -0.787559,-2.43599 0.255853,-0.22742 3.466231,-0.71765 3.713311,-0.55917 0.423328,0.25597 1.35461,2.1075 1.161634,2.29956 -0.10832,0.11225 -0.945047,0.33964 -1.870435,0.51782 -1.778869,0.34062 -1.818249,0.34062 -2.215003,0.17228 z m 5.19489,-1.10207 c -0.462679,-0.32191 -1.641071,-2.24768 -1.463864,-2.39889 0.108322,-0.0985 0.600509,-0.33176 1.10849,-0.55424 l 0.925386,-0.39968 1.059239,1.04252 c 0.580816,0.57687 1.007106,1.12443 0.945077,1.22436 -0.09844,0.14471 -2.109674,1.25821 -2.282931,1.24856 0,0 -0.167279,-0.0886 -0.295319,-0.14471 z m 2.070294,-2.68616 c -1.052383,-0.85547 -1.109478,-0.949 -0.974611,-1.66656 0.09844,-0.41543 0.206769,-0.83087 0.295345,-0.9175 0.196897,-0.19789 2.378418,1.2531 2.543806,1.68311 0.108321,0.32092 -0.2855,1.52558 -0.580819,1.70662 -0.09844,0.0296 -0.66942,-0.31108 -1.277826,-0.80625 z m 41.651781,-0.29039 c -1.589873,-0.22545 -3.292946,-0.58576 -4.521549,-0.96378 l -1.329984,-0.40757 0.334724,-1.51091 c 0.187024,-0.83087 0.452834,-1.51073 0.590663,-1.51073 0.128067,0 1.108489,0.20871 2.153961,0.47351 2.694416,0.66845 7.938555,0.70881 9.216353,0.0394 1.360503,-0.68418 1.692267,-1.48966 1.692267,-4.10079 0,-3.4175 -0.196897,-3.60681 -5.163405,-4.84524 -4.212437,-1.05059 -5.527641,-1.57047 -6.684369,-2.63475 -1.336866,-1.23253 -1.675541,-2.41268 -1.675541,-5.85932 0,-2.45904 0,-2.92939 0.492243,-3.87525 1.278785,-2.79296 3.684759,-3.84296 8.758584,-3.8224 2.432551,0 4.130708,0.19788 6.627268,0.73144 l 1.070099,0.22842 -0.14753,1.53799 c -0.09845,0.84564 -0.196897,1.57697 -0.236387,1.62491 0,0.0394 -1.080904,-0.0984 -2.295716,-0.31305 -3.05867,-0.55719 -7.431561,-0.56704 -8.83539,-0.004 -1.464856,0.56507 -1.707022,1.14392 -1.707022,4.05335 0,3.48907 0,3.55324 5.203768,4.92172 5.540446,1.47518 6.745418,2.11064 7.701296,4.05935 0.561152,1.13279 0.600512,1.39013 0.600512,4.00934 0,3.50383 -0.344549,4.67531 -1.833908,6.16036 -1.438283,1.43826 -3.088292,1.94032 -6.670688,2.02666 -1.480595,0.0393 -2.982878,0.0393 -3.337257,-0.0296 z m 46.723635,-0.21659 c -4.03621,-0.8988 -6.34179,-3.39486 -6.81432,-7.37437 -0.10833,-0.90766 -0.16728,-6.00786 -0.12807,-11.33704 v -9.68909 l 1.88324,-0.0393 1.88423,-0.0394 v 10.82779 c 0,10.0672 0,10.88882 0.40362,11.70434 0.91554,2.01328 3.25656,3.01564 6.66565,2.85291 2.57137,-0.11123 4.11795,-0.85745 5.08465,-2.42409 l 0.64973,-1.05699 V 260.79235 249.8484 h 1.82124 1.82024 v 10.85407 c 0,9.95192 0,10.96009 -0.39377,12.13258 -0.80726,2.60139 -2.61961,4.35458 -5.41444,5.2454 -1.89407,0.60641 -5.58279,0.73636 -7.64419,0.27565 z m 44.53522,0.11224 c -3.4938,-0.63103 -5.7009,-2.24621 -6.81532,-4.9874 -0.43313,-1.0813 -0.47251,-1.55572 -0.54143,-8.57154 -0.0985,-7.96464 0,-9.20316 0.94509,-11.01414 1.48453,-2.93069 4.46543,-4.30212 9.34923,-4.30212 4.90745,0 7.85686,1.35459 9.34632,4.29621 0.91554,1.81117 1.02479,3.05256 0.94507,11.02005 -0.0985,7.10846 -0.0985,7.48009 -0.55131,8.62973 -1.32015,3.2837 -4.21439,4.8917 -9.09134,5.0496 -1.36145,0.0393 -2.97497,0 -3.58531,-0.11224 z m 6.81532,-3.79455 c 1.20987,-0.54144 2.29472,-1.75397 2.51917,-2.81628 0.0985,-0.44597 0.17715,-4.05769 0.17715,-8.0245 v -7.21459 l -0.54143,-1.07492 c -0.95493,-1.90904 -2.48082,-2.5563 -6.02865,-2.5563 -3.54793,0 -5.07391,0.64677 -6.02871,2.55621 l -0.54147,1.0747 v 7.4289 c 0,8.0116 0,8.30989 1.16364,9.54666 1.18418,1.29827 2.4984,1.65109 5.83476,1.57342 1.92461,-0.0394 2.6905,-0.14471 3.44359,-0.49222 z m -83.756422,3.43108 c 0,-0.0985 2.249454,-6.48276 4.998988,-14.21723 l 4.999008,-14.06335 2.250438,0.0394 2.251418,0.0296 5.02165,14.10312 c 2.76036,7.75612 5.02065,14.12754 5.02262,14.15698 0,0.0394 -0.84662,0.0394 -1.88226,0.0394 h -1.8862 l -1.27878,-3.55236 -1.27879,-3.55295 -6.01297,0.0393 -6.012003,0.0393 -0.945055,2.58309 c -0.521748,1.42241 -1.09568,2.99635 -1.285696,3.4992 l -0.344544,0.91454 h -1.813334 c -0.996283,0 -1.812387,-0.0886 -1.812387,-0.14471 z m 16.959982,-10.45026 c 0,-0.1447 -1.09373,-3.17591 -2.31444,-6.72876 -1.21873,-3.55246 -2.285865,-6.53612 -2.368569,-6.63062 -0.128061,-0.14471 -4.740084,12.82089 -4.740084,13.37729 0,0.18902 1.276815,0.25103 4.75978,0.25103 3.715273,0 4.738123,-0.0393 4.663313,-0.26873 z m 39.66811,-1.88403 v -12.48728 h -4.31678 -4.3148 v -1.66813 -1.66834 l 10.38981,-0.0394 10.38884,-0.0296 v 1.72515 1.72346 h -4.30598 -4.30594 v 12.48844 12.48757 h -1.83106 -1.82812 v -12.48658 z m -112.014834,10.7389 c -0.590663,-0.38886 -1.372326,-1.19414 -1.862565,-1.92942 l -0.846629,-1.26116 0.895853,0.45088 c 1.424483,0.71371 2.266175,1.43993 2.726909,2.34099 0.679266,1.329 0.570972,1.37408 -0.915543,0.40165 z m -6.42744,-5.33273 c -2.54674,-1.68941 -3.365809,-2.48051 -4.914325,-4.74237 -1.655854,-2.41966 -1.522934,-2.48187 1.206909,-0.56506 1.278813,0.89977 1.989561,1.59755 2.721013,2.66646 0.541438,0.79936 1.535739,2.04962 2.200222,2.78538 0.659578,0.73538 1.171481,1.33845 1.119323,1.33845 0,0 -1.10062,-0.66647 -2.332155,-1.4866 z M 19.87189,268.328 c -1.42251,-0.93127 -2.803693,-2.06131 -3.679828,-3.00864 -1.45306,-1.56861 -3.227021,-4.54253 -2.713142,-4.54153 0.403639,0 3.722196,2.3789 4.209473,3.01653 0.226516,0.29237 0.777714,1.1519 1.232524,1.90676 0.452862,0.75409 1.40186,1.98926 2.108686,2.74522 0.708801,0.75704 1.248264,1.3738 1.202002,1.3738 0,0 -1.107502,-0.66648 -2.360702,-1.49124 z m -4.95568,-3.09832 c -3.74877,-2.36091 -5.6989507,-4.30605 -7.0997953,-7.0817 -0.6300423,-1.23892 -0.777714,-1.89161 -0.4430181,-1.89161 0.3445697,0 4.1336774,2.82664 4.4181914,3.29711 0.147531,0.25695 0.718644,1.23567 1.234497,2.16725 0.521749,0.93128 1.515062,2.31353 2.206119,3.06752 0.68911,0.75113 1.223667,1.36601 1.183328,1.35627 0,0 -0.718645,-0.42134 -1.50031,-0.9175 z m 5.834804,-0.41347 c -0.987419,-0.7403 -1.981691,-1.60395 -2.209109,-1.91485 -0.511905,-0.69796 -0.807221,-3.41719 -0.364232,-3.41719 0.147532,0 1.081891,0.68615 2.06832,1.52529 1.506206,1.27722 1.817261,1.65269 1.922621,2.31462 0.09844,0.4371 0.226517,1.21471 0.334697,1.73076 0.108322,0.5188 0.177151,0.9815 0.128069,1.02332 0,0.0394 -0.895854,-0.52174 -1.879295,-1.26294 z m -5.772774,-4.1577 c -1.084878,-0.77278 -2.118529,-1.69265 -2.295736,-2.03897 -0.167279,-0.34259 -0.383922,-1.35953 -0.46268,-2.24985 -0.108321,-1.37389 -0.09844,-1.6197 0.196897,-1.6197 0.196896,0 1.162621,0.69009 2.183495,1.53622 1.454018,1.20683 1.895034,1.70456 2.048602,2.3151 0.226516,0.8988 0.511932,3.46908 0.383948,3.46908 0,0 -0.97461,-0.63299 -2.0565,-1.41109 z m 5.862337,-0.0394 c -2.066345,-1.72474 -2.666852,-2.35045 -2.659942,-2.77062 0,-0.50896 1.315205,-2.93088 1.639095,-3.03267 0.226518,-0.0886 3.645386,3.27819 4.020449,3.94771 0.147531,0.26973 -0.630042,1.61645 -1.584936,2.73823 -0.09844,0.0984 -0.718645,-0.30026 -1.415626,-0.88108 z m 3.539093,-2.822 c -0.196896,-0.0886 -0.995288,-0.85548 -1.775936,-1.74247 -1.87241,-2.12985 -1.87241,-2.43797 0,-3.81256 1.835993,-1.36088 2.618616,-1.76943 3.138389,-1.63131 0.502086,0.12897 3.431788,4.05994 3.431788,4.60296 0,0.24806 -0.639886,0.73045 -1.88423,1.41258 -2.336076,1.2904 -2.446344,1.33362 -2.890321,1.17276 z M 8.8628742,256.1404 c -1.0346401,-0.76787 -2.0446814,-1.64471 -2.2435527,-1.94989 -0.4626796,-0.7088 -0.561128,-4.49575 -0.1083213,-4.49575 0.423327,0 3.9259768,2.94004 4.2390078,3.55305 0.374104,0.73144 0.580847,4.30841 0.255854,4.29808 -0.128068,-0.005 -1.0927203,-0.63891 -2.1283765,-1.40452 z m 5.7894998,-0.86337 c -1.075006,-0.94308 -1.918672,-1.86137 -1.997431,-2.17828 -0.147813,-0.57096 1.01004,-3.28921 1.605639,-3.78439 0.236389,-0.19294 0.708801,0.19196 2.320309,1.89181 1.114414,1.17434 2.02502,2.26746 2.02502,2.42773 0,0.37114 -1.715881,3.27308 -1.93148,3.27308 -0.09845,0 -0.997234,-0.73144 -2.02107,-1.62955 z m 16.054314,-1.11478 c -0.807248,-0.69599 -3.077373,-4.22553 -3.013397,-4.67659 0,-0.32191 0.728491,-0.76984 2.534949,-1.67553 2.659969,-1.33206 3.158107,-1.44162 3.846231,-0.86238 0.423299,0.36129 2.682592,4.18783 2.921802,4.95668 0.20677,0.6645 -0.196896,0.92735 -2.693424,1.78825 -2.784991,0.95884 -2.99664,0.98788 -3.596161,0.46662 z m -13.16498,-3.71204 c -1.158673,-1.29189 -1.734581,-2.10888 -1.734581,-2.45677 0,-0.28845 0.374104,-0.99094 0.826937,-1.5637 0.997235,-1.25812 2.936584,-3.08681 3.26736,-3.08681 0.551283,0 1.109478,0.52865 2.415823,2.31137 1.666683,2.2714 1.921634,2.72671 1.760195,3.145 -0.167278,0.44595 -4.101181,3.58634 -4.487105,3.58634 -0.167276,0 -1.095683,-0.87027 -2.049588,-1.93621 z m 21.808385,1.25173 c -0.610352,-0.29239 -3.089193,-4.93434 -3.089193,-5.77475 0,-0.76098 0.206771,-0.88306 3.605046,-2.12788 2.705245,-0.99104 3.272268,-1.06496 3.79207,-0.4932 0.511903,0.56605 2.50736,5.59597 2.50736,6.32297 0,0.42825 -0.147532,0.67631 -0.48237,0.81612 -0.442989,0.18999 -5.644789,1.52656 -5.80132,1.49113 0,-0.004 -0.275598,-0.11123 -0.531593,-0.23922 z M 8.8786137,250.06381 c -1.8251603,-1.54281 -2.0141588,-1.77289 -2.0781645,-2.53249 -0.1280676,-1.64136 1.1990677,-4.62283 2.0702947,-4.62283 0.2265162,0 1.0700978,0.78262 1.9964441,1.8532 2.473904,2.86405 2.375483,2.51151 1.360506,4.84377 -0.472524,1.1004 -0.974583,2.03316 -1.10454,2.07619 -0.128068,0.0296 -1.1390113,-0.68222 -2.2445403,-1.61784 z m 39.7813423,-0.9618 c -0.354385,-0.32192 -0.876133,-1.41406 -1.518982,-3.20279 -1.030718,-2.86789 -1.142932,-3.53701 -0.7088,-4.13476 0.2855,-0.39476 6.101574,-2.31137 7.106706,-2.34396 1.073031,-0.0393 1.366402,0.50798 2.209082,4.06042 0.807249,3.41297 0.836784,4.20742 0.128067,4.57816 -0.413482,0.21659 -5.885015,1.52698 -6.39297,1.52698 -0.147531,0 -0.541465,-0.21659 -0.836783,-0.48435 z m -23.200372,-2.26353 c -1.068093,-1.15367 -3.194495,-4.44123 -3.194495,-4.93187 0,-0.59067 1.481577,-1.82082 4.112012,-3.4105 1.666656,-1.00728 1.771,-1.03928 2.316387,-0.73932 0.374105,0.20674 1.124231,1.31118 2.161831,3.17355 1.408744,2.52904 1.563299,2.91602 1.351649,3.38019 -0.17715,0.36818 -1.025781,0.91946 -2.826343,1.82092 -1.424484,0.71175 -2.764314,1.29839 -2.981858,1.29839 -0.216645,0 -0.639888,-0.26483 -0.935233,-0.59167 z m -13.154119,-2.26294 c -1.853707,-2.05247 -2.097855,-2.45038 -2.097855,-3.44546 0,-0.80231 1.009055,-2.61458 2.54282,-4.57451 0.994301,-1.27121 1.628262,-1.49792 2.253396,-0.80528 1.075994,1.18903 3.601096,4.95639 3.601096,5.37064 0,0.29829 -0.521747,1.06025 -1.320139,1.94615 -0.72849,0.80133 -1.575118,1.79602 -1.884228,2.21134 -0.630043,0.85057 -0.886009,1.0697 -1.243357,1.07286 -0.128068,0 -0.974583,-0.79642 -1.85272,-1.77309 z m 21.972786,-1.82969 c -0.492243,-0.56703 -3.184681,-5.88313 -3.184681,-6.28458 0,-0.19295 0.147814,-0.5572 0.324853,-0.81217 0.423328,-0.60937 6.189189,-3.72455 6.886198,-3.72455 0.295317,0 0.718646,0.17524 0.935205,0.39771 0.216642,0.21659 0.997234,1.93297 1.730661,3.80893 1.191168,3.04575 1.308321,3.47705 1.08485,4.01672 -0.128067,0.3347 -0.265725,0.60741 -0.285499,0.60741 0,0 -1.336869,0.53159 -2.929702,1.18417 -3.058643,1.25005 -4.032266,1.4237 -4.564848,0.80527 z M 19.958518,238.9777 c -0.236389,-0.2668 -1.133088,-1.4931 -1.97478,-2.7271 -2.125414,-3.11164 -2.116556,-3.26048 0.354387,-5.67315 2.347896,-2.29466 3.661153,-3.38875 4.070687,-3.38875 0.167278,0 0.492213,0.0985 0.7088,0.20871 0.521749,0.28254 3.889532,6.48039 3.889532,7.16616 0,0.30026 -0.177152,0.74523 -0.374077,0.99408 -0.639914,0.75999 -5.282533,3.90569 -5.764902,3.90569 -0.255854,0 -0.659577,-0.21659 -0.895853,-0.48336 z m 24.836534,-0.21266 c -0.590662,-0.5385 -2.936612,-6.70652 -2.936612,-7.72542 0,-0.32782 0.216644,-0.83384 0.482399,-1.13103 0.570972,-0.63299 7.138187,-3.57963 7.978891,-3.57963 1.051397,0 1.335908,0.57983 2.387276,4.90667 1.044512,4.28881 1.062227,4.72256 0.20677,5.4477 -0.413455,0.35243 -6.673535,2.56467 -7.259289,2.56467 -0.187023,0 -0.570973,-0.21658 -0.866318,-0.48533 z m -15.46069,-5.76539 c -0.590662,-0.34258 -3.839319,-6.81136 -3.839319,-7.6379 0,-1.01034 0.620196,-1.65455 4.101181,-4.28932 3.121661,-2.35912 3.663128,-2.58899 4.479206,-1.89888 0.521776,0.44103 3.477063,7.95999 3.477063,8.84295 0,0.3229 -0.128068,0.78558 -0.305163,1.0248 -0.383947,0.55523 -6.601686,4.18104 -7.147073,4.17169 -0.226515,0 -0.570973,-0.11124 -0.767869,-0.2156 z m 10.868255,-6.29019 c -0.531593,-0.58182 -3.295906,-8.24531 -3.29492,-9.12451 0,-1.43995 0.718647,-2.0506 6.389021,-5.46781 4.000787,-2.40942 4.083466,-2.34946 5.636919,4.10711 0.610353,2.53986 1.110465,4.93736 1.108491,5.32859 0,1.50747 -0.374104,1.8227 -4.446737,3.79808 -2.08801,1.01359 -4.058841,1.84169 -4.375849,1.84169 -0.324852,0 -0.76787,-0.21263 -1.0189,-0.48336 z"
       id="path5212"
       inkscape:connector-curvature="0" />
  </g>
</svg>
