<?xml version="1.0" encoding="UTF-8" standalone="no"?>
<!-- Created with Inkscape (http://www.inkscape.org/) -->

<svg
   xmlns:dc="http://purl.org/dc/elements/1.1/"
   xmlns:cc="http://creativecommons.org/ns#"
   xmlns:rdf="http://www.w3.org/1999/02/22-rdf-syntax-ns#"
   xmlns:svg="http://www.w3.org/2000/svg"
   xmlns="http://www.w3.org/2000/svg"
   xmlns:sodipodi="http://sodipodi.sourceforge.net/DTD/sodipodi-0.dtd"
   xmlns:inkscape="http://www.inkscape.org/namespaces/inkscape"
   width="182mm"
   height="89mm"
   viewBox="0 0 182 89"
   version="1.1"
   id="svg7418"
   inkscape:version="0.92.3 (2405546, 2018-03-11)"
   sodipodi:docname="sauto.svg">
  <defs
     id="defs7412" />
  <sodipodi:namedview
     id="base"
     pagecolor="#ffffff"
     bordercolor="#666666"
     borderopacity="1.0"
     inkscape:pageopacity="0.0"
     inkscape:pageshadow="2"
     inkscape:zoom="0.49497475"
     inkscape:cx="209.89213"
     inkscape:cy="-505.03437"
     inkscape:document-units="mm"
     inkscape:current-layer="layer1"
     showgrid="false"
     inkscape:window-width="1366"
     inkscape:window-height="705"
     inkscape:window-x="-8"
     inkscape:window-y="-8"
     inkscape:window-maximized="1"
     inkscape:pagecheckerboard="true"
     showborder="true"
     borderlayer="false"
     inkscape:showpageshadow="true"
     showguides="true" />
  <metadata
     id="metadata7415">
    <rdf:RDF>
      <cc:Work
         rdf:about="">
        <dc:format>image/svg+xml</dc:format>
        <dc:type
           rdf:resource="http://purl.org/dc/dcmitype/StillImage" />
        <dc:title></dc:title>
      </cc:Work>
    </rdf:RDF>
  </metadata>
  <g
     inkscape:label="Camada 1"
     inkscape:groupmode="layer"
     id="layer1"
     transform="translate(0,-208)">
    <rect
       style="opacity:1;fill:#ffffff;fill-opacity:1;fill-rule:evenodd;stroke:none;stroke-width:9.84042645;stroke-linecap:butt;stroke-linejoin:round;stroke-miterlimit:4;stroke-dasharray:none;stroke-opacity:1"
       id="rect7969"
       width="324.80801"
       height="237.6644"
       x="-160.9319"
       y="331.41599"
       inkscape:export-xdpi="39.099998"
       inkscape:export-ydpi="39.099998" />
    <path
       style="opacity:1;fill:#000000;fill-opacity:1;stroke-width:4.96505499"
       d="m -132.18239,520.54226 c -1.74002,-0.24382 -1.85614,-0.80118 -1.01182,-4.51752 1.0284,-4.45681 1.22746,-4.63262 5.32944,-4.38912 1.74995,0.0662 3.39538,0.35168 3.65414,0.56231 0.6801,0.53245 0.18251,7.08238 -0.56394,7.96613 -0.44773,0.51754 -1.11134,0.62371 -3.49162,0.58055 -1.62552,-0.0662 -3.37381,-0.14925 -3.90627,-0.18739 z m 11.33234,-0.45449 c -0.64692,-0.65186 -0.74645,-1.19593 -0.74645,-4.18443 0,-3.16732 0,-3.48066 0.81281,-3.97112 1.1611,-0.76135 8.0912,-0.89902 8.76631,-0.18747 0.24858,0.29025 0.84593,2.02196 1.29377,3.87458 1.12791,4.62951 1.21086,4.5464 -5.87183,4.98744 -3.22621,0.18748 -3.57788,0.16597 -4.26292,-0.52914 z m -19.57617,-0.52414 c -1.69852,-0.24385 -2.81652,-0.61871 -3.0421,-0.97535 -0.44773,-0.73478 2.42673,-7.47777 3.31249,-7.74651 0.33175,-0.0664 1.73997,-0.0664 3.13496,0.0499 3.08186,0.32346 3.12669,0.42466 1.96887,4.73713 -0.74641,2.8006 -1.68027,4.48235 -2.41508,4.3684 -0.16588,0 -1.47627,-0.21731 -2.95582,-0.45448 z m 33.95389,-0.87581 c -0.763,-0.831 -2.59089,-6.73338 -2.31888,-7.44663 0,-0.29195 0.74645,-0.6519 1.40992,-0.78458 0.66347,-0.16579 2.61747,-0.57391 4.34915,-0.99523 1.73003,-0.40803 3.38378,-0.66349 3.674038,-0.55234 0.796215,0.29025 3.883089,5.58757 3.883089,6.62557 0,1.24734 -1.62557,2.15003 -5.472137,3.05502 -3.85818,0.904 -4.7688,0.92225 -5.52518,0.0662 z m 11.93944,-6.27922 c -1.11134,-1.81579 -2.033603,-3.52924 -2.033603,-3.80545 0,-0.29024 1.27722,-1.14616 2.846366,-1.93253 2.839746,-1.42486 2.849689,-1.43149 3.899667,-0.78128 0.58053,0.35828 2.174572,1.82212 3.543,3.2463 2.366972,2.4693 2.463172,2.63502 1.953991,3.40499 -0.829398,1.28053 -4.79204,3.16733 -6.618317,3.16733 h -1.559159 z m 9.230735,-4.68803 c -4.176615,-3.67955 -4.226377,-3.78103 -3.007252,-6.08647 0.547401,-1.03673 1.210864,-1.8785 1.47627,-1.8785 0.962051,0 7.316617,4.74557 7.540535,5.6421 0.249066,1.03006 -1.608966,4.62882 -2.503007,4.8058 -0.33176,0.0662 -1.88925,-1.05496 -3.504878,-2.48009 z m -43.113285,1.91729 c -1.70185,-0.0499 -2.70872,-0.29024 -2.82316,-0.58385 -0.21579,-0.61206 0.79621,-4.95044 1.29379,-5.44343 0.39832,-0.38645 5.67115,-0.36818 6.30809,0.0664 0.18251,0.0499 0.2158,1.34026 0,2.78481 -0.21578,2.5133 -0.81275,3.60572 -1.83288,3.41446 -0.21579,-0.0664 -1.57575,-0.14925 -3.02878,-0.18739 z m -8.84265,-0.35827 c -2.39351,-0.18912 -2.58591,-0.59881 -1.50941,-3.18025 0.4976,-1.19428 1.07817,-2.38058 1.29381,-2.63222 0.49759,-0.61041 5.24152,-0.62364 5.44224,0 0,0.21731 -0.16587,1.50445 -0.51422,2.81088 -0.64688,2.3829 -1.39334,3.34444 -2.45157,3.2222 -0.33176,-0.0662 -1.32699,-0.14925 -2.25752,-0.18912 z m 16.09787,-0.18912 c -0.24859,-0.24381 -0.4311,-1.46631 -0.4311,-2.89082 0,-3.07391 0.28185,-3.27228 4.62282,-3.12914 l 3.1682,0.0662 0.63029,2.35872 c 0.79615,2.92579 0.63028,3.475 -1.09476,3.75865 -2.31555,0.37985 -6.43746,0.24379 -6.90192,-0.18741 z m 11.83325,-0.55401 c -0.36501,-0.0499 -0.89568,-1.00518 -1.36015,-2.36384 -0.96204,-2.84868 -0.94546,-3.47965 0,-3.69529 0.44774,-0.0664 2.12149,-0.4313 3.7172,-0.74972 l 2.90107,-0.57393 0.91233,1.07982 c 1.55916,1.85429 2.36531,3.64834 1.94234,4.31683 -0.53081,0.84426 -6.67634,2.34177 -8.17913,1.9921 z m 10.527869,-3.27263 c -1.094747,-1.19428 -3.327359,-4.4485 -3.153219,-4.60856 0,-0.0662 1.16111,-0.62533 2.410091,-1.25733 l 2.282428,-1.14617 2.342107,2.24723 c 1.293769,1.23244 2.342078,2.46407 2.342078,2.73158 0,0.36493 -4.554813,3.03249 -5.183493,3.03249 0,0 -0.547346,-0.44622 -1.044985,-0.99689 z m 15.839066,-4.75354 c -3.703885,-2.39917 -4.271203,-2.96229 -4.869981,-4.82932 -0.414466,-1.30049 -3.214576,-4.85458 -3.554653,-4.51439 0,0.0664 0.215784,0.71659 0.746452,1.37508 1.094761,1.44142 1.783134,3.09979 1.376744,3.35077 -0.165865,0.0664 -1.426506,-0.52417 -2.798258,-1.38004 -2.065117,-1.28553 -2.718649,-1.93326 -3.698947,-3.70478 -0.646872,-1.1843 -1.526032,-2.42818 -1.944006,-2.7818 -0.414466,-0.34502 -0.646884,-0.63862 -0.530811,-0.63862 0.398299,0 3.601079,1.70783 5.059101,2.7057 0.763002,0.52747 1.492862,0.87746 1.592386,0.76799 0.248573,-0.24383 4.146769,1.74034 7.039572,3.60588 2.529529,1.63218 4.312649,3.79331 5.196746,6.29929 0.464371,1.30045 0.414452,1.8566 -0.165864,1.84581 -0.16588,0 -1.678602,-0.95705 -3.476658,-2.11999 z m -46.437365,1.03505 c -0.36503,-0.57393 0.21578,-3.61071 0.79617,-4.18843 0.53077,-0.53243 3.50816,-0.73481 4.61623,-0.32344 0.69663,0.24383 0.81275,3.74987 0.16585,4.42428 -0.53075,0.52915 -5.22992,0.58553 -5.55336,0.0664 z m 8.30519,0.0662 c -0.21578,-0.1658 -0.48105,-1.12129 -0.58057,-2.1746 -0.2158,-2.39617 0.18251,-2.69142 3.62099,-2.53979 l 2.44493,0.0498 0.61374,1.81081 c 0.46437,1.38834 0.51417,1.90833 0.18251,2.21986 -0.49758,0.48931 -5.68107,0.95375 -6.2699,0.5739 z m 27.269277,-1.73251 c -1.310404,-1.10804 -2.365361,-2.29304 -2.352051,-2.63206 0,-0.33672 0.281842,-1.24073 0.646871,-2.00307 l 0.6137,-1.39665 2.799927,1.87289 c 2.332133,1.55915 2.80325,2.03589 2.801596,2.84615 0,1.05498 -1.227457,3.33005 -1.789782,3.33005 -0.182514,0 -1.426463,-0.90565 -2.725255,-2.01964 z m -42.496297,1.16439 c 0,-0.29025 0.21578,-1.3535 0.7298,-2.37512 l 0.94552,-1.84879 h 2.17125 c 2.46151,0 2.50961,0.0664 1.67195,2.90456 l -0.48101,1.63553 -2.41508,0.0499 c -1.84285,0.0664 -2.46155,0 -2.61578,-0.41639 z m 24.26701,-0.0664 c -0.58058,-0.21729 -1.72176,-3.75033 -1.32698,-4.10447 0.4311,-0.38319 5.84036,-1.20919 6.25666,-0.94216 0.71329,0.43128 2.28242,3.55099 1.95728,3.87459 -0.18252,0.18913 -1.59235,0.57227 -3.15155,0.8725 -2.99726,0.57391 -3.06362,0.57391 -3.73213,0.29027 z m 8.75301,-1.85691 c -0.77958,-0.5424 -2.76507,-3.78718 -2.4665,-4.04197 0.18252,-0.16596 1.01182,-0.55899 1.86772,-0.93385 l 1.55921,-0.67343 1.78474,1.75658 c 0.978641,0.97197 1.696901,1.89458 1.592383,2.06296 -0.165865,0.24382 -3.554643,2.11998 -3.846563,2.10372 0,0 -0.28186,-0.14925 -0.4976,-0.24382 z m 3.488295,-4.52598 c -1.773185,-1.44142 -1.869395,-1.59901 -1.642145,-2.80804 0.16586,-0.69997 0.34839,-1.39995 0.49763,-1.54593 0.33176,-0.33343 4.007473,2.11138 4.286131,2.83592 0.182514,0.54074 -0.481047,2.5705 -0.97863,2.87554 -0.165865,0.0499 -1.127932,-0.52415 -2.153056,-1.35848 z m 70.180249,-0.48929 c -2.678831,-0.37987 -5.54838,-0.98697 -7.618489,-1.62392 l -2.240927,-0.6867 0.563981,-2.54578 c 0.315124,-1.39996 0.763001,-2.54549 0.995235,-2.54549 0.215784,0 1.867723,0.35167 3.629256,0.79784 4.539904,1.1263 13.375892,1.1943 15.528891,0.0664 2.29236,-1.1528 2.851361,-2.50999 2.851361,-6.90954 0,-5.75824 -0.331761,-6.07722 -8.69997,-8.16388 -7.097652,-1.77017 -9.313683,-2.64612 -11.262683,-4.43936 -2.252525,-2.07673 -2.823166,-4.06519 -2.823166,-9.87254 0,-4.14331 0,-4.9358 0.829398,-6.52951 2.154656,-4.70593 6.208547,-6.4751 14.757573,-6.44047 4.098675,0 6.959951,0.33341 11.166468,1.23244 l 1.803049,0.38487 -0.248586,2.5914 c -0.16588,1.42483 -0.331745,2.65707 -0.398284,2.73784 0,0.0664 -1.821255,-0.16579 -3.868123,-0.52745 -5.153633,-0.93884 -12.521642,-0.95543 -14.886989,-0.006 -2.468181,0.9521 -2.876211,1.92741 -2.876211,6.82959 0,5.87883 0,5.98697 8.767966,8.29274 9.335254,2.48559 11.365545,3.55629 12.976136,6.83971 0.9455021,1.90869 1.0118144,2.34227 1.0118144,6.75546 0,5.90369 -0.5805434,7.87756 -3.0900004,10.37977 -2.423398,2.42335 -5.203551,3.26928 -11.239626,3.41476 -2.494703,0.0662 -5.025931,0.0662 -5.623039,-0.0499 z M 49.09527,493.7399 c -6.800717,-1.51442 -10.685448,-5.72009 -11.481634,-12.42527 -0.182529,-1.52936 -0.281855,-10.12283 -0.215783,-19.1021 v -16.32541 l 3.173116,-0.0662 3.174788,-0.0664 v 18.24406 c 0,16.9625 0,18.34687 0.680083,19.72096 1.54261,3.39223 5.487061,5.08114 11.231137,4.80695 4.332565,-0.18742 6.938449,-1.44474 8.56726,-4.08442 l 1.094747,-1.78094 v -18.44095 -18.43977 h 3.068655 3.066973 v 18.28833 c 0,16.76825 0,18.46696 -0.663462,20.44253 -1.36018,4.38314 -4.413857,7.33714 -9.122951,8.8381 -3.191364,1.02175 -9.406588,1.24072 -12.879907,0.46446 z m 75.03863,0.18911 c -5.8868,-1.06323 -9.60561,-3.78469 -11.48332,-8.4034 -0.7298,-1.82192 -0.79614,-2.62128 -0.91227,-14.44244 -0.16597,-13.41984 0,-15.50665 1.59241,-18.55802 2.50133,-4.938 7.52392,-7.24876 15.75277,-7.24876 8.26869,0 13.23824,2.28238 15.74787,7.23879 1.54262,3.05171 1.72671,5.14336 1.59238,18.56799 -0.16596,11.97726 -0.16596,12.60341 -0.92892,14.54047 -2.22436,5.53281 -7.10095,8.24217 -15.31825,8.50823 -2.29394,0.0662 -5.01261,0 -6.04099,-0.18912 z m 11.48332,-6.39353 c 2.03855,-0.9123 3.86644,-2.95531 4.24462,-4.74524 0.16596,-0.75142 0.29849,-6.83691 0.29849,-13.5207 v -12.15606 l -0.91228,-1.81116 c -1.60899,-3.21661 -4.18,-4.30717 -10.15783,-4.30717 -5.97801,0 -8.54918,1.08975 -10.15795,4.30701 l -0.91233,1.8108 v 12.51715 c 0,13.49897 0,14.00157 1.96064,16.08544 1.99527,2.18748 4.20963,2.78196 9.83115,2.65109 3.24283,-0.0664 4.5333,-0.24381 5.8022,-0.82936 z M -5.506295,493.3166 c 0,-0.16597 3.79017,-10.92299 8.4229358,-23.95502 l 8.4229642,-23.69573 3.791825,0.0664 3.793479,0.0499 8.461114,23.76273 c 4.651013,13.06849 8.459431,23.80388 8.462756,23.85348 0,0.0664 -1.426494,0.0664 -3.171478,0.0664 h -3.17811 l -2.154655,-5.98548 -2.154656,-5.98646 -10.131424,0.0662 -10.1297856,0.0662 -1.5923582,4.35234 c -0.8791049,2.39665 -1.8461359,5.04862 -2.1662964,5.8959 l -0.58052921,1.54092 H -2.4658586 c -1.6786577,0 -3.0537328,-0.14926 -3.0537328,-0.24381 z m 28.576347,-17.60792 c 0,-0.24381 -1.842855,-5.35117 -3.899668,-11.33748 -2.053474,-5.98563 -3.851518,-11.01289 -3.99086,-11.17211 -0.215784,-0.24383 -7.9867012,21.60227 -7.9867012,22.53977 0,0.31847 2.151345,0.42297 8.0198852,0.42297 6.259963,0 7.98339,-0.0662 7.857344,-0.4528 z m 66.837899,-3.17445 V 451.4941 H 82.63449 75.36435 v -2.81067 -2.81103 l 17.506085,-0.0664 17.504455,-0.0499 v 2.90674 2.90391 h -7.25527 -7.255202 v 21.04213 21.04065 h -3.085205 -3.080242 v -21.039 z m -188.736898,18.09426 c -0.995223,-0.65521 -2.312273,-2.01204 -3.138293,-3.25093 l -1.42651,-2.12496 1.50946,0.7597 c 2.400142,1.20255 3.818331,2.42618 4.594643,3.94439 1.144509,2.23928 0.962037,2.31523 -1.542624,0.67674 z m -10.829763,-8.98527 c -4.29108,-2.84652 -5.67115,-4.17947 -8.28029,-7.99054 -2.78999,-4.07695 -2.56603,-4.18177 2.03356,-0.95209 2.1547,1.51605 3.35227,2.69176 4.5847,4.49279 0.91229,1.34686 2.58761,3.45346 3.70723,4.69318 1.11134,1.23905 1.97385,2.25518 1.88597,2.25518 0,0 -1.85447,-1.12296 -3.92952,-2.50481 z m -8.71489,-4.72603 c -2.39684,-1.56913 -4.72404,-3.47315 -6.20026,-5.06934 -2.44829,-2.64298 -5.43729,-7.65384 -4.57145,-7.65214 0.68011,0 6.27163,4.00827 7.09266,5.08263 0.38166,0.49263 1.3104,1.94087 2.07672,3.21274 0.76304,1.2706 2.36203,3.35177 3.55298,4.62551 1.19429,1.27556 2.10324,2.31475 2.02528,2.31475 0,0 -1.86605,-1.12296 -3.9776,-2.51263 z m -8.34997,-5.22045 c -6.31641,-3.97796 -9.60232,-7.25538 -11.96265,-11.93214 -1.06158,-2.0875 -1.31039,-3.18722 -0.74645,-3.18722 0.58057,0 6.96495,4.76266 7.44433,5.55537 0.24859,0.43296 1.21087,2.08202 2.08004,3.65167 0.87911,1.56913 2.55277,3.89813 3.71716,5.16855 1.1611,1.26559 2.06179,2.30162 1.99382,2.28522 0,0 -1.21086,-0.70994 -2.52792,-1.54593 z m 9.83121,-0.69667 c -1.66372,-1.24734 -3.33899,-2.70253 -3.72219,-3.22637 -0.86251,-1.17601 -1.3601,-5.75772 -0.6137,-5.75772 0.24859,0 1.82291,1.15611 3.48498,2.57 2.53785,2.15202 3.06195,2.78467 3.23947,3.89997 0.16587,0.73647 0.38167,2.0467 0.56394,2.9162 0.18251,0.87413 0.29849,1.65377 0.2158,1.72421 0,0.0664 -1.50946,-0.87909 -3.16649,-2.12795 z m -9.7267,-7.00541 c -1.82793,-1.30208 -3.56956,-2.85199 -3.86814,-3.43552 -0.28186,-0.57724 -0.64688,-2.29072 -0.77959,-3.79084 -0.1825,-2.3149 -0.16587,-2.72907 0.33176,-2.72907 0.33176,0 1.95893,1.16275 3.67903,2.58842 2.44992,2.03341 3.193,2.87206 3.45175,3.90077 0.38166,1.51441 0.86256,5.84515 0.64692,5.84515 0,0 -1.64215,-1.06654 -3.46506,-2.37758 z m 9.87762,-0.0664 c -3.48164,-2.90605 -4.49345,-3.96033 -4.48181,-4.66828 0,-0.85756 2.21603,-4.93834 2.76175,-5.10983 0.38168,-0.14926 6.14222,5.52351 6.77417,6.6516 0.24858,0.45447 -1.06158,2.72361 -2.6705,4.61372 -0.16587,0.1658 -1.21087,-0.50592 -2.38523,-1.48456 z m 5.96311,-4.75487 c -0.33176,-0.14925 -1.67699,-1.4414 -2.99233,-2.93593 -3.15487,-3.58864 -3.15487,-4.10779 0,-6.42388 3.09353,-2.29299 4.41219,-2.98136 5.28797,-2.74864 0.84598,0.21731 5.78231,6.8407 5.78231,7.75566 0,0.41795 -1.07817,1.23075 -3.17478,2.3801 -3.93612,2.17423 -4.12192,2.24703 -4.87,1.976 z m -26.14467,-2.79142 c -1.7433,-1.29381 -3.44514,-2.77123 -3.78023,-3.28542 -0.77958,-1.19428 -0.94546,-7.57502 -0.18251,-7.57502 0.71327,0 6.61499,4.95375 7.14242,5.98663 0.63033,1.23241 0.97869,7.25936 0.4311,7.24196 -0.2158,-0.008 -1.84116,-1.07652 -3.58617,-2.36653 z m 9.75488,-1.45472 c -1.81131,-1.58903 -3.23282,-3.13627 -3.36552,-3.67024 -0.24905,-0.96203 1.70184,-5.54208 2.70538,-6.37644 0.3983,-0.32508 1.19427,0.32344 3.90956,3.18759 1.8777,1.97866 3.41201,3.82048 3.41201,4.09053 0,0.62535 -2.89113,5.51491 -3.25441,5.51491 -0.16588,0 -1.68027,-1.23243 -3.40535,-2.74567 z m 27.05036,-1.87831 c -1.36016,-1.17272 -5.18515,-7.11973 -5.07735,-7.87974 0,-0.54239 1.22744,-1.29712 4.2712,-2.82313 4.481852,-2.24444 5.321181,-2.42903 6.480614,-1.45307 0.713225,0.60876 4.519973,7.0562 4.923024,8.35166 0.348395,1.11963 -0.331745,1.56251 -4.53822,3.01308 -4.692515,1.61556 -5.049128,1.66449 -6.059268,0.78621 z m -22.18203,-6.25452 c -1.95228,-2.17676 -2.92265,-3.55332 -2.92265,-4.1395 0,-0.48601 0.63033,-1.66965 1.39333,-2.63471 1.68026,-2.11986 4.94792,-5.20105 5.50527,-5.20105 0.92886,0 1.86939,0.89073 4.07048,3.89448 2.80825,3.82715 3.23782,4.5943 2.96579,5.29911 -0.28184,0.75138 -6.91018,6.04272 -7.56043,6.04272 -0.28186,0 -1.84615,-1.46634 -3.45342,-3.26237 z m 36.745541,2.10906 c -1.028407,-0.49264 -5.205065,-8.31401 -5.205065,-9.73004 0,-1.28219 0.348394,-1.48789 6.07424,-3.58531 4.558135,-1.66983 5.51354,-1.79438 6.389363,-0.83102 0.862513,0.95375 4.224721,9.42881 4.224721,10.65375 0,0.72157 -0.248586,1.13954 -0.812763,1.37511 -0.746396,0.32012 -9.511063,2.57215 -9.774799,2.51243 0,-0.006 -0.464371,-0.1874 -0.895697,-0.40306 z m -51.342231,-2.76012 c -3.07528,-2.59954 -3.39372,-2.9872 -3.50157,-4.26706 -0.21578,-2.76559 2.02035,-7.78915 3.4883,-7.78915 0.38167,0 1.80304,1.31866 3.36387,3.12252 4.16835,4.82571 4.00251,4.2317 2.29235,8.16139 -0.79617,1.8541 -1.6421,3.42573 -1.86107,3.49825 -0.21578,0.0499 -1.91915,-1.14951 -3.78188,-2.72595 z m 67.028669,-1.62057 c -0.597106,-0.54241 -1.476211,-2.38259 -2.559374,-5.39647 -1.736681,-4.8322 -1.925759,-5.95961 -1.194272,-6.96677 0.481047,-0.66514 10.280713,-3.8945 11.974281,-3.94941 1.807986,-0.0662 2.302286,0.85591 3.722144,6.84152 1.360168,5.7506 1.40993,7.08919 0.215785,7.71387 -0.696689,0.36493 -9.915826,2.57286 -10.771691,2.57286 -0.248573,0 -0.912331,-0.36496 -1.409915,-0.81611 z m -39.090949,-3.8139 c -1.79965,-1.94384 -5.38248,-7.48315 -5.38248,-8.30982 0,-0.99525 2.49634,-3.06796 6.92843,-5.74646 2.8082,-1.69719 2.98401,-1.75111 3.90295,-1.24571 0.63035,0.34835 1.89425,2.20925 3.642533,5.34721 2.373623,4.26125 2.634048,4.91329 2.277421,5.69538 -0.298476,0.62035 -1.728364,1.54922 -4.762184,3.06812 -2.40015,1.19925 -4.65765,2.1877 -5.02421,2.1877 -0.36503,0 -1.07815,-0.44622 -1.57579,-0.99694 z m -22.16373,-3.81288 c -3.12337,-3.45825 -3.53473,-4.1287 -3.53473,-5.80535 0,-1.35183 1.70018,-4.40538 4.28447,-7.70772 1.67532,-2.1419 2.7435,-2.52389 3.7968,-1.35685 1.81298,2.00344 6.06759,8.35117 6.06759,9.04916 0,0.50259 -0.8791,1.78644 -2.22433,3.27913 -1.22746,1.35017 -2.65396,3.02615 -3.1748,3.72593 -1.06158,1.43316 -1.49286,1.80237 -2.09496,1.80769 -0.21579,0 -1.64211,-1.3419 -3.12171,-2.98752 z m 37.022553,-3.0829 c -0.8294,-0.9554 -5.365965,-9.91264 -5.365965,-10.58906 0,-0.32509 0.249068,-0.93884 0.54736,-1.36844 0.713282,-1.02674 10.428332,-6.27559 11.602745,-6.27559 0.497582,0 1.210863,0.29526 1.575751,0.6701 0.365029,0.36494 1.68027,3.25692 2.916044,6.41776 2.007022,5.13189 2.204418,5.85859 1.827888,6.76789 -0.215783,0.56395 -0.44772,1.02345 -0.481047,1.02345 0,0 -2.252524,0.89569 -4.936334,1.99524 -5.153589,2.10625 -6.794069,2.39883 -7.691436,1.35683 z m -24.127723,-6.34905 c -0.39829,-0.44955 -1.90916,-2.51577 -3.32735,-4.59497 -3.58116,-5.24289 -3.56624,-5.49366 0.59712,-9.55885 3.95604,-3.86634 6.16877,-5.7098 6.85881,-5.7098 0.28184,0 0.82934,0.16596 1.19427,0.35166 0.87911,0.47607 6.55359,10.919 6.55359,12.07448 0,0.5059 -0.29849,1.25564 -0.6303,1.67494 -1.0782,1.28054 -8.90068,6.5808 -9.71344,6.5808 -0.4311,0 -1.11134,-0.36494 -1.50944,-0.81442 z m 41.847778,-0.35832 c -0.995237,-0.90732 -4.947991,-11.3 -4.947991,-13.01678 0,-0.55235 0.365029,-1.40495 0.812808,-1.90571 0.962051,-1.06654 12.027338,-6.03141 13.443858,-6.03141 1.771534,0 2.250913,0.97697 4.022391,8.26738 1.75992,7.22634 1.789766,7.95718 0.348393,9.17899 -0.696646,0.59382 -11.244419,4.32128 -12.231381,4.32128 -0.315125,0 -0.962053,-0.36491 -1.459678,-0.81774 z m -26.050158,-9.71426 c -0.99522,-0.57722 -6.46897,-11.47666 -6.46897,-12.86931 0,-1.70235 1.04499,-2.7878 6.9102,-7.2272 5.259763,-3.97495 6.172094,-4.36226 7.547127,-3.19948 0.87916,0.74311 5.85861,13.41202 5.85861,14.89975 0,0.54406 -0.215783,1.32363 -0.514174,1.7267 -0.646927,0.93552 -11.123363,7.04475 -12.042303,7.029 -0.38167,0 -0.96205,-0.18742 -1.29381,-0.36326 z m 18.312226,-10.59853 c -0.895696,-0.98031 -5.553358,-13.89274 -5.551702,-15.37413 0,-2.42621 1.210878,-3.45511 10.765041,-9.21287 6.74104,-4.05969 6.880341,-3.95867 9.497797,6.9202 1.028405,4.27946 1.871059,8.31909 1.867734,8.97828 0,2.53998 -0.630335,3.07111 -7.492429,6.39949 -3.518144,1.70783 -6.838851,3.10311 -7.372985,3.10311 -0.54736,0 -1.293811,-0.35826 -1.71678,-0.81443 z"
       id="path5212"
       inkscape:connector-curvature="0"
       inkscape:export-xdpi="39.099998"
       inkscape:export-ydpi="39.099998" />
  </g>
</svg>
